<?xml version="1.0" standalone="no"?>
<!DOCTYPE svg PUBLIC "-//W3C//DTD SVG 1.1//EN" "http://www.w3.org/Graphics/SVG/1.1/DTD/svg11.dtd" >
<svg>
<metadata>
Created by FontForge 20090622 at Fri Jun 12 05:59:09 2015
 By deploy user
&#194;&#169; 1993, 1994, 2002 Adobe Systems Incorporated. All Rights Reserved.
</metadata>
<defs>
<font id="SanvitoPro-Bold" horiz-adv-x="356" >
  <font-face 
    font-family="Sanvito Pro"
    font-weight="700"
    font-style="italic"
    font-stretch="normal"
    units-per-em="1000"
    panose-1="3 6 8 2 4 6 2 3 2 4"
    ascent="710"
    descent="-290"
    x-height="387"
    cap-height="531"
    bbox="-197.522 -300.857 996 835"
    underline-thickness="50"
    underline-position="-50"
    slope="-5"
    unicode-range="U+0020-U+FB02"
  />
<missing-glyph horiz-adv-x="500" 
d="M50 95l170 255l-170 255v-510zM420 50l-170 255l-170 -255h340zM450 95v510l-170 -255zM420 650h-340l170 -255zM0 700h500v-700h-500v700z" />
    <glyph glyph-name="fi" unicode="fi" horiz-adv-x="532" 
d="M366 655q13 0 25.5 -4.5t22 -12t15 -16.5t5.5 -18q0 -7 -5.5 -15t-13.5 -15.5t-17 -14l-15 -10.5q-8 -5 -11 -5t-6 4q-17 17 -38.5 29t-38.5 12q-16 0 -30 -6t-25 -23q-15 -23 -21.5 -73.5t-11.5 -114.5q-1 -8 0 -12.5t7 -5.5q14 -2 44 -3.5t64 -1.5q18 0 38 2.5t39.5 7
t36.5 9.5t29 11q9 4 11.5 1t-1.5 -17q-4 -12 -7 -27.5t-5 -37.5q-4 -35 -6 -79t-3 -95q-1 -42 11.5 -56t26.5 -14q9 0 24.5 3t26.5 8q4 2 5 -1t-0.5 -8t-5.5 -11t-11 -11q-17 -11 -36.5 -19.5t-39 -15.5t-36.5 -10.5t-29 -3.5q-18 0 -29 9.5t-17.5 24.5t-8.5 32t-2 32
q0 42 4 92l9 110q1 10 -2.5 13t-11.5 2q-12 -2 -24.5 -2.5t-26.5 -1.5h-64q-8 1 -11.5 0t-5.5 -8t-4 -33.5t-3 -74.5q-1 -46 0 -68.5t6 -38.5q3 -12 7.5 -24t9.5 -17q3 -3 1.5 -4.5t-7.5 -6.5q-5 -5 -20.5 -11.5l-33 -13.5t-33 -11.5t-20.5 -4.5q-11 0 -17 5.5t-9 13.5
t-4 18.5t-1 21.5q0 13 1 43.5t2.5 66.5t3.5 72t4 60q0 9 -1.5 12t-7.5 3q-8 0 -20.5 -0.5t-20.5 -3.5q-14 -5 -3 16q5 8 17.5 21t30.5 20q6 2 8 4t3 8q3 26 10.5 56t24.5 63q26 53 68.5 90t96.5 63q28 14 48 18t34 4h1z" />
    <glyph glyph-name="fl" unicode="fl" horiz-adv-x="530" 
d="M296 603q-15 0 -30 -9t-27 -28q-8 -13 -14.5 -34.5t-11 -48t-7.5 -55t-4 -56.5q-1 -17 9 -18q13 -2 33.5 -3.5t42.5 -1.5q27 0 47 3q8 1 9 19q4 45 5.5 86.5t3.5 85.5q1 14 -2.5 27t-13.5 20q-18 13 -39 13h-1zM345 655q11 0 24 -3t22 -9q12 -8 22 -2q3 2 10.5 5.5
t16.5 7l17.5 6.5t12.5 4t6 -3t1 -16q-2 -20 -3.5 -51.5t-5.5 -76.5q-3 -30 -6.5 -72.5t-6 -89t-4 -94t-1.5 -87.5q0 -50 8.5 -80t37.5 -30q8 0 20 3.5t21 7.5q4 2 4.5 -9t-13.5 -23q-13 -11 -29.5 -20.5t-33.5 -17t-34 -11.5t-31 -4q-17 0 -30.5 8t-22.5 20
q-13 15 -16.5 37.5t-1.5 67.5l2 45.5l2 46t2.5 43.5t2.5 37q1 11 -10 10q-13 -4 -44 -7q-18 -2 -36.5 -2.5t-38.5 -0.5q-7 0 -10.5 -1t-4.5 -9q-2 -10 -3.5 -42.5t-1.5 -83.5q0 -57 3.5 -84t15.5 -37q10 -6 -6 -18q-8 -5 -23 -12t-30.5 -13t-29 -10.5t-19.5 -4.5
q-20 0 -26 20.5t-6 43.5q1 24 1 49.5t2 62.5q3 39 4.5 73t2.5 51q0 10 -1.5 13.5t-8.5 3.5q-11 0 -23 -0.5t-18 -2.5q-10 -2 -5 9q7 11 19 25t34 22q5 2 6.5 4t2.5 8q2 20 6.5 48.5t21.5 66.5q19 43 59 85t94 69q26 13 44 18.5t35 5.5h1z" />
    <glyph glyph-name=".notdef" horiz-adv-x="500" 
d="M50 95l170 255l-170 255v-510zM420 50l-170 255l-170 -255h340zM450 95v510l-170 -255zM420 650h-340l170 -255zM0 700h500v-700h-500v700z" />
    <glyph glyph-name=".null" horiz-adv-x="0" 
 />
    <glyph glyph-name="nonmarkingreturn" horiz-adv-x="178" 
 />
    <glyph glyph-name="space" unicode=" " horiz-adv-x="178" 
 />
    <glyph glyph-name="numbersign" unicode="#" horiz-adv-x="466" 
d="M283 317q-5 0 -25 1.5t-34 1.5q-7 0 -9 -2t-4 -8q-8 -24 -12.5 -42.5t-9.5 -32.5q-2 -6 0 -7.5t8 -1.5q9 -1 27.5 -2t32.5 -1q6 -1 7.5 1t3.5 7l11 37.5l11 38.5q2 6 1 8t-7 2h-1zM72 5q-7 0 -2 18q3 15 13 49.5t24 77.5q3 8 2 10t-5 3q-20 1 -41 1t-32 -2q-5 -1 -5 2
t7 13q18 28 37 38t50 12q9 0 12 1.5t5 6.5l10.5 35l12.5 40q4 10 -6 11q-8 1 -19.5 1.5t-23.5 0.5t-23 -0.5t-18 -2.5q-16 -3 3 18q13 15 23 24t20.5 14.5t24 7t33.5 1.5q7 0 10 9l13.5 45t7.5 32q0 3 12 10t44 19q11 5 11 1t-4 -16q-3 -10 -9.5 -30l-20.5 -61q-5 -11 4 -11
q14 -1 31 -2t30 -1q5 0 7 1.5t4 6.5l20.5 65.5t23.5 35.5q7 4 20 8t21 6q12 2 6 -8q-7 -12 -14 -37.5t-21 -67.5q-2 -7 -1.5 -9t7.5 -2q60 -2 73 1q5 1 4.5 -3t-8.5 -14q-10 -13 -30 -28t-60 -17q-5 0 -8 -1.5t-5 -7.5q-6 -18 -11.5 -38t-9.5 -40q-3 -10 5 -10
q20 -2 45 -2.5t43 2.5q6 1 7.5 -2t-6.5 -12q-22 -30 -45.5 -40t-58.5 -10q-9 0 -10 -10q-3 -15 -6.5 -29.5t-6 -26.5t-4 -20.5t-0.5 -11.5q1 -5 -8 -11.5l-21 -14.5q-12 -9 -21 -13t-13 -4q-7 0 -3 16q3 12 7 26.5l8 30l8 30.5t7 28q2 10 -8 10l-63 3q-7 1 -9.5 -0.5
t-5.5 -9.5q-14 -39 -20.5 -66t-5.5 -35q1 -5 -3.5 -9.5t-18.5 -15.5q-8 -6 -21 -12.5t-20 -6.5h-1z" />
    <glyph glyph-name="dollar" unicode="$" horiz-adv-x="466" 
d="M321 126q0 12 -6.5 21t-16 15.5t-20.5 10.5t-20 6q-12 4 -13 -7q-3 -21 -6 -46t-7 -55q-1 -9 0 -11t6 -1q12 1 26.5 6.5t27.5 14.5t21 20.5t8 25.5zM153 371q0 -23 18 -34.5t42 -19.5q10 -4 11 8q5 37 8 61.5t5 38.5q1 7 -1 8t-7 1q-12 -2 -25.5 -7t-24.5 -13
t-18.5 -18.5t-7.5 -23.5v-1zM343 490q9 0 20.5 -2t22 -6.5t18 -12t7.5 -19.5q0 -6 -4 -13t-10 -14t-13 -13t-13 -9q-17 -11 -18 -3q-7 15 -26 26t-37 11q-6 0 -7.5 -2t-2.5 -9q-3 -16 -6 -44.5t-8 -62.5q-2 -8 0 -11t8 -5q14 -5 35.5 -9.5t41.5 -10.5q35 -11 54.5 -31.5
t20.5 -52.5q0 -36 -18.5 -66t-47 -52.5t-62 -37.5t-62.5 -22q-7 -2 -9 -4.5t-4 -9.5l-7 -61t-3 -40q0 -8 -1.5 -9.5t-5.5 -1.5q-11 0 -24 13.5t-11 40.5q1 9 2.5 21t3.5 30q1 10 -6 9h-28q-22 0 -43 3.5t-38 11t-27.5 18t-10.5 24.5q0 7 4 14.5t11 15t15 14t14 10.5
q9 5 11.5 4.5t4.5 -5.5q14 -26 37.5 -42.5t52.5 -18.5q11 -2 12 8q5 28 9 57.5t9 60.5q1 6 -0.5 8.5t-8.5 4.5q-64 17 -100.5 40.5t-37.5 67.5q0 31 12.5 56t41.5 50q26 23 54.5 37t67.5 25q12 4 10 12q2 18 4.5 33.5t0.5 25.5q-1 4 1 8.5t10 11.5q13 12 22 17t13 5
q3 0 3.5 -8t0 -21t-2.5 -28l-4 -30q-2 -11 5 -11q7 2 19.5 3t26.5 1h1z" />
    <glyph glyph-name="percent" unicode="%" horiz-adv-x="711" 
d="M593 301q22 0 37 -9.5t24 -24.5t12.5 -32.5t3.5 -32.5q0 -44 -13.5 -76.5t-32.5 -55.5t-40 -38t-37 -23q-17 -9 -36 -15.5t-36 -6.5t-34.5 4t-32 15.5t-23.5 32t-9 52.5q0 23 6.5 44t16.5 38.5t23 31t25 21.5l23 13.5t20 10.5q10 3 16.5 -1t-5.5 -16q-11 -12 -21 -37
t-10 -65q0 -25 6 -43t15 -29t19 -16.5t18 -5.5q18 0 29 12.5t16.5 30.5t7 38.5t1.5 36.5q0 45 -12 65.5t-21 24.5q-6 2 -13.5 4t-13.5 0q-5 -1 -6 5t7 14q12 12 32 22.5t37 10.5h1zM269 506q20 0 29 -7.5t14 -12.5q6 -5 12 -8.5t11 -5.5q14 -5 26.5 -8t32.5 -3q57 0 91 12
t45 26q8 11 8 16q1 10 16 17q4 3 11.5 6.5t15.5 6.5t15.5 5.5t11.5 2.5q10 0 7 -9t-8 -21q-3 -7 -11.5 -19.5t-19.5 -27l-23.5 -30t-22.5 -29.5l-35 -42.5l-51.5 -61l-54 -63.5l-44.5 -51l-92 -107.5l-56 -69.5q-11 -13 -16 -22.5t-3 -17.5q1 -6 -1 -10t-10 -8
q-5 -3 -12.5 -5.5t-16 -4.5t-16 -3t-10.5 -1q-10 0 -12 11q0 5 5.5 15.5t15.5 24.5q8 11 33 41.5t79 90.5l69.5 77.5l71 82l64.5 78l50 64.5q3 5 0.5 6.5t-7.5 -0.5q-14 -7 -32 -12t-36.5 -8t-35.5 -3.5t-29 0.5q-9 1 -11.5 -1.5t-2.5 -7.5v-16q0 -29 -10 -55t-25 -47.5
t-33 -37.5t-33 -26q-23 -14 -46.5 -23t-45.5 -9q-45 0 -70.5 28t-25.5 76q0 58 30.5 103t84.5 68q19 7 19 -1t-6 -15q-19 -23 -28 -48.5t-9 -62.5q0 -51 18.5 -74.5t40.5 -23.5q14 0 24.5 8t16.5 21q5 10 10 33t5 54q0 9 -1.5 25t-6 31t-13 26t-22.5 11h-15q-5 -1 -4.5 5.5
t8.5 14.5q10 11 29.5 21.5t41.5 10.5h1z" />
    <glyph glyph-name="ampersand" unicode="&#x26;" horiz-adv-x="747" 
d="M300 52q12 0 23.5 2.5t20.5 5.5q12 6 -3 16q-18 14 -39 34t-40.5 42l-36.5 43t-28 38q-7 11 -15 1q-20 -22 -20 -58q0 -25 11.5 -47.5t30.5 -39.5t43.5 -27t51.5 -10h1zM305 475q-15 0 -26 -7.5t-17.5 -19t-10 -26t-3.5 -27.5q0 -17 6 -34.5t15 -31.5q5 -8 17 -3
q26 13 46.5 37t20.5 55q0 24 -14 40.5t-33 16.5h-1zM206 -14q-75 0 -118.5 36.5t-43.5 96.5q0 29 11.5 51t29 39t39 30.5t41.5 27.5q11 7 6 15q-5 11 -8.5 26t-3.5 32q0 28 9.5 52t25.5 44t37.5 36t44.5 28q19 11 38 18.5t40 7.5q18 0 34 -6t29 -17t20.5 -28t7.5 -38
q0 -26 -14 -47t-35 -37.5t-45 -29.5l-45 -24q-12 -6 -4 -16q25 -35 58.5 -68t85.5 -71q7 -5 10.5 -5t8.5 5q11 13 19 28t12.5 30t6.5 28.5t2 23.5q0 9 -1.5 15.5t-3.5 10.5q-3 5 -8 7t-16 2q-26 0 -47 -7.5t-38 -18.5q-12 -8 -12 0q0 5 7.5 15t18.5 19q30 24 65.5 37.5
t79.5 13.5q28 0 47.5 -2t45.5 -6q21 -2 42.5 -3t32.5 -1q4 0 4 -3t-8 -13q-17 -19 -43 -28t-52 -9h-30q-6 0 -7.5 -1.5t-1.5 -6.5q0 -16 -5.5 -35.5t-15.5 -40t-24 -39.5t-32 -35q-13 -10 -1 -18q10 -6 23 -13t27 -12t28 -8.5t25 -3.5q16 0 37 5t41 20q7 5 12 8t7 3
q4 0 4.5 -9t-7.5 -21q-17 -27 -38.5 -44.5t-44 -28t-44.5 -14.5t-40 -4q-37 0 -71 14t-57 30q-9 7 -14 8t-13 -4q-16 -9 -36.5 -17t-42.5 -15t-45.5 -11t-45.5 -4h-1z" />
    <glyph glyph-name="quoteright" unicode="&#x2019;" horiz-adv-x="221" 
d="M150 617q13 0 22.5 -7.5t16 -18.5t9.5 -25.5t3 -27.5q0 -34 -15 -64.5t-37.5 -55t-48.5 -41.5t-48 -23q-23 -5 -26.5 1t5.5 13q28 19 50.5 53.5t22.5 72.5q0 24 -8 39.5t-21 23.5q-15 10 24 37q14 10 27.5 16.5t22.5 6.5h1z" />
    <glyph glyph-name="parenleft" unicode="(" horiz-adv-x="350" 
d="M145 197q0 -55 6.5 -97.5t27.5 -83.5q10 -20 21.5 -34t24 -24t26 -17.5t29.5 -14.5q14 -7 -1 -17q-13 -8 -29.5 -12t-27.5 -4q-10 0 -22 2t-32 11q-18 8 -41.5 31.5t-39.5 58.5q-20 43 -27.5 86t-7.5 85q0 138 48.5 239.5t137.5 169.5q22 17 48 28t36 11q18 0 18 -10
q0 -5 -18 -15q-31 -17 -62.5 -50.5t-57.5 -86.5q-32 -66 -44.5 -126.5t-12.5 -128.5v-1z" />
    <glyph glyph-name="parenright" unicode=")" horiz-adv-x="350" 
d="M298 316q0 -110 -35 -193.5t-94 -137.5q-18 -23 -37.5 -39t-37.5 -27t-34 -17.5t-26 -8.5q-11 -2 -16 2t-5 8t5 8t12 8q31 20 63.5 53t56.5 81q29 57 42.5 118t13.5 126t-12 117.5t-43 93.5q-21 32 -44.5 46.5t-38.5 22.5q-9 5 -6.5 8.5t11.5 9.5q14 8 28 12.5t25 5.5
q22 0 41 -7.5t35.5 -21t29.5 -30t22 -34.5q23 -44 33.5 -96.5t10.5 -106.5v-1z" />
    <glyph glyph-name="asterisk" unicode="*" horiz-adv-x="355" 
d="M230 536q8 0 18.5 -9t10.5 -17q0 -3 -2.5 -6.5t-4.5 -8.5q-5 -6 -12.5 -25.5t-16.5 -48.5q-5 -13 6 -9q4 1 16 5t26.5 10l28.5 12t23 12q6 5 9 4.5t6 -5.5q4 -5 7 -14.5t-2 -17.5q-3 -5 -14.5 -11t-26.5 -12l-30.5 -12l-25.5 -10q-11 -3 -5 -7q5 -7 31 -20q6 -4 15 -9
l17.5 -10t16 -9t10.5 -7q13 -12 7 -24q-4 -7 -11.5 -14.5t-13.5 -10.5q-12 -6 -17 1q-3 3 -16.5 11.5l-29 18.5l-30 18.5t-18.5 10.5q-7 3 -12 -11l-11 -37t-6 -35q-1 -12 -13.5 -18.5t-30.5 -13.5q-21 -8 -15 18l6 21l8.5 29t9.5 29.5t8 24.5q6 13 -12 7l-27 -9l-30 -10.5
t-29 -11.5t-24 -11q-8 -5 -10.5 -1.5t1.5 11.5q15 31 41.5 46t56.5 23q13 4 3 11q-3 2 -9.5 7.5l-14 12l-15 13.5t-11.5 12q-8 9 -8.5 18.5t4.5 17.5q4 8 10.5 14.5t12.5 8.5q6 3 9 -4q2 -5 10 -13l18 -18t20.5 -19l17.5 -15q10 -7 14 4q8 29 15.5 50l12.5 35q13 28 27 28h1
z" />
    <glyph glyph-name="plus" unicode="+" horiz-adv-x="550" 
d="M307 423q10 0 10 -50q0 -15 -1 -35t-1.5 -39.5t-1.5 -35t-1 -20.5q0 -8 1.5 -10t8.5 -2q26 0 53 -0.5t56 -0.5h45t26 2q9 2 1 -14q-14 -29 -43 -39.5t-64 -10.5h-81q-6 0 -7 -3t-1 -9l-8 -127q-1 -16 -10 -28t-20.5 -20t-22.5 -12t-14 -4q-7 0 -6 11q1 8 3 32.5t3.5 53
t2.5 55t1 40.5q0 12 -8 12q-11 1 -35.5 3t-51.5 3t-51 1t-35 -2q-11 -3 -11.5 1t4.5 13q15 24 40.5 37t53.5 13q8 0 21 -0.5l26.5 -1t24.5 -1t15 -0.5q6 -1 8 1.5t3 12.5q2 32 2.5 52.5t-0.5 33.5t-2.5 20l-2.5 12q-2 6 0.5 12t15.5 15q24 17 36.5 23t16.5 6h1z" />
    <glyph glyph-name="comma" unicode="," horiz-adv-x="214" 
d="M139 156q23 0 37 -26t14 -60q0 -39 -17 -72t-43.5 -60t-59.5 -47.5t-66 -32.5q-7 -2 -13 -2t-1 9q3 7 8.5 17.5t11.5 14.5q44 32 57.5 65t13.5 67q0 20 -8.5 33t-17.5 18q-6 3 -6 9q0 5 8 16t25 24q20 16 34 21.5t22 5.5h1z" />
    <glyph glyph-name="hyphen" unicode="-" horiz-adv-x="331" 
d="M289 242q-13 -29 -31 -44.5t-52 -24.5q-11 -3 -31.5 -7.5l-43 -9l-43.5 -8.5t-33 -5t-15 1t2 15q4 10 11.5 22.5t15 23t15 17.5t11.5 7q15 1 40 4.5l52 7.5t54 9t47 11q5 2 4.5 -4.5t-3.5 -14.5z" />
    <glyph glyph-name="period" unicode="." horiz-adv-x="214" 
d="M138 153q3 0 7.5 -6.5t8.5 -16.5q2 -6 7 -14.5l10.5 -17.5t11 -16.5l8.5 -11.5q5 -6 2 -12t-12 -16q-5 -6 -16.5 -15.5t-24.5 -19t-25 -16.5t-18 -7t-15 9.5t-17.5 21.5t-15.5 24l-10 17q-5 10 0 23t31 36q23 20 42.5 29t24.5 9h1z" />
    <glyph glyph-name="slash" unicode="/" horiz-adv-x="436" 
d="M445 535q-3 -11 -17.5 -40.5t-37.5 -68.5l-39.5 -67l-49.5 -80l-55.5 -86l-56 -84l-52.5 -73.5t-44 -54.5q-8 -8 -21 -16.5t-26.5 -15t-25.5 -11t-16 -4.5q-8 0 -2 11.5t17 24.5q14 18 44 60l67.5 96.5l77.5 115.5l73.5 115.5t55.5 97t24 60.5q1 10 27 21q16 7 29 10.5
t19 4.5q10 3 11.5 -0.5t-2.5 -15.5z" />
    <glyph glyph-name="zero" unicode="0" horiz-adv-x="466" 
d="M313 506q56 0 91.5 -47t35.5 -140q0 -70 -14 -115.5t-28 -71.5q-18 -35 -50.5 -63t-64.5 -47q-21 -12 -50 -21t-55 -9q-40 0 -68.5 14t-47 39t-27 57.5t-8.5 70.5q0 55 12 103.5t37 83.5q23 34 47 52.5t43 26.5q17 8 25 5.5t7 -6.5q0 -3 -7.5 -13.5t-14.5 -24.5
q-11 -24 -19.5 -65.5t-8.5 -116.5q0 -59 11.5 -93t27 -51t31 -21.5t24.5 -4.5q14 0 25 6.5t21 17.5q12 14 22.5 61t10.5 132q0 27 -4.5 58t-14.5 57.5t-26 44t-39 17.5q-8 0 -18 -2q-7 -2 -8 3q0 5 6.5 16t26.5 24q33 23 68 23h1z" />
    <glyph glyph-name="one" unicode="1" horiz-adv-x="466" 
d="M217 -13q-16 0 -22.5 20.5t-6.5 49.5q0 35 4 95l9 131q4 48 4 75t-3 38q-3 10 -11 8q-18 -7 -35.5 -11.5t-38.5 -7.5q-14 -2 -29.5 4.5t-17.5 11.5q-4 6 40 20q10 3 33.5 11.5t50 19.5l51.5 22t38 19q17 10 31 17t20 7t5 -6q0 -7 -5 -19q-2 -5 -3 -14.5t-1 -17.5
q0 -10 -1.5 -32.5l-3.5 -53l-4.5 -68t-4.5 -78.5q-3 -48 -4 -88t-1 -54q0 -18 9 -26.5t18 -14.5q6 -4 5 -7q-2 -5 -7.5 -11t-17.5 -12q-10 -5 -23.5 -9.5l-27.5 -9t-27 -7t-22 -2.5h-1z" />
    <glyph glyph-name="two" unicode="2" horiz-adv-x="466" 
d="M260 506q37 0 63.5 -11.5t43.5 -29t25 -39.5t8 -43q0 -20 -4.5 -39.5t-18 -41t-37.5 -46.5t-62 -56l-51.5 -41l-40.5 -32q-9 -7 -9 -12t8 -6t20.5 -4t26.5 -7q26 -8 50 -14.5t56 -6.5q35 0 59.5 14t41.5 30q5 5 9.5 8t6.5 3q5 0 4 -12t-12 -26q-14 -20 -34 -39t-42.5 -34
t-45 -24t-42.5 -9q-35 0 -76 10.5t-73 20.5q-11 4 -22.5 6t-19.5 2q-10 0 -19.5 -4t-17.5 -9q-3 -2 -9 -5l-12 -6l-11.5 -5.5t-8.5 -2.5q-5 0 -1 11t14 23q9 10 22.5 23.5l28.5 27.5l29.5 27.5t25.5 22.5l49 45.5t45 49t32.5 54t12.5 61.5q0 35 -22 57t-58 22
q-15 0 -30.5 -5t-30 -13t-27.5 -17t-23 -18q-7 -8 -15.5 -14.5t-13.5 -6.5t-3 9t5 17q4 8 15 23t28 33q8 9 24 22t37 26t46.5 22t54.5 9h1z" />
    <glyph glyph-name="three" unicode="3" horiz-adv-x="466" 
d="M282 506q20 0 40.5 -6.5t36.5 -19t26 -30t10 -38.5q0 -17 -9 -32t-22.5 -28t-28.5 -24t-27 -19q-7 -4 -11.5 -8t-2.5 -9q0 -5 21 -14q19 -8 38.5 -17.5t35 -23t25.5 -32t10 -42.5q0 -27 -10 -49.5t-27.5 -41.5t-40.5 -35.5t-48 -30.5q-50 -27 -93 -39.5t-82 -12.5
q-15 0 -32 3t-32 10t-25 17t-10 25q0 7 7.5 16.5t17.5 18t20.5 14.5t17.5 6q5 0 10 -9q14 -24 41 -36t55 -12q46 0 74.5 27t27.5 78q0 32 -16 50t-33 28q-14 9 -30.5 12t-29.5 3q-19 0 -34.5 -2.5t-26.5 -4.5q-8 -1 -8 4q0 3 4.5 10t10.5 15t12.5 14.5t10.5 8.5l42 22
t35 24.5t23.5 30.5t8.5 38q0 13 -4 27.5t-13 25.5t-22.5 18.5t-32.5 7.5q-20 0 -34 -12.5t-14 -31.5q0 -3 -10.5 -11.5t-24.5 -16.5q-13 -7 -30 -13t-21 -6q-8 0 -4.5 15.5t24.5 36.5q16 17 38.5 35t49.5 32.5t56 24t59 9.5h1z" />
    <glyph glyph-name="four" unicode="4" horiz-adv-x="466" 
d="M361 346q12 0 15 -19t2 -42q0 -16 -1.5 -42t-5.5 -57q-1 -12 6 -13q5 -1 10 -1h15q12 0 30 4t30 10q11 6 11 -2q0 -3 -2 -10t-7 -14q-14 -16 -38.5 -27.5t-53.5 -16.5q-5 -1 -8.5 -2.5t-4.5 -7.5q-2 -11 -3.5 -32.5t-2.5 -38.5q0 -13 3.5 -24.5t11.5 -15.5q4 -3 4.5 -5.5
t-4.5 -6.5q-3 -3 -17 -9t-31 -12.5t-33.5 -11.5t-25.5 -5q-16 0 -21.5 16t-3.5 48q2 29 4 51t4 39q2 10 -0.5 12.5t-10.5 3.5l-59.5 5.5t-77.5 3.5q-49 0 -70 -12q-12 -7 -19 -7q-5 0 -5 8t6.5 20.5t15.5 25.5q7 11 30.5 38.5l61.5 73.5q45 56 73 95t45 71q9 17 15.5 34
t7.5 26q1 4 12.5 12.5t21.5 14.5q11 8 25.5 17t19.5 9t5 -11q0 -10 -7.5 -27t-19 -37.5t-26 -42.5t-28.5 -41l-37 -49.5l-44 -56.5l-40 -50.5t-25 -32.5q-11 -16 1 -16h28q22 -1 50 -3t48 -3q13 0 15 11t2.5 22.5t1.5 27.5q2 29 -11 48q-2 4 -1 5t5 6q5 4 20.5 12t33 15.5
t33 13t20.5 5.5h1z" />
    <glyph glyph-name="five" unicode="5" horiz-adv-x="466" 
d="M420 160q0 -30 -14 -55.5t-35.5 -47t-48.5 -39t-54 -30.5q-33 -15 -68 -24.5t-71 -9.5q-24 0 -44.5 6t-30.5 14q-16 16 -16 33q0 6 7 16.5t16 20t17.5 17t12.5 7.5q3 0 7 -7q8 -20 37.5 -33.5t63.5 -13.5q26 0 48 7t36 19q12 11 18.5 24t6.5 30q0 23 -18 41t-64 32
q-24 7 -47.5 12t-36.5 9q-16 5 -29 11.5t-22 16.5t-13 23.5t-2 33.5q2 16 6 39t9 46.5l10 45.5l8 36q4 17 8 31.5t8 22.5q5 12 11 12q7 0 11 -11q5 -11 37 -16t83 -5q65 0 94.5 13t38.5 25q12 16 16 16q7 0 8.5 -10.5t-1.5 -24.5q-5 -28 -22.5 -50.5t-40.5 -37.5
q-23 -16 -61 -23.5t-76 -7.5h-35t-31 1q-8 0 -11.5 -3t-5.5 -7q-2 -3 -3 -12t-1 -14q0 -18 23.5 -31t58.5 -21q21 -5 48 -10t44 -10q61 -15 85.5 -41.5t24.5 -64.5v-1z" />
    <glyph glyph-name="six" unicode="6" horiz-adv-x="466" 
d="M371 541q11 0 22.5 -2t21 -6t15.5 -10t6 -14q0 -4 -6.5 -10.5t-14.5 -13t-16.5 -12t-12.5 -8.5q-2 -2 -4.5 -1t-4.5 3q-9 9 -26 16t-35 7q-20 0 -39.5 -7.5t-39.5 -27.5q-14 -13 -28 -32t-26 -47.5t-19.5 -67t-7.5 -89.5q0 -44 10 -77t25.5 -54.5t34.5 -32.5t38 -11
q38 0 54 27.5t15 64.5q0 26 -7.5 45.5t-19.5 33t-26 20.5t-26 7q-9 0 -21 -3.5t-21 -7.5q-5 -2 -12.5 -4.5t-9.5 -2.5q-5 0 -7 1.5t2 7.5q2 8 16 23t37 30q27 17 51 27.5t41 10.5q31 0 52.5 -10.5t35.5 -28t21 -39.5t7 -46q0 -32 -13 -60t-32 -51t-40.5 -40.5t-38.5 -26.5
q-26 -15 -58.5 -24.5t-63.5 -9.5q-44 0 -76 14.5t-53 40t-31.5 61t-10.5 76.5q-1 64 16 112t37 81q13 22 32 43.5t42 40.5t48 34t51 25q33 14 60.5 19.5t54.5 5.5h1z" />
    <glyph glyph-name="seven" unicode="7" horiz-adv-x="466" 
d="M373 472q21 0 36.5 9t28.5 26q15 20 23 20q4 0 5.5 -5.5t1.5 -11.5q0 -4 -3 -12.5t-7.5 -18.5l-9 -20t-8.5 -17l-44.5 -79.5l-59.5 -106l-58 -107t-40 -81.5l-11.5 -27.5t-4.5 -21.5q0 -14 12 -26q5 -5 -4 -11q-3 -3 -14 -9t-24.5 -12t-26.5 -10.5t-20 -4.5q-5 0 -12 5.5
t-7 20.5q2 18 14 47.5t32 61.5l85 141.5l81 135.5q11 17 -5 19q-9 1 -31 3t-47 5q-20 2 -44.5 4t-51.5 2q-39 0 -61.5 -15t-45.5 -44l-7.5 -9t-6.5 -4q-5 0 -6.5 13t6.5 33q7 19 19.5 42.5t29 44t37.5 34.5t46 14q23 0 49.5 -4t55.5 -12q26 -6 51.5 -9t45.5 -3h1z" />
    <glyph glyph-name="eight" unicode="8" horiz-adv-x="466" 
d="M248 41q35 0 56 18.5t21 45.5q0 12 -7.5 26.5t-29.5 28.5q-20 14 -45.5 25.5t-42.5 18.5q-11 5 -16 3.5t-13 -8.5q-15 -13 -22.5 -28.5t-7.5 -37.5q0 -21 10 -38t25 -29t34 -18.5t37 -6.5h1zM332 511q21 0 38 -7.5t28.5 -20t18 -28.5t6.5 -32q0 -32 -15.5 -54.5
t-32.5 -36.5l-31.5 -24.5t-27.5 -20.5q-11 -8 1 -14q11 -7 29 -15.5t31 -16.5q35 -22 47.5 -41t12.5 -47q0 -29 -12.5 -50.5t-30.5 -37t-37.5 -26l-32.5 -17.5t-30 -13t-34.5 -10.5t-34 -7.5t-28.5 -3q-28 0 -57.5 5.5t-53.5 19t-39.5 35t-15.5 54.5q0 23 7.5 38.5t22 28
t34 25l43.5 28.5q7 5 5.5 9t-6.5 8q-9 5 -20 13t-21 19t-16.5 25.5t-6.5 32.5q0 38 25 69t63 52q14 8 24.5 11.5t14.5 3.5t8 -1.5t4 -5.5t-5.5 -9.5l-10.5 -10.5q-6 -8 -13.5 -20.5t-7.5 -30.5q0 -26 22.5 -46.5t54.5 -37.5q8 -3 14.5 -4t11.5 3q20 14 34 38t14 52
q0 27 -21 45.5t-47 18.5q-8 0 -13.5 -1l-10.5 -2q-9 -2 -9 2q0 7 10.5 19.5t31.5 21.5q14 7 30 11t34 4h1z" />
    <glyph glyph-name="nine" unicode="9" horiz-adv-x="466" 
d="M271 506q37 0 68 -12.5t54 -38t36 -64t13 -89.5q0 -46 -8 -82.5t-20 -65t-26.5 -50t-27.5 -36.5q-21 -23 -50 -45t-62 -38.5t-67.5 -26.5t-65.5 -10q-29 0 -53.5 20t-29.5 52q-1 5 1 11t9 1q13 -11 45.5 -21t74.5 -10q27 0 54 11.5t49 43.5q20 29 34.5 81.5t14.5 128.5
q0 35 -7 69t-20 61t-32 43.5t-43 16.5q-25 0 -43 -18q-9 -9 -16 -27.5t-7 -44.5q0 -24 8 -43t19.5 -32.5t25 -20.5t25.5 -7q8 0 20.5 1.5t22.5 4.5q6 2 7 -2q0 -12 -14 -31q-9 -12 -21.5 -22t-27 -18t-30 -12.5t-29.5 -4.5q-23 0 -43.5 7.5t-36 23t-25 39t-9.5 54.5
q0 49 29.5 94.5t87.5 77.5q21 11 51 21t64 10h1z" />
    <glyph glyph-name="colon" unicode=":" horiz-adv-x="214" 
d="M139 153q2 0 6.5 -6.5t9.5 -16.5q3 -6 7.5 -14l9.5 -16.5t10.5 -16.5t9.5 -13q5 -6 1.5 -13t-11.5 -17q-6 -6 -17.5 -15.5t-24.5 -18.5t-24.5 -15.5t-16.5 -6.5q-8 0 -17 8.5t-18 20t-16 23.5t-10 20q-5 11 0 25t32 36q23 19 41.5 27.5t26.5 8.5h1zM151 388q5 0 15 -18
l18 -32.5t18 -30.5q6 -8 4.5 -14t-12.5 -17q-5 -5 -17 -14l-25 -18.5t-25 -16.5t-16 -7q-8 0 -17.5 9.5t-18 22.5t-15.5 25t-9 17q-5 11 0.5 25t33.5 37q23 18 41 25t24 7h1z" />
    <glyph glyph-name="semicolon" unicode=";" horiz-adv-x="204" 
d="M127 156q23 0 38 -26.5t15 -60.5q0 -39 -17.5 -72t-44.5 -59.5t-60 -46.5t-63 -33q-7 -3 -14 -4t-2 9q3 8 8.5 19t13.5 16q41 30 56 62.5t15 66.5q0 20 -9.5 35.5t-17.5 20.5q-6 3 -6 7q0 14 31 38q20 15 33.5 21.5t22.5 6.5h1zM147 388q6 0 14 -19l7.5 -15t10 -18.5
t11 -18l8.5 -13.5q9 -11 -9 -26l-16.5 -13.5t-25 -19.5t-25.5 -17.5t-16 -7.5q-8 0 -17 9.5t-17.5 22t-15 25t-9.5 17.5q-5 10 0.5 24t33.5 37q23 18 40 25.5t25 7.5h1z" />
    <glyph glyph-name="less" unicode="&#x3c;" horiz-adv-x="440" 
d="M323 -10q-8 0 -14 1.5t-15 4.5q-25 11 -59 30t-68.5 41t-64 44.5t-44.5 40.5q-12 16 -2 32q8 13 31.5 32t55 40t67.5 42l69.5 39t62 31.5t44.5 18.5q9 3 6 -9q-2 -11 -11 -26.5t-23 -21.5q-44 -20 -78.5 -40t-59.5 -37t-39.5 -29.5t-18.5 -16.5q-6 -6 -5.5 -12.5
t10.5 -16.5q20 -19 47 -38.5t56 -36.5t58.5 -31t55.5 -22q8 -2 8.5 -5t-7.5 -13q-4 -5 -11.5 -12t-16 -14t-17.5 -11.5t-16 -4.5h-1z" />
    <glyph glyph-name="equal" unicode="=" horiz-adv-x="555" 
d="M170 144q31 0 65 -1t74 -2q20 0 44.5 -1t48.5 -1h45.5t35.5 1q6 0 6.5 -3.5t-8.5 -15.5q-11 -16 -26 -26t-34.5 -15t-44.5 -6.5t-58 -1.5l-148 2q-38 1 -71 0t-47 -3q-3 -1 -3 4.5t10 18.5q23 30 47.5 40t62.5 10h1zM217 313q30 0 68.5 -1l77.5 -2t74 -2.5l59 -2.5
q9 0 -4 -20q-20 -29 -55 -35.5t-86 -4.5q-39 2 -77 2h-72q-34 1 -67.5 0t-53.5 -5q-11 -2 4 20q12 16 24 26t27 15.5t34.5 7.5t45.5 2h1z" />
    <glyph glyph-name="greater" unicode="&#x3e;" horiz-adv-x="440" 
d="M61 -14q-7 0 -8.5 1t1.5 8q8 17 18.5 29t19.5 17l71 38.5t46.5 27t30.5 20t24 18.5q14 11 16.5 18.5t-5.5 18.5q-8 9 -55.5 44t-145.5 99q-8 5 -8 9.5t11 16.5q8 8 17 15.5t18.5 12.5t19.5 5.5t20 -5.5l59 -38.5l65.5 -44.5t61.5 -46t46 -42q17 -20 2 -37
q-13 -15 -47 -38t-75.5 -48t-82.5 -46.5t-68 -33.5q-20 -8 -32.5 -13.5t-18.5 -5.5h-1z" />
    <glyph glyph-name="question" unicode="?" horiz-adv-x="368" 
d="M146 -13q-9 0 -19 7.5t-18 18.5t-13.5 23.5t-5.5 22.5q0 13 11 27t27 26t33.5 19.5t30.5 7.5q3 0 6.5 -6.5t7.5 -17.5q5 -15 14.5 -31.5t16.5 -24.5q5 -5 3 -12t-17 -21q-6 -5 -17 -12t-22.5 -13t-22 -10t-14.5 -4h-1zM231 526q19 0 37.5 -5.5t33.5 -16.5t24.5 -28
t9.5 -39q0 -20 -9 -37t-22.5 -32.5t-29.5 -29l-29 -25.5q-43 -39 -42 -61q0 -22 18 -28q6 -2 12 -2.5t13 -0.5q8 0 0.5 -11.5t-22.5 -19.5q-13 -8 -32 -14t-40 -6q-24 0 -39.5 16.5t-16.5 33.5q0 15 8 31t20 30l27 32.5l25 30.5t16.5 27t5.5 31q0 13 -14 28t-35 15
q-28 0 -55.5 -12t-49.5 -29q-8 -5 -7 5.5t8 19.5q11 17 31 35t50 35q23 14 50.5 20.5t52.5 6.5h1z" />
    <glyph glyph-name="at" unicode="@" horiz-adv-x="692" 
d="M430 480q100 0 160 -52.5t60 -150.5q0 -39 -10 -72.5t-26 -60.5t-35 -47t-38 -32q-26 -17 -53 -26.5t-58 -9.5q-20 0 -30 12.5t-13 30t-1 36.5t4 31q2 6 -1 7t-6 -3q-8 -11 -20.5 -23.5t-26.5 -25t-28 -23.5t-26 -18q-14 -8 -28 -14.5t-25 -6.5q-17 0 -29 21t-12 50
q0 38 11.5 71t31 60t46 48t55.5 36q27 14 47.5 19t36.5 5q10 0 13.5 -3t-3.5 -11q-8 -10 -17 -19t-16 -13q-5 -2 -9 -2.5t-8 -0.5q-11 1 -25.5 -2.5t-22.5 -8.5q-42 -35 -42 -132q0 -17 4.5 -26.5t11.5 -9.5q11 0 24 10.5t26.5 26.5t25 34.5t19.5 34.5q5 11 10.5 30t10.5 32
q11 29 37 44t53 18q16 3 6 -15q-9 -18 -16.5 -43t-13 -52.5t-9 -54t-3.5 -46.5q0 -26 5.5 -35.5t17.5 -9.5q16 0 33.5 11t32.5 32t24.5 51.5t9.5 68.5q0 43 -16 77t-43 57.5t-63 35.5t-77 12q-60 0 -104 -19t-79 -51q-44 -38 -67.5 -94t-23.5 -118q0 -56 17 -95t44.5 -64.5
t62 -37t70.5 -11.5q54 0 95.5 15t61.5 27q13 7 11 -4t-14 -22q-35 -36 -86.5 -55.5t-102.5 -19.5t-94 14t-74.5 43t-49 72.5t-17.5 102.5q0 61 18.5 112.5t51 93t76.5 73t94 53.5q44 19 80.5 25.5t62.5 6.5h1z" />
    <glyph glyph-name="A" unicode="A" horiz-adv-x="609" 
d="M289 224q7 0 9 1.5t-1 9.5q-11 35 -19 65.5t-11 40.5q-5 18 -15 2q-7 -11 -15.5 -26.5l-18 -32l-18.5 -33l-16 -29.5q-4 -5 -2.5 -7.5t9.5 -0.5q16 3 45.5 6.5t51.5 3.5h1zM472 -19q-16 0 -30 2.5t-27.5 10.5t-26.5 22.5t-25 38.5q-11 22 -22 50l-20 53q-3 8 -7 10t-15 2
q-45 0 -82.5 -3t-56.5 -9q-8 -3 -13.5 -7t-10.5 -12q-7 -11 -12.5 -25.5t-9 -30t-4.5 -30t1 -26.5q0 -3 -3.5 -7t-14.5 -10q-18 -11 -37.5 -18t-26.5 -7q-8 0 -12 5.5t-5 19.5q0 11 8.5 33t23.5 50q14 26 40.5 69.5l59.5 95.5l29.5 46l30 50t25.5 47.5t17 38.5
q5 14 10.5 23.5t15.5 17.5l24.5 19t26.5 24q7 8 14.5 11.5t12.5 3.5q4 0 4 -14q0 -8 -0.5 -21t1.5 -23q2 -23 9.5 -56t18 -67.5t21.5 -67t21 -53.5q3 -5 6 -7t11 -2q22 0 50 -3t45 -6q15 -2 14.5 -6.5t-8.5 -12.5q-13 -11 -35.5 -18.5t-40.5 -9.5q-11 -1 -13.5 -1.5
t2.5 -11.5q4 -11 9.5 -23t18.5 -33q20 -35 40 -47.5t39 -12.5q8 0 19.5 0.5t19.5 2.5q12 3 12 -4q0 -4 -3.5 -10t-12.5 -12q-8 -5 -22.5 -11.5t-32 -12.5t-36.5 -10.5t-34 -4.5h-1z" />
    <glyph glyph-name="B" unicode="B" horiz-adv-x="544" 
d="M257 472q-7 0 -12 -0.5t-8 -0.5q-9 -2 -8 -13q1 -13 0 -43.5t-2.5 -66.5t-4 -71.5t-4.5 -56.5q-5 -57 -3.5 -88.5t13.5 -48.5q9 -14 28.5 -23.5t47.5 -9.5q13 0 28 3.5t24 9.5q13 8 22.5 23t9.5 39q0 32 -26.5 56.5t-72.5 40.5q-11 5 -22 16.5t-16 20.5q-7 9 -5 13.5
t12 9.5q9 6 19.5 11.5t18.5 10.5q26 15 40 34t14 48q0 39 -26.5 62.5t-65.5 23.5h-1zM336 526q22 0 47 -3.5t45 -14t33.5 -28.5t13.5 -46q0 -20 -7 -35.5t-19 -27.5t-27 -22l-30 -20q-5 -4 -8 -8.5t0 -9.5q5 -6 15.5 -11.5l26.5 -13.5q42 -21 64 -47t22 -63q0 -27 -12 -48.5
t-30.5 -39.5t-41 -31.5t-43.5 -23.5q-42 -20 -90.5 -32t-96.5 -12q-35 0 -64 19t-39 55q-4 16 -3.5 46t4.5 78q3 33 6 71t4.5 72t0 59.5t-6.5 33.5q-3 5 -5 6t-7 -1q-19 -8 -35.5 -17.5t-22.5 -14.5q-4 -2 -7.5 -3.5t-5.5 0.5q-1 3 1 10t4 12q7 15 15.5 24t13.5 12
q5 5 19.5 11.5l25.5 11.5q6 2 9.5 7t6.5 7q12 8 27 16t28.5 14t23.5 9.5t12 3.5q7 0 10.5 -4.5l6.5 -8.5q1 -3 14 -1q21 4 47 6.5t54 2.5h1z" />
    <glyph glyph-name="C" unicode="C" horiz-adv-x="501" 
d="M334 62q30 0 55.5 6t46 15t36.5 19t26 18q8 6 6 -6q-2 -11 -13 -23.5t-25 -23.5t-42 -27t-72 -32q-29 -11 -61 -16.5t-67 -5.5q-45 0 -83.5 15t-60.5 40q-20 23 -33.5 55.5t-13.5 83.5q0 91 49.5 164t146.5 127q44 25 87.5 40t79.5 15q24 0 38 -6t21 -14q6 -7 5 -16.5
t-10 -18.5q-10 -11 -22.5 -21t-21.5 -16q-9 -5 -13 -5.5t-6 1.5q-13 14 -38 21.5t-45 7.5q-25 0 -46 -10.5t-36 -27.5q-25 -29 -39 -72.5t-14 -96.5q0 -40 8.5 -74.5t28 -60t51 -40.5t76.5 -15h1z" />
    <glyph glyph-name="D" unicode="D" horiz-adv-x="631" 
d="M278 465q-20 0 -33 -3q-9 -1 -9 -11q0 -11 -0.5 -32.5t-2 -48.5t-4 -57.5t-4.5 -59.5q-6 -71 -3 -114t24 -61q13 -11 33.5 -18t42.5 -7q40 0 69 17q9 5 22.5 16.5t25.5 34t21 58.5t9 90q0 43 -14 79.5t-39.5 62t-60.5 40t-76 14.5h-1zM345 521q66 0 114 -16.5t78 -43.5
q29 -26 45.5 -66.5t16.5 -91.5q0 -44 -10.5 -80t-29.5 -65.5t-45.5 -53t-57.5 -41.5q-54 -32 -116.5 -53.5t-126.5 -21.5q-35 0 -62 15t-39 37q-14 24 -15.5 64t3.5 100q3 38 5.5 74.5t3.5 66t-0.5 50t-7.5 27.5q-3 4 -5 5t-10 -1t-18 -6.5l-20.5 -9.5t-19 -9.5t-12.5 -7.5
q-10 -6 -8 4q3 8 11 19t13 15q8 7 19 14.5t30 17.5q8 5 11 7.5t6 6.5q5 5 9.5 7.5t12.5 7.5q15 8 29.5 15t27 11.5t21.5 7t12 2.5q5 0 15 -15q2 -6 12 -3q18 4 46 7.5t61 3.5h1z" />
    <glyph glyph-name="E" unicode="E" horiz-adv-x="476" 
d="M235 -9q-37 0 -63.5 4t-38.5 8q-6 2 -14.5 -1t-13.5 -5q-5 -3 -11.5 1.5t-11.5 18.5q-4 12 -3.5 30.5t0.5 37.5q0 16 1 36t2.5 39.5t2.5 35t1 23.5q2 14 -5 19q-8 6 -10 8.5t0 6.5q10 19 16 28.5t7 16.5q2 11 3 31.5t0 47.5q0 33 -6.5 55t-15.5 34q-3 4 -3.5 6t6.5 7
q7 6 23 14t33 15t32.5 12t21.5 5q7 0 13 -8q3 -6 11 -2q4 4 26 4q5 0 17.5 -1t28 -1.5t33.5 -1.5t35 -1q18 0 39 1t29 1q9 0 0 -13q-10 -14 -25.5 -23.5t-33.5 -14.5t-37.5 -7t-37.5 -2h-35.5t-27.5 1q-6 1 -7 -3.5t0 -12.5t1 -23.5v-34.5t-0.5 -39.5t-1.5 -37.5
q-1 -8 1 -11t10 -4q26 -2 51.5 -2.5t51.5 -0.5q39 0 67 3t39 5q3 1 3.5 -3t-11.5 -18q-14 -16 -33 -26t-40.5 -16t-44 -8t-42.5 -2q-17 0 -29.5 0.5t-20.5 1.5q-7 1 -8.5 -1.5t-2.5 -8.5q0 -10 -1.5 -37.5t-2.5 -56.5q-1 -27 5.5 -38.5t20.5 -16.5q13 -4 35.5 -6.5
t56.5 -2.5q36 0 77 4t72 21q3 2 3.5 -4t-5.5 -14q-18 -24 -44.5 -38t-57.5 -22t-64.5 -10.5t-64.5 -2.5h-1z" />
    <glyph glyph-name="F" unicode="F" horiz-adv-x="451" 
d="M193 521q24 0 46 -1.5t45 -3.5q26 -2 52 -3.5t45 -1.5q15 -1 34.5 0.5t30.5 3.5q7 2 6.5 -3t-9.5 -14q-22 -23 -59 -32t-72 -9h-39t-34 1q-8 1 -7 -9q1 -13 0.5 -34l-1 -43.5t-2 -43.5l-2.5 -34q0 -7 1.5 -9.5t8.5 -3.5q38 -5 71 -5.5t57 -0.5q9 0 20 0.5l21.5 1
t19.5 1.5t14 2q8 2 8 -3t-6 -13q-24 -29 -61 -39t-78 -10q-17 0 -37.5 0.5t-33.5 1.5q-11 1 -11 -10q-1 -6 -2 -19.5t-1.5 -31.5t-1.5 -38l-2 -39q-1 -18 0.5 -28.5t8.5 -15.5q5 -4 5 -7t-9 -8t-23.5 -11.5t-30 -12t-29.5 -9t-21 -3.5q-12 0 -16.5 13.5t-4.5 40.5q0 9 1 29
t2.5 44.5t3 52t2.5 51.5q0 9 -7 9q-3 1 -12 1t-14 1t-6 3t4 10q6 11 15.5 20.5t15.5 13.5q7 6 8 11q3 19 4 43t0 48t-3 45t-5 35t-14 14q-8 0 -21 -0.5t-23 -3.5q-4 -2 -4.5 2.5t9.5 12.5q29 23 67.5 32t74.5 9h1z" />
    <glyph glyph-name="G" unicode="G" horiz-adv-x="620" 
d="M164 231q0 -44 12.5 -76t32 -52.5t42.5 -30t44 -9.5q23 0 44 6t38 20q18 14 21 48q2 24 1.5 39.5t-3.5 24.5q-2 7 -7 13t-15 6q-18 0 -34.5 -4t-31 -10t-26 -13t-17.5 -13q-4 -3 -5 5.5t8 19.5q17 21 40.5 36.5t50.5 25t54.5 14.5t53.5 5q29 0 50.5 -2l41.5 -4
q19 -2 40.5 -3.5t32.5 -2.5q3 -1 1.5 -6t-10.5 -13q-17 -17 -41.5 -26.5t-46.5 -9.5q-7 0 -8.5 -3t-2.5 -11q-5 -48 -11.5 -93t-11.5 -87q-2 -20 3 -28t9 -10q3 -3 3.5 -6t-10.5 -11q-10 -8 -25 -17t-30 -16.5t-27 -12.5t-15 -5q-13 0 -19 10t-5 36q2 18 3 39t3 40
q2 16 -12 7q-17 -12 -38 -23.5t-43 -20.5t-44.5 -15t-43.5 -6q-40 0 -75 13.5t-61 43.5q-25 30 -33.5 60.5t-8.5 68.5q0 60 22 108t53.5 85.5t67.5 64t64 42.5q35 20 80.5 37t91.5 17q30 0 53.5 -9.5t23.5 -31.5q0 -8 -8.5 -19t-20 -21t-22 -17t-14.5 -7q-5 0 -8 4
q-8 12 -30.5 23t-54.5 11q-45 0 -77 -19t-55 -54q-34 -54 -34 -154v-1z" />
    <glyph glyph-name="H" unicode="H" horiz-adv-x="657" 
d="M473 -14q-22 0 -42 20t-22 73v30t1 35t1.5 36.5t0.5 33.5q1 8 -1 10t-10 3q-26 2 -57.5 3t-60.5 1q-25 0 -39.5 -0.5t-23.5 -2.5q-8 -2 -10 -5t-4 -13q-2 -9 -3 -27t-2.5 -37.5t-2 -37t-0.5 -26.5q-1 -17 2 -26.5t9 -14.5q5 -5 5 -7t-10 -9q-4 -3 -18.5 -10.5t-32 -14.5
t-33.5 -12.5t-23 -5.5q-8 0 -12 5t-6 13.5t-2.5 18t-0.5 18.5q1 13 2 34t2.5 45t2.5 47.5t3 41.5q1 7 -5.5 7.5t-12.5 -1.5q-2 -1 -3 3t7 14q8 14 14 20.5t7 15.5q1 12 2.5 28t2 33.5t1.5 34.5t1 30q1 32 -7 50t-18 23q-4 3 -3.5 7t12.5 12q12 7 29 16t33.5 16t29.5 12t18 5
q11 0 17.5 -10t9.5 -23.5t3.5 -29t0.5 -25.5q-1 -21 -2.5 -61t-5.5 -85q-1 -12 9 -11q20 2 37 3.5t40 1.5t49.5 -0.5t51.5 -2.5q8 -1 10.5 0.5t2.5 9.5q0 12 1 29.5t2.5 36l3 35.5l2.5 28q2 20 8.5 35t14.5 23q9 10 25 18t34 14.5t36.5 10.5t32.5 6q11 2 12 -2.5t-4 -9.5
q-8 -8 -19.5 -25.5t-18.5 -60.5q-2 -13 -4.5 -36t-4 -46.5t-2.5 -42t-1 -22.5q0 -5 1.5 -7.5t9.5 -3.5q25 -2 46.5 -2t31.5 2q3 0 3.5 -3t-7.5 -12q-16 -17 -36.5 -26t-43.5 -13q-7 -1 -8.5 -3t-1.5 -9q0 -39 1 -67.5t7 -48t17.5 -29t32.5 -9.5q13 0 32 5.5t29 10.5
q5 2 4.5 -6.5t-9.5 -17.5q-13 -12 -34 -23.5t-45 -20.5t-48 -14.5t-43 -5.5h-1z" />
    <glyph glyph-name="I" unicode="I" horiz-adv-x="292" 
d="M183 531q11 0 18 -8.5t10.5 -22.5t4.5 -31.5t1 -35.5q0 -44 -3 -92t-5 -86q-2 -19 -3 -43.5t-2.5 -49t-2 -47t-0.5 -37.5q1 -17 4 -24.5t8 -11.5q8 -6 -2 -15q-6 -5 -22.5 -12.5t-35.5 -15t-36 -12.5t-24 -5q-6 0 -10 6.5t-5.5 16t-2 21t-0.5 22.5q0 27 2.5 72.5
t5.5 91.5q4 53 6 100t1 82q0 30 -6 47.5t-15 25.5q-4 2 -4 5t7 8q7 6 23.5 14.5t34.5 16.5t33 14t19 6h1z" />
    <glyph glyph-name="J" unicode="J" horiz-adv-x="299" 
d="M-46 -178q-8 0 -17.5 5.5t-18.5 14.5t-16 22t-8 28q-2 11 1 15.5t8 1.5q7 -5 18.5 -9.5t24.5 -8t26 -5.5t24 -2q33 0 47 13t24 43q8 24 13.5 64.5t10.5 111.5q2 28 3 60.5l2 65.5t1 63.5v54.5q1 48 -7 75.5t-13 33.5q-3 3 -1 6.5t13 10.5q10 7 27.5 14.5t36 14.5
t34.5 11.5t24 4.5q6 0 9.5 -17t5 -43t2 -57.5t0.5 -60.5q-2 -85 -6.5 -146.5t-10.5 -98.5q-8 -46 -23.5 -84t-36.5 -68t-45.5 -53t-49.5 -40q-40 -26 -62 -33.5t-39 -7.5h-1z" />
    <glyph glyph-name="K" unicode="K" horiz-adv-x="594" 
d="M551 46q13 0 27 3.5t25 7.5q4 1 1.5 -9.5t-9.5 -17.5q-12 -10 -29.5 -19t-37 -16t-39 -11t-35.5 -4q-33 0 -66 21.5t-61 65.5l-47 74t-28 47q-23 39 -36 39q-8 0 -10.5 -9t-4.5 -25q-1 -8 -1.5 -21t-1 -28l-1 -29.5t-0.5 -25.5q-1 -18 2.5 -31.5t11.5 -21.5q2 -2 1 -5.5
t-10 -9.5t-23.5 -12.5t-30 -12t-30 -9.5t-22.5 -4q-9 0 -13 10.5t-5.5 26t-1 33t1.5 31.5q1 28 4 71t5 87.5t4 84.5t2 62q0 31 -6.5 51t-17.5 29q-3 3 -3 6t11 9q18 10 35.5 18t32.5 14t25.5 9t13.5 3q17 0 24 -24t7 -62q0 -15 -1 -38t-2.5 -47.5t-2.5 -46t-2 -33.5
q-2 -19 10 -7q6 5 24 17.5t41 26.5q24 15 44.5 32.5t36.5 33.5t27 29.5t16 22.5q6 11 10 21t3 21q0 2 7 8t38 20q20 9 38 15.5t27 6.5q11 0 11 -14q1 -13 -17 -39t-53 -53l-36 -29l-36 -29.5l-32 -26.5l-24 -19q-11 -8 -10.5 -14.5t6.5 -14.5q5 -8 15 -22t21 -33
q6 -11 16.5 -27l23.5 -34.5l28 -38t31 -37.5q25 -28 44 -37.5t33 -9.5h1z" />
    <glyph glyph-name="L" unicode="L" horiz-adv-x="476" 
d="M338 62q27 0 62.5 4.5t66.5 15.5q4 2 5.5 -3.5t-10.5 -18.5q-19 -20 -44 -33t-53 -20.5t-57 -10t-56 -2.5q-20 0 -42.5 1t-37.5 3q-6 1 -15.5 0.5t-22.5 -3.5q-8 -2 -18 -4t-17 -2q-3 0 -7 3t-8 12q-4 8 -5.5 18.5t-2.5 22.5q-1 21 1 56.5t7 88.5q2 25 4 53t3.5 56
t2 53.5t0.5 44.5q0 61 -14 81q-2 3 -0.5 7t12.5 9q15 7 31.5 13t30.5 10.5t24 7t13 2.5q13 0 19.5 -12t9 -29t1.5 -35.5t-1 -31.5q-2 -40 -4.5 -79t-7.5 -93q-3 -38 -3.5 -67.5t-1.5 -48.5q-1 -33 13.5 -46t35.5 -17q33 -6 85 -6h1z" />
    <glyph glyph-name="M" unicode="M" horiz-adv-x="782" 
d="M615 -13q-23 0 -38.5 16t-23.5 53q-4 22 -5 67.5t2 105.5q2 32 3.5 60.5t1.5 38.5q1 7 -2 7.5t-7 -4.5q-42 -62 -79 -124t-69 -125q-9 -17 -13.5 -29t-9.5 -21q-3 -7 -11 -15t-17 -15t-18 -12t-15 -5q-3 0 -5.5 4.5t-5.5 16.5q-6 21 -28 75.5t-74 152.5q-15 29 -24 48.5
t-12 29.5q-3 8 -6.5 7.5t-5.5 -10.5q-4 -26 -12 -69t-15 -87q-5 -36 -4 -65.5t6 -55.5q1 -5 -12 -15q-8 -6 -17.5 -12l-19 -11.5t-16.5 -8.5t-10 -3q-20 0 -8 62q3 21 11.5 57.5l17.5 78l18 80.5t14 64l8.5 48.5t3.5 36.5q0 25 14.5 47.5t33 39t35.5 26t22 9.5t5 -15
q2 -61 26 -120t53 -112l29.5 -52.5t28.5 -44.5q9 -13 14 -12.5t14 11.5q15 17 34.5 45l39 57.5l36.5 56l26 41.5q11 18 16.5 29.5t7.5 19.5q5 16 19 30q10 10 24 20.5t28.5 19.5t26.5 15t18 6q13 0 6 -87q-3 -35 -6.5 -95t-2.5 -129q0 -30 1.5 -58.5t8 -50t19 -34.5
t33.5 -13q16 0 34.5 5.5t29.5 10.5q5 2 3 -9t-13 -20q-9 -7 -26 -17t-39 -19.5t-48 -16t-53 -6.5h-1z" />
    <glyph glyph-name="N" unicode="N" horiz-adv-x="637" 
d="M87 -12q-19 0 -19 43q1 25 6 66.5l10 80.5q2 20 4.5 41.5l5 41t4 35t1.5 23.5q1 10 1 17t-1 13t-3.5 13t-8.5 16q-6 10 -16 24t-15 25q-8 19 -6 37t18 39q14 21 28 31.5t19 10.5t16 -34q3 -8 6.5 -10.5t8.5 -2.5q11 0 15 -1t7 -4q5 -5 6.5 -17.5t6.5 -19.5
q14 -23 48 -53.5l69 -59.5l96 -77.5t91 -76.5q5 -4 7 -3.5t3 9.5q2 13 4 38.5t4 54.5t3 56.5t1 45.5q0 29 -3 45t-6 22q-2 4 2 11t21 23q14 14 26 22.5t15 8.5q14 0 14 -35q0 -10 -1 -31.5t-7 -59.5q-5 -36 -8.5 -73l-6.5 -69.5t-4.5 -59t-1.5 -42.5q-1 -17 -0.5 -31.5
t4.5 -21.5q11 -23 13 -31.5t2 -12.5q0 -9 -9.5 -22t-22.5 -24.5t-27.5 -19.5t-23.5 -8q-5 0 -14 21q-4 9 -11.5 22t-21.5 30.5t-36 40t-54 50.5q-17 15 -39.5 33l-47 37.5l-48.5 39l-45 37.5q-13 12 -17 -5q-2 -9 -3.5 -25t-3 -35t-2.5 -39t-1 -36q-2 -46 3 -76.5t14 -41.5
q2 -3 -0.5 -6.5t-12.5 -11.5q-13 -10 -32 -19t-23 -9h-1z" />
    <glyph glyph-name="O" unicode="O" horiz-adv-x="622" 
d="M246 -14q-45 0 -92.5 16.5t-79.5 55.5q-17 20 -29.5 55t-12.5 79q0 50 13.5 92.5t38.5 76t58.5 58.5t74.5 40q6 2 11.5 1.5t9.5 -2t5.5 -3.5t-2.5 -5q-12 -11 -26 -26.5t-25 -39.5t-18.5 -58t-7.5 -80t11 -82.5t34 -62.5q26 -28 58 -37.5t61 -9.5q25 0 47.5 8.5
t40.5 27.5q20 20 34.5 62.5t14.5 113.5q0 42 -10 77t-29 60t-46 39t-61 14q-23 0 -38 -3.5t-21 -5.5q-4 -2 -2.5 7t12.5 19q25 23 64 38t73 15q51 0 83.5 -18t50.5 -38q29 -32 38.5 -73.5t9.5 -80.5q0 -60 -22 -110t-57.5 -89.5t-79 -67.5t-86.5 -44q-28 -11 -51 -15t-46 -4
h-1z" />
    <glyph glyph-name="P" unicode="P" horiz-adv-x="504" 
d="M252 471h-7.5t-7.5 -2q-5 -1 -5.5 -3t1.5 -8q0 -15 -0.5 -40t-2 -54.5t-3.5 -61.5l-4 -61q-2 -17 24 -17q61 0 87 34t25 94q0 49 -27 84t-79 35h-1zM307 526q35 0 66.5 -7t55.5 -22.5t38.5 -42t14.5 -65.5q0 -36 -13 -64t-34 -49.5t-47.5 -37.5t-53.5 -29
q-31 -15 -62 -23.5t-45 -10.5q-10 -1 -10 -11q-2 -20 -2.5 -47.5t0.5 -45.5q1 -15 9 -27t15 -18q2 -2 2 -5t-8 -8q-5 -4 -21 -10t-34 -12t-34 -10t-23 -4q-17 0 -22.5 20.5t-5.5 53.5q0 15 1 37.5t2.5 48t2.5 51t2 45.5l4 66t2 59t-1.5 47t-6.5 29q-2 5 -4 6.5t-7 -0.5
q-14 -5 -32.5 -13.5t-29.5 -16.5q-15 -8 -7 9t23 31.5t32 23.5q6 2 8.5 4l6.5 5q2 2 6.5 5.5t10.5 7.5q8 6 23.5 13t31.5 13t29.5 9.5t18.5 3.5q6 0 15 -17q2 -7 11 -4q14 2 32.5 6.5t38.5 5.5h1z" />
    <glyph glyph-name="Q" unicode="Q" horiz-adv-x="623" 
d="M405 526q51 0 83.5 -18t52.5 -41q31 -35 40 -77t9 -81q0 -63 -21 -109.5t-47 -78t-49.5 -48.5t-28.5 -21q-8 -5 -9 -8t6 -6q28 -15 61.5 -37.5t59.5 -37.5q30 -19 58.5 -27.5t49.5 -8.5q18 0 40 5.5t36 16.5q5 3 5.5 -4.5t-5.5 -15.5q-11 -15 -28 -27t-37.5 -21
t-42 -13.5t-42.5 -4.5q-39 0 -78.5 13.5t-77.5 36.5q-7 4 -20 12.5l-28.5 19l-32 21t-30.5 17.5q-15 8 -30 5q-13 -2 -22.5 -3t-26.5 0q-49 0 -89 14.5t-68.5 41.5t-44 66t-15.5 89q0 48 11.5 86t28.5 66.5t38 49t39 34.5q13 10 27.5 18t28 14t23.5 9t15 3q9 0 10 -6t-7 -13
q-49 -45 -65 -99t-16 -114q0 -45 9 -77.5t21 -54t23.5 -33t17.5 -15.5q5 -4 11 -3t12 3q26 9 54 11.5t58 -7.5q7 -2 11 -1t10 6q12 9 24.5 24.5t23 38t17 53t6.5 68.5q0 51 -12 89t-32 63.5t-46.5 38t-55.5 12.5q-9 0 -23 -1.5t-21 -3.5q-5 -2 -5 5t11 17q9 8 22.5 17t30 16
t35 11.5t36.5 4.5h1z" />
    <glyph glyph-name="R" unicode="R" horiz-adv-x="569" 
d="M262 464h-13t-10 -1q-9 -3 -8 -14q1 -10 0 -31t-2.5 -46.5t-3.5 -52.5t-3 -49q0 -6 3 -9.5t15 -3.5q30 0 54.5 6t41.5 20q14 11 22 31.5t8 42.5t-7.5 41.5t-21 34t-32.5 23t-42 8.5h-1zM335 522q70 0 112.5 -29t42.5 -89q0 -26 -8.5 -45.5t-22.5 -35.5t-32 -29t-38 -25
q-10 -6 -10.5 -12t6.5 -20q9 -18 20.5 -39t25.5 -43.5t29.5 -44t31.5 -39.5q36 -40 61 -40q7 0 15 1.5t13 3.5q5 1 6 -0.5t0 -5.5t-6 -10t-11 -10q-20 -14 -47.5 -21t-54.5 -7q-35 0 -62.5 19t-50.5 48q-10 13 -21 29.5l-21.5 33l-19.5 31.5t-14 26q-14 27 -23 39t-18 12
q-8 0 -14 -6q-2 -2 -4 -7t-3 -13q-1 -6 -2 -22t-2 -34t-1.5 -35.5t-0.5 -26.5q0 -11 4 -21t9 -15q11 -9 -13 -23q-10 -6 -24 -11.5t-28.5 -10t-27.5 -7t-19 -2.5q-13 0 -18.5 20t-2.5 74q2 33 6.5 86t7.5 106t3 94.5t-6 51.5q-4 5 -6.5 7t-7.5 0l-11 -5.5t-14.5 -8t-15 -8.5
t-11.5 -7q-8 -6 -8 3q0 5 2.5 11.5t7.5 11.5q13 14 24.5 23t31.5 21q5 3 12 9t14 11q6 4 19 11.5l27 15t26 12.5t16 5q5 0 7 -5t5 -9q5 -8 18 -5q12 3 38 7t58 4h1z" />
    <glyph glyph-name="S" unicode="S" horiz-adv-x="415" 
d="M114 -14q-11 0 -26.5 2.5t-30.5 8t-25.5 15.5t-10.5 25q0 7 4.5 14.5t11 13.5l13 11.5t11.5 8.5q15 12 20.5 12.5t7.5 -2.5q10 -17 39 -32t67 -15q16 0 31.5 4t28 12t20.5 21t8 31q0 25 -22 42t-65 36q-14 6 -31 12.5t-33.5 13.5t-30.5 15t-22 16q-29 29 -29 74
q0 24 8 45.5t20 38.5t26 31t26 23q14 10 34 22t43 22t47 16.5t46 6.5q8 0 19.5 -2.5t21.5 -7t17 -11.5t7 -15q0 -7 -5 -15t-12 -16t-14.5 -14.5t-11.5 -9.5q-12 -7 -15 -4q-18 16 -40 23t-47 7q-15 0 -29 -5t-25 -13.5t-18 -20.5t-7 -25q0 -16 11 -29.5t28.5 -24.5t39.5 -21
t45 -19q27 -11 49 -21t37.5 -23t24 -30.5t8.5 -44.5q0 -35 -15 -61t-35.5 -45.5t-41 -32t-31.5 -18.5q-9 -6 -24 -13.5t-34 -14.5t-41.5 -12t-46.5 -5h-1z" />
    <glyph glyph-name="T" unicode="T" horiz-adv-x="517" 
d="M235 522q45 0 79.5 -4t63.5 -7q29 -4 51.5 -5t38.5 -1q18 0 40 2t35 7q3 2 6 0t-5 -14q-6 -9 -18 -18.5t-29.5 -17.5t-38.5 -13t-45 -5q-19 0 -35 0.5t-32 1.5q-8 0 -10 -2t-2 -8q0 -8 -1 -22.5t-2 -33.5q-3 -49 -6.5 -116t-8.5 -142q-2 -39 0.5 -57t13.5 -26
q5 -4 4 -7.5t-12 -10.5q-9 -5 -23 -11.5t-29 -12.5t-28.5 -10t-22.5 -4q-22 0 -27 26.5t-2 87.5q2 32 5 70.5t5.5 75t4.5 68.5t2 52q1 17 0.5 39t-2.5 33q-4 17 -17 20q-8 2 -15.5 2h-15.5q-24 0 -45.5 -5.5t-39.5 -14t-31.5 -18t-22.5 -17.5q-5 -4 -7.5 0.5t5.5 16.5
q17 28 42 47.5t54 31.5t60.5 17t61.5 5h1z" />
    <glyph glyph-name="U" unicode="U" horiz-adv-x="642" 
d="M182 -11q-32 0 -56.5 18t-35.5 47q-5 14 -7.5 28.5t-3 31t0.5 36.5t3 45q4 48 7 93.5l5 76.5q4 73 -19 93q-2 2 -3.5 4t10.5 10q44 26 76.5 39t38.5 13q11 0 17 -11.5t7.5 -32t0.5 -48t-3 -59.5q-2 -20 -4 -44l-4 -48.5t-3.5 -46.5t-1.5 -37q-1 -25 1 -46.5t9.5 -37.5
t22 -25t38.5 -9q14 0 28.5 3t33.5 13q18 10 34 26t24 28q13 21 16 41q2 11 4 30.5t6 48.5q1 12 2.5 28.5l3 34t2 33.5t0.5 26q0 21 -1.5 38.5t-6.5 28.5q-2 4 -1 8.5t17 14.5q40 25 68.5 36t32.5 11q14 0 16.5 -29.5t-2.5 -88.5l-4.5 -56l-5 -60t-4.5 -58.5t-3 -51.5
q-1 -26 1 -49.5t8.5 -41t18.5 -28t32 -10.5q19 0 47 10q5 1 3 -9t-13 -19q-12 -9 -28.5 -19t-35 -18t-38 -13t-37.5 -5q-21 0 -35.5 10.5t-24 26.5t-14.5 35.5t-6 37.5q0 14 -11 5q-8 -5 -33.5 -24.5t-74.5 -47.5q-37 -21 -62 -28.5t-52 -7.5h-1z" />
    <glyph glyph-name="V" unicode="V" horiz-adv-x="576" 
d="M252 -16q-10 0 -17 18t-15 47l-18 69.5l-21 76t-23 75.5t-24 69q-19 51 -32.5 74.5t-22.5 32.5q-11 11 -28.5 12.5t-28.5 1.5q-5 0 -3.5 5.5t11.5 15.5q6 6 19 14t29 14.5t32 11.5t29 5q19 0 34 -9.5t27 -23.5t21 -32t16 -34q11 -26 23.5 -65l24 -78l20.5 -71t14 -43
q6 -14 10 -12.5t15 15.5q16 22 32.5 48l43.5 71q29 48 41 78.5t15 50.5q2 14 -0.5 28.5t-10.5 21.5q-4 3 -4 7q1 4 10.5 12.5t21 16.5t23.5 14t18 6q11 0 18.5 -11t9.5 -28q1 -23 -7.5 -49.5t-25 -57.5t-39 -67l-49.5 -78q-35 -54 -58 -97.5t-31 -57.5q-8 -17 -10.5 -27
t-2.5 -17q0 -9 -11 -18.5t-26 -17t-29.5 -12.5t-19.5 -5h-1z" />
    <glyph glyph-name="W" unicode="W" horiz-adv-x="801" 
d="M157 526q14 0 27 -14.5t22 -35.5q10 -25 20 -62t19 -77t16.5 -78.5t13.5 -65.5q4 -23 16 -3q9 16 21.5 41.5t25 54l23.5 55.5t18 46q9 30 19 49q3 7 15 21t26 28.5t27 25t19 10.5q5 0 5 -16q0 -20 5 -45.5t12.5 -54t17 -58.5l18.5 -58q14 -41 26.5 -70.5t21.5 -53.5
q8 -19 19 -2q19 26 38 58t37 73q17 37 22.5 71t4.5 52q-1 20 -6 34.5t-10 21.5q-2 3 5.5 12.5t27.5 29.5q20 19 30 19q8 0 13.5 -6.5t9 -16t5 -20t1.5 -18.5q0 -29 -8.5 -61.5t-20.5 -64t-25 -58t-22 -42.5l-41.5 -74l-44.5 -80l-10.5 -22t-9.5 -22q-3 -8 -16 -19.5t-28 -22
t-29 -17.5t-20 -7t-9 19q-9 42 -18 76t-22 73l-27.5 82l-21.5 62q-4 14 -8.5 15t-13.5 -15l-18 -33t-21 -42.5l-22 -49t-20 -51.5q-5 -13 -9 -26.5l-7 -24.5t-17.5 -25.5t-31 -27t-31.5 -21t-20 -8.5q-8 0 -11 26q-2 11 -4 26.5l-4 30.5q-2 18 -7 48t-12 66t-15.5 74
t-18.5 72t-20.5 61.5t-21.5 42.5q-11 14 -24 20t-33 9q-4 0 -0.5 7t12.5 12q9 6 24.5 14t32.5 15t33.5 11.5t28.5 4.5h1z" />
    <glyph glyph-name="X" unicode="X" horiz-adv-x="587" 
d="M442 -19q-26 0 -51.5 13.5t-45.5 36.5q-12 13 -24 34l-24 43.5t-22.5 44.5t-19.5 38q-5 9 -8.5 8.5t-10.5 -7.5l-34 -34.5t-54 -67.5q-21 -29 -27.5 -47.5t-5.5 -26.5q0 -2 -3.5 -4.5t-13.5 -7.5q-6 -3 -16.5 -6.5l-21.5 -7t-20.5 -5.5t-14.5 -2q-7 0 -13 1.5t-8 6.5
q-7 16 20 47q15 18 41.5 44.5l55 55l55 55.5l43.5 44q6 6 6.5 11.5t-3.5 13.5l-31.5 65t-38 67t-43 52t-44.5 21q-5 0 -16 -1.5t-15 -3.5q-4 -1 -3.5 7.5t17.5 19.5q29 17 60 27t54 10q29 0 47.5 -15t35.5 -38q16 -22 34 -57l36 -72q5 -8 8 -9t8 4q57 55 81 93.5t21 59.5
q0 5 5 10.5t20 13.5q16 7 36.5 13.5t28.5 6.5q15 0 9 -25q-3 -19 -34.5 -57t-79.5 -86l-19.5 -19.5l-20 -20.5t-17.5 -17.5t-11 -11.5q-8 -8 1 -24l43.5 -83t43.5 -71.5t45.5 -50.5t49.5 -19q17 0 34 4.5t26 8.5q5 2 5 -8t-14 -21q-32 -26 -70.5 -40t-70.5 -14h-1z" />
    <glyph glyph-name="Y" unicode="Y" horiz-adv-x="538" 
d="M141 527q26 0 52.5 -22t49.5 -65q21 -41 38 -81l25 -60q6 -14 10 -15t12 7q12 12 25 27t25 30.5t22.5 30.5t17.5 27q13 20 17.5 38.5t4.5 27.5q0 8 -1.5 15t-2.5 11q-2 3 1 6.5t13 9.5q18 11 34.5 17t21.5 6q17 0 17 -28q0 -30 -27.5 -75t-75.5 -101q-32 -37 -48.5 -60.5
t-27.5 -46.5q-8 -19 -10.5 -54.5t-4.5 -69.5q-3 -50 14 -66q3 -3 3.5 -5t-10.5 -9q-11 -6 -26.5 -12t-31.5 -11.5t-30.5 -9t-21.5 -3.5q-9 0 -14 6t-7 16t-2 21.5t1 22.5q1 13 3 33.5t3.5 40t2.5 35.5t1 20q1 5 -1 11.5t-3 10.5q-2 6 -4 11t-4 14q-4 21 -14 48t-23.5 55
t-28.5 53t-30 43q-12 14 -29.5 27t-34.5 13q-9 0 -19 -2q-5 -1 -4 5.5t11 14.5q21 16 52.5 29t57.5 13h1z" />
    <glyph glyph-name="Z" unicode="Z" horiz-adv-x="585" 
d="M231 521q16 0 38 -2t45.5 -5l47 -6t41.5 -6q25 -4 38.5 -5t21.5 -1q7 0 15 3t19 12q19 17 34 24.5t30 7.5q11 0 -7 -24q-6 -8 -18.5 -22.5t-38.5 -40.5l-62.5 -65.5l-75.5 -81.5l-77 -86l-68 -79q-14 -17 1 -20q14 -3 35 -9.5l61 -18.5q36 -11 76 -20t69 -9q23 0 55 17.5
t56 46.5q3 4 5.5 2.5t3 -6.5t-1.5 -12t-6 -14q-35 -58 -87 -92t-118 -34q-23 0 -47.5 5t-47.5 11.5t-42.5 13l-32.5 10.5q-40 14 -62 14q-24 0 -46 -10.5t-43 -26.5q-10 -7 -18 -5t-7 9q2 6 9.5 18.5t21.5 26.5l160.5 170.5t157.5 174.5q7 8 7.5 13t-9.5 5t-30 2.5
t-44.5 4.5l-50 4t-47.5 2q-48 0 -80.5 -14.5t-61.5 -43.5q-7 -7 -13 -3t4 23q6 12 17.5 27.5t25.5 31.5t28.5 29.5t25.5 21.5q24 17 45 24.5t47 7.5h1z" />
    <glyph glyph-name="bracketleft" unicode="[" horiz-adv-x="335" 
d="M263 608q23 0 38 -3q10 -2 10 -7q0 -8 -8.5 -13t-22.5 -9l-37.5 -11t-33.5 -15q-9 -7 -12.5 -20t-5.5 -32q-2 -14 -3.5 -30t-3 -39t-3 -54t-4.5 -75q-2 -44 -5 -94t-4.5 -95.5t-2 -82t2.5 -51.5q5 -24 14.5 -35.5t26.5 -16.5q15 -5 34 -7.5t39 -5.5q8 -2 7.5 -6.5
t-8.5 -9.5q-11 -7 -33.5 -11t-64.5 -4q-24 0 -47 2t-36 18q-7 9 -11.5 21.5t-6 38t0 68t4.5 111.5l6 126.5t5 116.5t4.5 96t5.5 66q2 17 7 30t22 19q7 2 22 4.5t33 4.5t37 3.5t33 1.5h1z" />
    <glyph glyph-name="backslash" unicode="\" horiz-adv-x="380" 
d="M326 -110q-20 0 -34.5 15t-22.5 32l-34 78.5l-40.5 97.5l-43.5 107.5l-43 108.5l-40 101l-33 85q-3 8 0 17.5t8.5 19t12 17.5l11.5 14q5 8 8 6t8 -14l60 -162.5l64 -164l63 -154.5t59 -134q5 -11 7.5 -18.5t4.5 -12.5q3 -12 -3 -25.5t-11 -13.5h-1z" />
    <glyph glyph-name="bracketright" unicode="]" horiz-adv-x="335" 
d="M199 606q33 0 42.5 -11.5t11.5 -42.5q2 -29 0 -88.5t-7 -150.5l-7 -133t-6 -94.5t-5 -61.5t-4 -34q-5 -31 -15.5 -55t-40.5 -36q-8 -3 -25 -6t-36.5 -5.5t-37 -4t-24.5 -1.5q-14 0 -17 2.5t2 10.5q10 12 17 17.5t14 7.5q27 9 45.5 17t25.5 28q2 6 5 16.5t6 30t6.5 49.5
t6.5 75q3 44 5 91.5t3.5 90t2.5 76.5t1 51q2 51 -2.5 77.5t-10.5 34.5q-8 11 -31 8q-8 0 -18.5 -1t-20 -2t-17 -2t-10.5 -1q-5 0 -7.5 0.5t2.5 9.5q10 19 25 23q14 4 64 10l35 3t21 1h1z" />
    <glyph glyph-name="asciicircum" unicode="^" horiz-adv-x="450" 
d="M244 526q8 0 17 -9t20 -23q9 -12 27 -41.5l37 -63.5l35.5 -66t23.5 -48q6 -16 5.5 -25t-8.5 -17q-5 -5 -14 -11t-18.5 -11t-17.5 -8t-11 -3q-4 0 -6 2.5t-5 13.5q-7 23 -18 48.5t-24 51t-27 49t-27 41.5q-8 11 -14.5 11t-15.5 -10l-37 -47l-39 -52.5l-36 -50.5l-29 -40
q-8 -13 -14 -3q-4 8 -8 20t4 25l33 53l45 69.5t49 70.5t45 55q17 19 27 19h1z" />
    <glyph glyph-name="underscore" unicode="_" horiz-adv-x="500" 
d="M497 -125h-500v50h500v-50z" />
    <glyph glyph-name="quoteleft" unicode="&#x2018;" horiz-adv-x="221" 
d="M91 356q-13 0 -23 7.5t-16.5 19t-9.5 25.5t-3 27q0 33 15 63.5t37.5 55t48.5 41.5t48 23q16 5 22.5 -0.5t-2.5 -12.5q-31 -22 -51.5 -55.5t-20.5 -71.5q0 -24 10 -38t19 -21q8 -5 1.5 -16t-24.5 -24q-14 -11 -27.5 -17t-22.5 -6h-1z" />
    <glyph glyph-name="a" unicode="a" horiz-adv-x="423" 
d="M178 59q6 0 15.5 2t14.5 6q13 9 14 34q1 9 1.5 25.5t2.5 33.5q0 6 -2.5 7.5t-10.5 0.5q-17 -3 -33.5 -6.5t-23.5 -8.5q-27 -13 -27 -42q0 -22 15 -37t33 -15h1zM274 393q34 0 56.5 -34t18.5 -88q-4 -43 -5.5 -80.5t-1.5 -63.5q-1 -20 1 -33.5t10 -22.5q13 -15 30 -15
q9 0 21 3t19 6q8 4 8.5 -5t-7.5 -17q-8 -10 -20.5 -20.5t-28.5 -19.5t-35 -14.5t-39 -5.5q-25 0 -46 16.5t-30 33.5q-3 5 -5.5 5.5t-8.5 -3.5q-11 -8 -25.5 -16t-29 -14.5t-27.5 -11t-20 -4.5q-24 0 -45 11.5t-30 29.5q-10 19 -10 42q0 18 8.5 32.5t18.5 24.5q14 14 33.5 26
t41.5 22.5t44.5 18.5t41.5 14q16 5 17 13t1 15v18q1 26 -10.5 45t-33.5 19q-14 0 -30.5 -5t-33.5 -13t-33.5 -17.5l-30.5 -17.5q-5 -3 -8 -2t2 17q7 17 16 29.5t26 21.5q22 11 56.5 24.5t65.5 24.5q36 11 57 11h1z" />
    <glyph glyph-name="b" unicode="b" horiz-adv-x="487" 
d="M337 197q0 18 -4.5 38t-13.5 37t-22.5 28t-31.5 11q-20 0 -38.5 -13.5t-31.5 -27.5q-8 -9 -12.5 -20.5t-6.5 -28.5q-2 -20 -3 -41t1 -41q1 -16 5 -32.5t13 -29.5t22 -21t32 -8q12 0 23.5 3.5t22.5 11.5q14 10 29.5 41.5t15.5 91.5v1zM463 251q0 -57 -28 -104.5t-73 -81.5
t-96.5 -54.5t-108.5 -20.5q-25 0 -46.5 10.5t-37.5 33.5q-14 22 -16.5 46.5t-1.5 50.5q1 33 3 74t5 87l6.5 95.5t6.5 99.5q4 53 -3 76.5t-16 32.5q-5 4 -5 6t8 8q7 5 23 13.5t34 17t33 14.5t20 6q10 0 16 -9.5t9 -24.5t4 -34t0 -38q-2 -30 -3.5 -62l-3 -62t-3 -56.5
l-2.5 -44.5q-1 -10 2.5 -11.5t11.5 3.5l39.5 23t52.5 28q17 8 28.5 11t24.5 3q52 0 84.5 -37t32.5 -98v-1z" />
    <glyph glyph-name="c" unicode="c" horiz-adv-x="373" 
d="M299 387q9 0 19.5 -2.5t19.5 -7.5t15.5 -12t7.5 -17q0 -6 -5.5 -14t-13.5 -15.5t-16.5 -14t-14.5 -10.5q-11 -8 -16 -1q-14 16 -32 22.5t-35 6.5t-29 -5t-22 -15q-12 -12 -21.5 -37t-9.5 -60q0 -59 28.5 -97.5t87.5 -38.5q23 0 52.5 9.5t52.5 26.5q10 7 10 -1t-7 -21.5
t-17 -21.5q-38 -29 -89.5 -50.5t-105.5 -21.5q-61 0 -98 35t-37 99q0 40 14.5 75t38 64t54 52t63.5 40q36 18 61.5 25.5t43.5 7.5h1z" />
    <glyph glyph-name="d" unicode="d" horiz-adv-x="501" 
d="M217 77q23 0 39.5 9t31.5 25q13 16 13 41l2.5 43.5l3 52.5t3 47t1.5 27q1 7 -1 7.5t-5 -0.5q-8 -2 -20.5 -0.5t-29.5 1.5q-25 1 -46.5 -6.5t-34.5 -21.5q-33 -35 -33 -108q0 -23 5.5 -44t15.5 -37.5t24 -26t30 -9.5h1zM121 -10q-25 0 -43.5 10t-30.5 27t-18 39.5t-6 46.5
q0 76 36 128t94 92q43 29 83 41.5t63 12.5q8 0 11.5 2t4.5 10q2 20 3 50l2 59q1 35 -3 55.5t-17 32.5q-3 3 -3.5 5t4.5 7q5 4 21.5 12l35.5 16.5t35.5 14.5t22.5 6q10 0 15 -10.5t7 -26.5t2 -35.5v-38.5q-1 -26 -4 -69.5t-6 -92t-5.5 -94.5t-3.5 -76q-1 -23 -1 -50
t3.5 -50.5t13.5 -39.5t29 -16q12 0 24.5 3.5t20.5 7.5q8 5 8.5 -3.5t-9.5 -19.5q-9 -9 -24 -20t-34 -20.5t-40 -16t-42 -6.5q-18 0 -29 7.5t-18.5 19t-12 25.5t-7.5 27q-2 8 -6 8t-10 -5q-13 -9 -33.5 -22t-44 -25t-46.5 -20t-41 -8h-1z" />
    <glyph glyph-name="e" unicode="e" horiz-adv-x="404" 
d="M215 341q-15 0 -35.5 -25t-26.5 -76q-1 -8 1.5 -9.5t9.5 -1.5q20 1 43.5 4t39.5 8q11 3 14 7.5t3 15.5q0 9 -2.5 24.5t-8.5 26.5q-5 11 -15 18.5t-22 7.5h-1zM176 -10q-49 0 -86 21t-54 66q-11 32 -11 73q0 58 28 109t81 85q29 19 62 31t65 12q22 0 38 -4.5t27.5 -11.5
t18.5 -16t12 -17q8 -14 10.5 -33t2.5 -28q0 -5 3 -6.5t18 0.5q8 1 7 -6.5t-12 -16.5t-33.5 -18t-49.5 -16q-11 -3 -27.5 -7l-35 -8.5t-37.5 -8l-35 -6.5q-11 -2 -14.5 -5t-3.5 -10q0 -24 9 -43t25 -32.5t37.5 -20t44.5 -6.5q33 0 65.5 9t58.5 28q3 3 4 -0.5t0.5 -9.5
t-4 -13.5t-9.5 -13.5q-11 -10 -30 -23.5t-45.5 -25.5t-59 -20t-69.5 -8h-1z" />
    <glyph glyph-name="f" unicode="f" horiz-adv-x="279" 
d="M206 296q-5 0 -8 -1.5t-4 -8.5t-3 -32.5t-2 -73.5q-1 -49 0.5 -78t3.5 -36q2 -9 8.5 -18t11.5 -14q3 -3 1 -6.5t-13 -10.5q-7 -5 -21.5 -11t-31 -12t-31.5 -10t-24 -4q-17 0 -22 19t-4 42q0 27 1.5 59l3 64l3 62.5t2.5 53.5q1 15 -7 15q-9 0 -22 -1t-21 -4q-6 -2 -8 1.5
t3 12.5t19 23.5t33 21.5q5 2 6.5 3.5t2.5 7.5q10 98 59.5 162t123.5 106q29 16 47.5 21.5t34.5 5.5q15 0 25 -5t17 -12.5t10 -16t3 -15.5t-4.5 -15.5t-11.5 -17t-15 -15.5t-15 -11q-12 -8 -17 -1q-14 14 -32.5 24.5t-38.5 10.5q-26 0 -42 -30q-14 -29 -20.5 -75t-9.5 -107
q0 -8 2 -11.5t10 -4.5q20 -2 36.5 -3t37.5 -1q15 0 29.5 1t22.5 3q5 2 7 -2t-7 -15q-10 -12 -23.5 -20t-28.5 -12.5t-31 -6t-31 -1.5h-15z" />
    <glyph glyph-name="g" unicode="g" horiz-adv-x="406" 
d="M281 387q22 0 36 -7.5t25 -15.5q9 -7 15 -9t16 -2q25 2 44.5 11t36.5 26q5 5 7 0.5t-3 -18.5q-10 -28 -32.5 -49.5t-51.5 -30.5q-8 -3 -7 -8q0 -4 0.5 -10.5t0.5 -14.5q0 -28 -12.5 -54.5t-33.5 -46.5q-25 -27 -53.5 -45l-50.5 -32q-29 -18 -29 -32q0 -5 5.5 -12
t21.5 -15q9 -5 24.5 -11t33.5 -12l37 -12.5t34 -12.5q23 -9 35.5 -20t18.5 -22.5t7.5 -22.5t1.5 -19q0 -16 -7.5 -32t-19 -30.5t-25.5 -27.5t-28 -22q-42 -28 -95 -47t-109 -19q-26 0 -54 5t-51 16.5t-37.5 30t-14.5 44.5q0 13 5.5 24.5t13.5 21.5q9 10 21.5 21t27 21t29 19
t26.5 15q14 6 19.5 2.5t0.5 -12.5q-3 -5 -8.5 -11l-10.5 -11q-9 -9 -14.5 -19.5t-5.5 -22.5q0 -22 13.5 -37.5t34 -25.5t43.5 -14.5t41 -4.5q29 0 50 5.5t35 13.5q11 8 18 16.5t7 19.5q0 9 -8 20t-30 22q-16 8 -38 17t-44 17l-41 14.5l-30 10.5q-16 5 -28 19.5t-12 36.5
q0 10 11 21.5t22 20.5t19 14.5t13 9.5q6 7 -15 9q-45 3 -74 30.5t-29 73.5q0 50 29 87t84 63q19 8 23 3t-1 -12q-9 -11 -15.5 -31.5t-6.5 -46.5q0 -20 4.5 -39.5t13.5 -35t21.5 -25t28.5 -9.5q18 0 33 15q11 10 18.5 28t7.5 56q0 43 -17 73.5t-43 30.5q-6 0 -13.5 -0.5
t-11.5 -1.5q-7 -2 -8.5 2.5t7.5 15.5q17 19 44 34t53 15h1z" />
    <glyph glyph-name="h" unicode="h" horiz-adv-x="503" 
d="M355 387q15 0 30 -8q27 -14 37 -47.5t9 -78.5q0 -13 -1.5 -31.5t-2.5 -38t-2.5 -37.5t-1.5 -30q-1 -9 -0.5 -20t3 -20.5t9 -16t17.5 -6.5q8 0 19.5 2.5t28.5 10.5q5 3 4.5 -7.5t-11.5 -20.5q-16 -15 -37 -26t-41 -18t-36 -10.5t-23 -3.5q-14 0 -25 6t-20 16
q-9 11 -10.5 23t0.5 31q2 22 4 53t6 70q4 41 1.5 64t-8.5 36q-10 23 -30 23q-12 0 -30 -13.5t-36 -45.5q-11 -20 -17.5 -38t-10.5 -37.5t-6.5 -41l-5.5 -48.5q-3 -20 -18.5 -36.5t-35 -28.5t-38.5 -18.5t-27 -6.5q-3 0 -5 2.5t1 12.5q7 19 16 103.5t17 226.5q4 70 5.5 117
t-0.5 77t-7.5 46t-14.5 24q-2 2 -2.5 4.5t9.5 10.5q10 7 26 16t32.5 17t30.5 13.5t19 5.5q11 0 16.5 -16.5t7.5 -40t1.5 -48.5t-0.5 -43q-1 -25 -2.5 -55l-3 -59.5t-2.5 -56.5t-2 -45q-2 -20 13 -5q7 8 18 19t34 28l19 13t25.5 15t27.5 12t26 5h1z" />
    <glyph glyph-name="i" unicode="i" horiz-adv-x="266" 
d="M175 388q9 0 13.5 -9.5t6 -23.5t1 -30t-1.5 -28q-2 -19 -4 -41.5t-3.5 -45.5l-3 -45.5t-1.5 -40.5q-1 -20 2 -32.5t7.5 -20t11 -10t12.5 -2.5q16 0 42 9q3 1 4 -2t-0.5 -8t-5 -11t-9.5 -10q-17 -12 -35 -21.5t-36 -16.5t-33.5 -10.5t-26.5 -3.5q-27 0 -43 25t-12 81
l2.5 34.5t3.5 42.5t3.5 44t2.5 40q2 33 -2.5 49t-10.5 25q-2 4 -1.5 7.5t11.5 9.5q12 7 28 15t31.5 15t28 11t17.5 4h1zM74 527q0 6 12.5 16t29 19.5t33 16t25.5 6.5q6 0 7.5 -5t0.5 -16q-2 -19 3.5 -37t14.5 -29q6 -8 5 -12t-9 -10q-5 -4 -14 -10t-19 -12t-19.5 -10
t-14.5 -4q-6 0 -15 5.5t-18 16t-15.5 27t-6.5 37.5v1z" />
    <glyph glyph-name="j" unicode="j" horiz-adv-x="252" 
d="M171 389q15 0 21 -36.5t4 -91.5q0 -32 -1.5 -66l-3 -66.5t-4 -61t-5.5 -47.5q-11 -67 -36 -117.5t-68 -95.5q-13 -14 -30 -28t-35.5 -25.5t-38.5 -19t-39 -7.5q-30 0 -46 24t-19 53q-2 11 1 16t8 0q7 -5 19 -10.5t26 -9.5t28 -6.5t25 -2.5q26 0 41 10.5t23 29.5
q13 30 17 70t7 78q2 24 3 55.5t1.5 65t0.5 67v61.5q0 45 -6.5 67t-15.5 30q-5 4 -2.5 7.5t9.5 8.5q4 3 21 11t36.5 16l36 14.5t21.5 6.5h1zM67 529q0 6 12.5 16t29 19.5t33.5 16t26 6.5q8 0 7 -21q-3 -39 19 -68q6 -8 3.5 -12t-10.5 -10q-5 -4 -13.5 -10t-18.5 -11t-19 -9
t-14 -4q-6 0 -15 5.5t-18 16t-15.5 27t-6.5 37.5v1z" />
    <glyph glyph-name="k" unicode="k" horiz-adv-x="482" 
d="M374 -10q-21 0 -39 8t-38 30q-8 9 -18.5 22.5l-21.5 29l-21.5 31.5t-18.5 30q-11 20 -17 27.5t-11 7.5t-7 -4t-3 -20q-2 -35 -4 -59t-4 -37q-3 -20 -24 -35q-9 -6 -21.5 -12.5t-25.5 -11.5t-24.5 -8t-18.5 -3q-8 0 -5 14q3 12 6 42t5.5 72t5 92.5t4.5 102.5t3 102t1 91
q0 34 -5 64t-17 39q-7 6 6 15q7 6 25 15t37 17t35 13.5t21 5.5q7 0 11 -12.5t5.5 -30t2 -35t0.5 -26.5q0 -31 -2 -75t-4.5 -90.5t-4.5 -90.5t-3 -75q-1 -9 3 -10t11 5q40 37 70.5 70.5t69.5 62.5q16 11 33 19.5t31 8.5q15 0 28.5 -11t21.5 -36q2 -8 -0.5 -10.5t-7.5 -1.5
q-19 4 -40 0t-41.5 -13t-38 -21t-30.5 -24q-7 -6 -6 -14.5t6 -16.5q16 -23 36.5 -56.5t40.5 -62.5q29 -43 50.5 -57t38.5 -14q10 0 22.5 2.5t19.5 4.5q5 2 5.5 -6.5t-9.5 -18.5q-8 -8 -22 -16t-30.5 -15t-34.5 -11t-36 -4h-1z" />
    <glyph glyph-name="l" unicode="l" horiz-adv-x="260" 
d="M126 -10q-14 0 -26.5 7t-20.5 18q-12 14 -17 44t-3 82l6 95.5l6 98t5.5 95t3.5 87.5q2 30 -3 52.5t-16 33.5q-3 2 -4 5.5t8 9.5q11 7 28 15.5t33.5 15.5t30 11.5t18.5 4.5q12 0 17.5 -13t7 -33.5t0.5 -44.5t-2 -45l-5 -82l-6 -99t-5.5 -100t-2.5 -86q-1 -38 2 -55t11 -28
q12 -15 30 -15q8 0 19.5 1.5t20.5 4.5q5 1 6 -7.5t-13 -19.5q-13 -11 -30.5 -20.5t-35.5 -16.5t-34.5 -11.5t-27.5 -4.5h-1z" />
    <glyph glyph-name="m" unicode="m" horiz-adv-x="736" 
d="M357 387q19 0 31 -12.5t19 -30t9.5 -37t2.5 -33.5q0 -17 12 -5l58.5 56t65.5 50q25 15 45 15q28 0 44.5 -30.5t14.5 -72.5l-5 -99q-2 -23 -1 -46t5 -41t12.5 -29t23.5 -11q8 0 17.5 3.5t20.5 8.5q7 3 6.5 -6.5t-8.5 -17.5q-15 -14 -35 -25.5t-39.5 -19t-35.5 -11.5
t-23 -4q-9 0 -21 2.5t-21.5 13t-15.5 32.5t-4 61q2 32 5 63t2 48q0 10 -0.5 23.5t-3.5 26.5t-9.5 22t-17.5 9q-12 0 -28.5 -14t-39.5 -46q-19 -27 -23.5 -52t-5.5 -41l-2.5 -40.5t-3.5 -36.5q-1 -7 -3.5 -12.5t-8.5 -11.5t-16.5 -12.5t-26.5 -13.5q-33 -15 -53 -15
q-8 0 -12.5 3.5t-0.5 11.5q5 13 9.5 52.5t7.5 110.5q0 4 0.5 15t0 23.5t-1.5 25t-3 21.5q-2 14 -8.5 24.5t-15.5 10.5q-11 0 -24.5 -9.5t-29.5 -29.5q-11 -14 -17.5 -24.5t-10.5 -19t-6 -16.5t-5 -16q-3 -11 -5.5 -28t-4 -35t-3.5 -36t-5 -31q-2 -12 -16 -23t-32 -18.5
t-34.5 -12t-23.5 -4.5q-16 0 -8 12q4 6 7 27t5.5 52.5t4.5 72.5l4 86q2 36 -3.5 58t-13.5 31q-3 3 -3 5.5t7 7.5q6 5 19.5 13l28 16t27 13.5t17.5 5.5q13 0 21 -13t11.5 -31t4.5 -36t1 -28q-1 -8 2.5 -8t8.5 5q9 10 23 23t30 26l32 25t30 20q24 14 41 14h1z" />
    <glyph glyph-name="n" unicode="n" horiz-adv-x="505" 
d="M374 387q19 0 30.5 -12t18 -30.5t8 -40.5t0.5 -43q-2 -32 -5 -69.5t-5 -68.5q-1 -42 12 -56.5t27 -14.5q8 0 19 2t21 7q7 3 4.5 -9t-11.5 -20q-14 -11 -30.5 -20.5t-34 -16t-33.5 -10.5t-28 -4q-16 0 -28 6.5t-22 15.5q-21 21 -15 75l2.5 30l3 37.5l3 39l2.5 33.5
q1 15 1 29.5t-3.5 26.5t-10 19t-18.5 7q-14 0 -30.5 -11.5t-30.5 -28.5q-15 -18 -23.5 -41t-13.5 -48.5t-7 -51.5t-4 -48q-2 -19 -6 -30.5t-19 -22.5q-8 -5 -19.5 -11t-24 -11t-24 -8t-18.5 -3q-13 0 -10 10q3 7 6 30t6 56t5 72t2 80q0 29 -3.5 54t-16.5 39q-2 3 -2 5.5
t7 8.5q6 6 20.5 16t30.5 19l29.5 16t17.5 7q9 0 15.5 -11t10.5 -26.5t6 -33.5t2 -32t14 -2q26 22 54 43t55 34q17 8 31 12.5t31 4.5h1z" />
    <glyph glyph-name="o" unicode="o" horiz-adv-x="461" 
d="M313 387q24 0 46.5 -8t40 -25.5t27.5 -45t10 -66.5q0 -32 -7.5 -57t-19.5 -45.5t-27 -36.5t-29 -29q-17 -15 -40.5 -30.5t-50.5 -27.5t-54 -20t-51 -8q-71 0 -103 39.5t-32 106.5q0 60 27 102.5t68 66.5q27 16 45 20q17 5 21 -0.5t-7 -19.5q-19 -22 -26.5 -52.5
t-7.5 -60.5q-1 -68 25.5 -103.5t64.5 -35.5q14 0 27 5.5t24 18.5q13 14 20.5 41.5t7.5 71.5q0 21 -4 44t-13.5 42t-24.5 31.5t-37 12.5q-8 0 -17 -1t-14 -3q-3 -1 -2.5 7.5t9.5 17.5q21 18 48 33t55 15h1z" />
    <glyph glyph-name="p" unicode="p" horiz-adv-x="491" 
d="M344 189q0 15 -3 35.5t-11 38.5t-21.5 31t-33.5 13q-25 0 -47 -19q-20 -16 -29 -36t-13 -49q-5 -34 -7.5 -78t-5.5 -86q0 -11 6 -6l10.5 4t14.5 2q36 -2 61 5t42 28q16 16 26.5 46.5t10.5 69.5v1zM349 387q28 0 50 -11.5t37.5 -30t23.5 -43t8 -50.5q0 -48 -15.5 -85
t-41.5 -66t-60 -51t-71 -40q-29 -14 -57 -21.5t-45 -7.5q-9 0 -10 -12q-3 -32 -3.5 -65.5t-1.5 -62.5q0 -17 4 -32t12 -21q4 -2 3.5 -5.5t-8.5 -9.5q-9 -6 -23 -14t-28.5 -15t-28.5 -12t-23 -5q-13 0 -19.5 23.5t-4.5 79.5q1 17 3 47.5t4 68t4.5 78.5t4.5 77.5l3.5 66
t1.5 44.5q2 48 -3 80t-20 43q-3 2 -4.5 4t3.5 7q6 6 22.5 18t35 23t34.5 19.5t20 8.5q10 0 16 -10t9 -24.5t4.5 -31t1.5 -29.5q0 -8 2 -10.5t10 2.5l36.5 23.5t41.5 24.5t37 19t34 8h1z" />
    <glyph glyph-name="q" unicode="q" horiz-adv-x="480" 
d="M144 166q0 -16 4 -33t12.5 -31.5t22 -23.5t31.5 -9q8 0 21.5 2.5t24.5 10.5q23 17 31 37t13 50q2 13 3 33t1 41t-0.5 40.5t-2.5 31.5q-2 8 -3.5 10t-4.5 1h-8t-10 2q-6 1 -13.5 1.5t-14.5 0.5q-20 0 -36.5 -6.5t-31.5 -22.5q-16 -17 -27.5 -50t-11.5 -84v-1zM24 119
q0 50 18 92.5t62 82.5q15 13 37 28.5t49.5 28.5t60 21.5t70.5 8.5q11 0 22.5 1.5t27.5 8.5q17 8 29 12t20 4q6 0 8.5 -8.5t2.5 -21.5t-1 -27t-1 -24q-3 -48 -7.5 -108.5t-8 -122.5l-6.5 -119t-4 -96q-1 -35 6.5 -54t26.5 -24q6 -3 -1 -12q-8 -8 -22.5 -18.5t-31.5 -21
t-33.5 -17.5t-26.5 -7q-23 0 -29.5 30.5t-5.5 73.5q1 34 2.5 70.5t3 68t3 55.5t1.5 33q1 14 -13 3q-16 -11 -35 -22.5l-36 -22.5q-21 -13 -41.5 -19t-36.5 -6q-17 0 -36 7t-35.5 22t-27.5 39.5t-11 59.5v1z" />
    <glyph glyph-name="r" unicode="r" horiz-adv-x="366" 
d="M147 390q14 0 22 -10.5t12 -25t5.5 -29.5t1.5 -25q0 -8 4 -8t9 5l31.5 33t29.5 27q16 13 29 20.5t28 7.5q20 0 38.5 -16t18.5 -42q0 -22 -18 -41.5t-35 -32.5q-8 -7 -12.5 -7t-6.5 3q-13 14 -30 23.5t-32 9.5q-19 0 -35 -26q-7 -10 -11.5 -31t-8 -46.5t-5.5 -52.5t-3 -48
q-1 -16 -5.5 -31t-18.5 -25q-9 -6 -21.5 -12t-26 -11.5t-25 -8.5t-17.5 -3q-9 0 -8 10q1 12 4 35t5 50l4 53.5t2 46.5q0 34 -1.5 57t-5 38t-9.5 24t-14 15q-8 5 -8 10q0 10 32 28q9 6 20 12t22.5 11.5t21.5 9t16 3.5h1z" />
    <glyph glyph-name="s" unicode="s" horiz-adv-x="353" 
d="M45 233q0 25 13 47t33 39.5t43 31t44 22.5q23 9 44 13.5t37 4.5q21 0 39 -10t18 -28q-1 -13 -14 -28.5t-22 -22.5t-13 -2q-7 13 -28.5 24.5t-49.5 11.5q-17 0 -29 -11t-12 -26q0 -12 9 -21.5t24 -18t35 -16t41 -16.5q29 -11 50.5 -29.5t21.5 -46.5q0 -27 -13.5 -49
t-33.5 -39.5t-42 -30t-39 -19.5q-24 -11 -49 -18t-51 -7q-9 0 -23.5 2.5t-27.5 8t-22.5 13.5t-9.5 20q0 7 6 15t14 15.5t17 14t15 9.5q8 5 12 5t6 -3q3 -7 12 -14.5t21 -13.5t26 -10t29 -4q17 0 33 8.5t16 27.5q0 16 -18 29.5t-59 27.5q-17 6 -31.5 13t-26.5 14
q-45 25 -45 66v1z" />
    <glyph glyph-name="t" unicode="t" horiz-adv-x="325" 
d="M163 -17q-23 0 -48 13t-36 44q-7 17 -8.5 38.5t-1.5 43.5q0 14 1.5 34.5l3 43l3 44.5t3.5 40q1 11 -0.5 14.5t-8.5 4.5q-12 2 -29 2t-23 -2q-8 0 0 12q8 14 24 26t33 17q6 2 8 4.5t3 8.5q1 8 1 18t-0.5 19.5t-1.5 18t-3 12.5q-1 3 -1.5 5t4.5 6q9 7 25 17t31.5 18
t28.5 14t18 6q7 0 11 -9t5.5 -21.5t1 -25.5t-1.5 -21q-2 -14 -2 -29t-2 -26q-1 -11 5 -12l41 -4t41 -2q16 -1 31.5 0t23.5 2q13 2 -1 -17q-19 -23 -46.5 -32.5t-53.5 -9.5q-11 0 -20 0.5t-16 1.5q-6 0 -9 -1.5t-4 -9.5q-1 -7 -2 -19.5t-2 -28t-1.5 -32.5t-0.5 -32
q0 -22 1.5 -43.5t7.5 -39t18 -28t33 -10.5q16 0 35.5 7t31.5 15q5 3 7 -5t-9 -21q-27 -33 -69 -51t-79 -18h-1z" />
    <glyph glyph-name="u" unicode="u" horiz-adv-x="512" 
d="M146 -10q-39 0 -62 30.5t-23 77.5q0 20 2 42.5t4 51.5q2 24 3 44.5t1 43.5q0 35 -16 51q-4 3 -2.5 6.5t12.5 8.5q42 23 68 33.5t38 10.5q10 0 14.5 -14t6 -33t0.5 -39t-2 -32q-2 -12 -3 -28.5t-1.5 -33.5t-1.5 -33.5t-1 -29.5q-1 -34 12 -53t38 -19q17 0 32.5 13t28.5 33
q10 15 13 27t5 26t4 40t3 52q1 25 -1.5 40.5t-7.5 23.5q-2 4 -0.5 7t13.5 10l21.5 11l28 14t28.5 11.5t23 4.5q11 0 13.5 -11.5t1.5 -27.5q-1 -15 -3.5 -42l-5 -56t-4.5 -57t-2 -45q0 -12 0.5 -27.5t4.5 -30t13 -24.5t25 -10q9 0 21.5 2.5t20.5 6.5q7 3 6 -7.5t-11 -19.5
q-11 -10 -26 -20t-32 -18t-35 -13t-33 -5q-19 0 -31.5 7t-21 18.5t-13 26.5t-7.5 30q-3 17 -15 6l-15.5 -13l-21 -17.5l-23.5 -18.5t-21 -14q-17 -10 -30 -14t-32 -4h-1z" />
    <glyph glyph-name="v" unicode="v" horiz-adv-x="422" 
d="M120 389q27 0 45.5 -19.5t32.5 -50.5q8 -17 15 -38l14 -43t12.5 -43.5t10.5 -38.5q3 -10 6 -10t9 8q16 19 27.5 36.5l23.5 37.5q8 14 15 29.5t11 30.5q4 12 4 25t-2 19l-3.5 9t-2.5 8q-2 5 7 11q4 3 11.5 8t16.5 9.5t17.5 8t13.5 3.5q12 0 17 -10.5t6 -24.5
q1 -23 -21 -65t-72 -112q-27 -39 -40 -64t-18 -33q-6 -10 -8.5 -19t-3.5 -15q-3 -11 -19 -23q-5 -4 -17 -10l-25 -12l-23.5 -10.5t-13.5 -4.5q-8 0 -11 9t-5 26q-5 57 -20 122t-39 121q-12 29 -27 45.5t-29 16.5q-9 0 -17 -2t-11 4q-2 3 0 9t11 11q29 20 55.5 30.5
t45.5 10.5h1z" />
    <glyph glyph-name="w" unicode="w" horiz-adv-x="649" 
d="M124 388q33 0 50 -24.5t29 -73.5q10 -40 13.5 -66.5t8.5 -46.5q5 -21 16 -3q8 11 17 28t20 40q11 21 20.5 41.5l13.5 29.5q6 16 19 29.5t27.5 23.5t27 16t18.5 6q4 0 5.5 -4.5t2.5 -10.5q1 -21 5.5 -42.5t11.5 -44.5q8 -28 20.5 -61.5t26.5 -62.5q10 -22 21 -8
q24 29 50 73q11 18 17.5 36.5t8.5 31.5q3 12 1.5 22.5t-6.5 17.5q-2 3 -5 7t-4 6q-2 5 9 14q6 6 15 11.5l17.5 10.5t16 8t11.5 3q9 0 16.5 -8t7.5 -25q0 -25 -15 -59.5t-49 -89.5l-24.5 -39.5t-18 -30l-14 -26l-13.5 -25.5q-8 -15 -12.5 -28.5l-7.5 -22.5q-2 -8 -6.5 -15
t-15.5 -15q-7 -6 -17 -11.5t-20 -9.5t-18.5 -6.5t-12.5 -2.5q-5 0 -7.5 7.5t-4.5 16.5q-1 9 -5.5 29t-12.5 47.5t-19 60t-25 66.5q-9 22 -21 4q-7 -10 -15.5 -25.5l-18 -33.5t-19 -38l-17.5 -38q-7 -16 -8 -29q-2 -15 -18 -27q-5 -5 -14.5 -11t-20 -11t-20.5 -9t-16 -4
t-8.5 10.5t-4.5 24.5q-2 24 -6.5 56.5t-10.5 67t-14 67.5t-17 57q-11 31 -23.5 43t-25.5 12q-6 0 -12.5 -0.5t-8.5 -1.5q-8 -2 -7 4q2 6 6 12.5t13 12.5t22 13t26.5 12t26 8.5t21.5 3.5h1z" />
    <glyph glyph-name="x" unicode="x" horiz-adv-x="479" 
d="M153 387q22 0 37 -9.5t27 -23.5q13 -14 27 -38.5t25 -41.5q6 -12 14 -1q18 23 39.5 47.5t41.5 41.5q16 13 30.5 20t31.5 7t29 -10.5t20 -27.5q4 -11 1 -15t-15 -2q-27 2 -49.5 -5.5t-42 -21.5t-36.5 -33t-32 -38q-5 -8 -5.5 -12.5t4.5 -12.5l30.5 -56.5t31.5 -47.5
q21 -27 37 -38.5t29 -11.5q9 0 24 3.5t29 10.5q5 2 5.5 -6.5t-7.5 -18.5q-9 -9 -23 -20.5t-31.5 -21t-37 -16.5t-39.5 -7q-23 0 -46.5 13t-46.5 49q-11 18 -20.5 36.5l-21.5 41.5q-4 8 -7 7.5t-9 -8.5q-14 -19 -31.5 -40t-36 -39.5t-37 -33.5t-34.5 -21q-17 -7 -30 -7
q-11 0 -20 3t-9 15q0 4 4.5 13t11 18.5t13 17.5t9.5 12q7 10 11 12t12 -1q20 -8 52.5 18t68.5 75q5 8 6 12t-3 12q-7 17 -21.5 41.5t-28.5 43.5q-17 21 -31.5 30.5t-28.5 9.5q-8 0 -17 -2.5t-15 -4.5q-5 -2 -5 6t8 17q9 10 21.5 20.5t26.5 19.5t29 14.5t30 5.5h1z" />
    <glyph glyph-name="y" unicode="y" horiz-adv-x="438" 
d="M144 390q16 0 31.5 -16t25.5 -42l17.5 -51.5t21.5 -76.5q8 -32 16 -56t11 -32q3 -7 8.5 -15t10.5 -8t13 17q10 21 19 50t15 60.5t8.5 62.5t-1.5 55q-1 5 5 11q3 3 13 10.5l22 16t24 14.5t18 6q5 0 8 -4.5t4 -17.5q0 -11 -2.5 -28.5t-7 -37.5t-11 -40.5l-12.5 -38.5
l-37 -96.5t-47 -102.5t-62.5 -104.5t-81.5 -101.5l-34.5 -33t-37 -30.5t-35.5 -22.5t-30 -9q-17 0 -12 20q1 6 10.5 24t21.5 36.5t23.5 32.5t15.5 13q11 -2 21 -3t15 1q13 6 35 29t39 56q5 9 2 14t-10 13q-10 11 -19 38l-17 53q-28 93 -45 143.5t-27 70.5q-9 17 -19 25
t-18 8q-7 0 -18.5 -1.5t-19.5 -4.5q-5 -2 -4 7t11 20t25 22.5t31.5 21.5t33.5 16t32 6h1z" />
    <glyph glyph-name="z" unicode="z" horiz-adv-x="434" 
d="M179 385q11 0 27 -1.5t33 -4l32.5 -5t26.5 -4.5q17 -4 27 -4.5t17 -0.5q11 0 22 7.5t19 14.5q10 8 26 11t25 3q4 0 1 -7t-14 -18l-31 -33l-43.5 -46l-49 -52l-48 -51l-39 -42t-23.5 -25q-8 -9 -7 -11.5t8 -4.5q13 -3 29 -9.5t37 -12.5q22 -7 42 -12t43 -5q28 0 53 15
t42 33q8 8 9 -3.5t-9 -25.5q-33 -48 -77.5 -78t-89.5 -30q-23 0 -54.5 9t-62.5 16q-36 9 -59 9q-17 0 -33 -8.5t-30 -20.5q-7 -6 -10.5 -2.5t-3.5 11.5q1 8 9 23.5t26 32.5l55.5 57l58 62l49 53.5l29.5 32.5q16 18 2 19q-11 0 -21.5 1.5t-22.5 3.5t-29.5 3.5t-28.5 1.5
q-36 0 -62.5 -16t-42.5 -33q-4 -4 -7.5 4.5t3.5 22.5q11 21 26.5 42t34 38.5t40.5 28.5t45 11h1z" />
    <glyph glyph-name="braceleft" unicode="{" horiz-adv-x="335" 
d="M287 606q30 0 31 -6t-8 -14q-6 -5 -10.5 -7t-9.5 -4q-18 -5 -36 -23t-18 -54q0 -14 1.5 -30.5t5.5 -29.5q3 -14 5 -30.5t2 -30.5q0 -22 -8.5 -39.5t-20 -31.5t-24 -23.5t-20.5 -14.5t-7 -8t12 -8q17 -8 31.5 -25t14.5 -41q0 -17 -5 -41.5t-13 -54.5q-7 -29 -10 -47
t-3 -35q0 -23 6.5 -38t17 -24t23.5 -12.5t25 -3.5h16.5t16.5 1q12 3 8 -6t-16 -16q-13 -7 -42.5 -16.5t-59.5 -9.5q-12 0 -26.5 4.5t-27 15t-21 27.5t-8.5 41q0 14 2 33t6 40q8 35 16 66t9 53q2 31 -15 46q-19 17 -68 17q-13 0 -13 6q0 4 5.5 10.5t12.5 11.5q4 4 10 7t14 4
q31 4 53.5 18t22.5 53q-1 17 -4 36.5t-6 32.5q-5 23 -8 45.5t-3 42.5q0 29 12 50.5t32.5 35.5t46 20.5t52.5 6.5h1z" />
    <glyph glyph-name="bar" unicode="|" horiz-adv-x="250" 
d="M165 750v-1000h-80v1000h80z" />
    <glyph glyph-name="braceright" unicode="}" horiz-adv-x="335" 
d="M165 608q41 0 58.5 -26t17.5 -60q0 -25 -7 -55t-18 -63q-18 -54 -18 -76q0 -16 7 -26.5t19.5 -17.5t29 -11t36.5 -7q8 -1 9 -4.5t-4 -8.5q-6 -6 -16 -13t-22 -10q-26 -7 -41 -14.5t-20 -21t-1.5 -35t14.5 -54.5l9 -29.5t4 -32.5q-2 -46 -24 -77t-49 -51
q-25 -17 -55.5 -23.5t-58.5 -6.5q-15 0 -20 2t-5 4q0 6 10 15q5 5 9.5 7.5t12.5 3.5q32 2 56.5 23t26.5 61q1 14 -2 28t-8 34q-5 17 -9 33t-4 33q0 16 7 30.5t16.5 27t20 22.5t19.5 16q12 10 -1 14q-11 4 -21.5 9.5t-18.5 14t-13 21t-5 29.5q0 11 4.5 32.5t13.5 47.5
q13 35 18.5 59t5.5 40q1 15 -2.5 30t-11.5 25q-9 11 -26.5 14.5t-33.5 1.5q-17 -1 -15 7q0 8 25 19q23 10 41.5 14.5t38.5 4.5h1z" />
    <glyph glyph-name="asciitilde" unicode="~" horiz-adv-x="514" 
d="M321 106q-23 0 -49 13t-61 38q-29 22 -43 29.5t-25 7.5q-13 0 -29.5 -12t-27.5 -47q-3 -10 -11 -16.5t-20 -12.5q-8 -4 -8.5 -1t0.5 11q1 14 11.5 41.5t28 55.5t42.5 48.5t56 20.5q25 0 49.5 -16t50.5 -36q51 -37 78 -37q18 0 35 14t27 49q3 8 11 14.5t19 12.5q8 5 8 -10
q-1 -28 -12.5 -57.5t-30.5 -54t-44.5 -40t-53.5 -15.5h-1z" />
    <glyph glyph-name="exclamdown" unicode="&#xa1;" horiz-adv-x="243" 
d="M148 389q3 0 12 -8.5t19 -20.5t18 -25t8 -22t-9 -20.5t-21 -22t-24.5 -20t-20.5 -13.5q-14 -8 -20 -6.5t-12 14.5q-5 11 -16.5 30.5t-25.5 35.5q-5 5 0.5 15.5t32.5 31.5q22 17 38 24t20 7h1zM157 201q13 0 18 -14t4 -39q-1 -23 -2 -49.5t-2.5 -53.5l-3 -52.5t-1.5 -44.5
q-1 -30 11 -44q3 -4 2.5 -5.5t-5.5 -5.5q-4 -3 -22 -10l-39 -14.5t-40.5 -13.5t-25.5 -6q-9 0 -14 6t-6.5 16t-0.5 23t3 26q3 17 8.5 41.5t10.5 50t10 48t7 35.5q4 18 0.5 31.5t-10.5 18.5q-5 4 -4 6t6 8q6 6 17.5 13t25.5 13.5t28 11t24 4.5h1z" />
    <glyph glyph-name="cent" unicode="&#xa2;" horiz-adv-x="466" 
d="M174 250q0 -42 17.5 -67.5t46.5 -33.5q10 -3 11 9l8.5 51t8.5 57.5l8 59t7 55.5q1 11 -10 8q-48 -11 -72.5 -49t-24.5 -89v-1zM52 213q0 46 20 82t52.5 62t72 43.5t78.5 28.5q10 2 11 10q2 13 2.5 29.5t-1.5 22.5q-2 5 -1 8.5t8 8.5l21 14.5t18 8.5q9 0 7 -22.5l-6 -65.5
q-1 -7 5 -5h19q12 0 23.5 -2.5t21 -7t16 -11.5t6.5 -17q0 -11 -9 -22.5t-20 -19.5q-14 -10 -17 -3q-5 12 -19.5 22t-25.5 11q-7 0 -7 -9q-3 -19 -7 -49.5l-8.5 -63.5l-9 -64t-7.5 -49q-2 -11 6 -11q44 2 74 18.5t46 28.5q5 3 6 0.5t1 -7.5q-1 -6 -6.5 -16t-13.5 -19
q-14 -16 -40 -33t-70 -29q-8 -2 -10.5 -5t-4.5 -11q-4 -23 -5.5 -35.5t-1 -19t2.5 -9l5 -6.5q4 -5 2 -6.5t-8 -6.5q-14 -11 -28 -16.5t-19 -5.5q-8 0 -8 11.5t2 22.5q3 17 5 31l5 34q2 8 1 11t-9 3q-30 0 -61 7t-56.5 23t-41.5 41.5t-16 63.5v1z" />
    <glyph glyph-name="sterling" unicode="&#xa3;" horiz-adv-x="466" 
d="M334 519q9 0 20 -3t20 -9t15.5 -14t6.5 -18q0 -11 -12.5 -24.5t-23.5 -20.5q-7 -5 -9.5 -5t-4.5 3q-12 17 -33.5 29t-41.5 12q-19 0 -28 -19.5t-12 -48.5q-1 -7 -1 -20v-28t0.5 -30t0.5 -26q0 -6 1 -9t6 -3q5 -1 15.5 -1.5t27.5 -2.5q13 -2 25 -2h24q11 0 26 0.5t23 2.5
q6 2 5 -3t-10 -14q-15 -14 -37.5 -23.5t-59.5 -9.5h-24.5t-18.5 1q-9 1 -11 -10q-3 -22 -8.5 -39.5t-16 -32.5t-26 -28.5t-39.5 -27.5q-7 -5 -5.5 -8t7.5 -1q9 1 22 1t27.5 -1.5t28 -3.5t23.5 -3q21 -5 49.5 -10t51.5 -5q20 0 35 11t14 32q0 8 -0.5 16t-3.5 17q-2 7 3.5 16
t14.5 18q6 5 15 11.5t15 6.5q8 0 11.5 -12.5t4.5 -26.5q0 -17 -7.5 -35t-18.5 -34.5t-23.5 -30t-22.5 -22.5q-29 -26 -62.5 -39.5t-62.5 -13.5q-11 0 -24.5 3t-28 7t-28.5 8.5t-26 7.5q-24 7 -37.5 9.5t-27.5 2.5q-13 0 -26.5 -5.5t-23.5 -14.5q-6 -5 -12 -8t-9 0
q-2 2 -3 5.5t2 11.5q3 10 10.5 20t16.5 20l36.5 42.5t22.5 36t10 42t-1 61.5q0 11 -9 11q-10 1 -22.5 0.5t-24.5 -2t-23 -4t-17 -5.5q-5 -2 -6 2t6 14q12 19 39 29.5t50 12.5q10 0 10 14q5 56 26.5 92.5t53.5 64.5q15 13 33 24.5t38 20t40.5 13.5t38.5 5h1z" />
    <glyph glyph-name="fraction" unicode="&#x2044;" horiz-adv-x="125" 
d="M310 559q11 0 0 -21q-10 -18 -39 -59l-69 -94l-85.5 -112l-88 -112l-77 -95t-52.5 -60q-9 -10 -22 -19t-25.5 -16.5t-23.5 -12t-16 -4.5q-9 0 -9.5 3.5t10.5 16.5q22 23 52.5 59l65.5 80l72.5 92l73.5 95.5l67.5 90.5l55.5 76q13 19 23 35.5t14 25.5q2 7 14.5 12t23.5 9
q23 10 34 10h1z" />
    <glyph glyph-name="yen" unicode="&#xa5;" horiz-adv-x="466" 
d="M106 512q24 0 45 -10t44 -39q12 -15 21.5 -33t16 -34t10.5 -28.5t5 -18.5q4 -16 11 -4q9 18 24 40t32.5 43.5t36.5 40.5t37 32q14 9 30 15.5t25 6.5q19 0 19.5 -8.5t-10.5 -20.5q-11 -14 -25 -27.5t-23 -13.5q-10 0 -19 -2.5t-20 -14.5q-31 -31 -49 -68t-29 -73
q-2 -6 -0.5 -7.5t7.5 -2.5q26 -3 47 -3.5t47 0.5q6 1 5 -3.5t-8 -11.5q-21 -20 -47 -24t-53 -2q-9 0 -10 -8q-2 -8 -2.5 -19.5t-2.5 -36.5q-1 -7 0.5 -9t8.5 -2q42 -2 66.5 -3.5t44.5 3.5q6 2 4.5 -3t-7.5 -11q-10 -12 -20.5 -19t-23.5 -10.5t-30 -4t-39 0.5q-11 0 -12 -9
q-2 -9 -2 -22.5v-19.5t1.5 -14.5t6.5 -13.5q3 -3 4 -5t-5 -7q-6 -6 -19.5 -13t-29.5 -13.5t-31.5 -10.5t-24.5 -4q-19 0 -19 29q0 8 0.5 19.5t1.5 24.5t2.5 26.5t2.5 25.5q1 7 -0.5 8.5t-8.5 2.5q-11 1 -25.5 2l-28.5 2t-27 0.5t-22 -1.5q-5 -1 -4 4t10 13q24 23 48 25.5
t56 0.5q9 0 10 11q1 17 1.5 31t0.5 25q0 10 -11 10q-32 3 -60 2t-39 -3q-4 -1 -4.5 3t8.5 12q23 22 44 26.5t53 4.5q4 0 5.5 1.5t0.5 7.5q-3 21 -14 45t-27 46t-36.5 37t-42.5 18q-10 2 -19.5 0.5t-14.5 -2.5q-6 -2 -5 6t9 15q19 17 44 32t53 15h1z" />
    <glyph glyph-name="florin" unicode="&#x192;" horiz-adv-x="466" 
d="M394 544q19 0 36.5 -10.5t17.5 -25.5q0 -11 -14 -23.5t-23 -18.5q-8 -4 -12 -5.5t-8 2.5q-13 17 -28 23.5t-23 6.5q-10 0 -16.5 -8t-11.5 -30q-5 -21 -10 -61l-12 -99q-1 -13 6 -13q27 -2 62.5 -3t62.5 -2q20 0 0 -14q-30 -23 -63 -28t-68 -5q-9 0 -10 -11
q-4 -23 -8.5 -57t-11.5 -69q-9 -45 -24.5 -79t-34 -58.5t-39.5 -42.5t-40 -31q-23 -16 -49 -27t-49 -11q-19 0 -37.5 18.5t-22.5 44.5q-3 12 0 17.5t11 -2.5q9 -10 34 -20.5t58 -10.5q15 0 29.5 17t22.5 58q7 34 15 99.5l19 154.5q1 6 0 8.5t-8 2.5h-37.5t-26.5 -2
q-14 -3 -18 -2q-2 2 -0.5 4.5t6.5 9.5q16 18 41.5 28t40.5 12q11 1 12 11q6 42 17.5 74.5t29 58.5t41.5 47.5t56 41.5q23 14 45.5 22t40.5 8h1z" />
    <glyph glyph-name="section" unicode="&#xa7;" horiz-adv-x="413" 
d="M307 116q0 22 -18.5 48.5t-71.5 59.5l-55 36.5t-37 30.5q-5 5 -7.5 5t-6.5 -5q-9 -14 -9 -35q0 -15 7.5 -30.5t21 -30.5t31 -28.5t37.5 -24.5q36 -22 58 -37.5t31 -23.5q3 -2 5.5 -3t4.5 4q5 6 7 15.5t2 17.5v1zM277 509q17 0 33.5 -9.5t16.5 -22.5q0 -6 -4 -12.5
t-9.5 -13t-11.5 -11.5t-9 -8q-9 -7 -15 -3q-11 11 -27.5 17t-35.5 6q-20 0 -35 -9.5t-15 -29.5q0 -13 11 -26.5t27.5 -26t34.5 -23l32 -18.5q40 -24 68 -54t29 -81q0 -26 -6 -48t-14 -38.5t-16 -28t-12 -16.5q-5 -6 -5 -10t2 -9q2 -4 3.5 -12.5t1.5 -16.5q0 -24 -11.5 -44.5
t-27.5 -38t-33.5 -30t-30.5 -19.5q-25 -14 -47.5 -19.5t-45.5 -5.5q-12 0 -26.5 3.5t-27 10.5t-21.5 17t-9 22q0 14 13 28t23 22q8 6 11.5 5.5t6.5 -5.5q14 -21 41.5 -34.5t51.5 -13.5q25 0 44.5 11.5t18.5 39.5q0 19 -18.5 36t-62.5 43q-22 13 -44.5 28t-41.5 33.5t-31 42
t-12 54.5q0 36 15 67.5t38 59.5q7 9 5 17q-1 3 -1 8.5v11.5q0 32 20 64t62 58q20 13 47 22.5t49 9.5h1z" />
    <glyph glyph-name="currency" unicode="&#xa4;" horiz-adv-x="466" 
d="M221 350q-18 0 -31.5 -10t-22 -25.5t-12.5 -33t-4 -32.5q0 -23 8 -43.5t21 -36t29 -24.5t31 -9q18 0 30.5 7.5t20 20.5t11 28.5t3.5 32.5q0 18 -4.5 39.5t-14 40.5t-25.5 32t-39 13h-1zM266 402q19 0 35.5 -5.5t21.5 -9.5q9 -8 18 0q8 9 19.5 19t25.5 19t29 15t29 8
q21 2 23 -2t-8 -15q-5 -5 -16 -17.5l-23.5 -27l-24 -28l-16.5 -19.5q-5 -7 -3 -13.5l5 -16.5q3 -8 5.5 -18t2.5 -27q0 -28 -11 -52.5t-26 -41.5q-7 -7 1 -14q5 -6 12.5 -14l15 -16t14 -16t9.5 -12q8 -11 6 -22t-9 -22l-11.5 -12t-14.5 -14t-11.5 -6t-8.5 9q-4 6 -11.5 15.5
t-16.5 19.5l-17.5 19t-13.5 13q-13 9 -25 4q-14 -6 -31 -12t-33 -6q-25 0 -47 10q-12 6 -20.5 1.5t-16.5 -10.5q-6 -5 -17 -13l-22.5 -17l-22.5 -17.5t-17 -12.5q-8 -5 -11.5 -5.5t-3.5 6.5q-1 9 2 24.5t8 23.5q4 7 10.5 15l12.5 16t11.5 14.5t7.5 9.5q5 5 2.5 12t-5.5 12
q-5 10 -8.5 24.5t-3.5 34.5q0 39 18 67.5t35 47.5q9 10 1 19q-4 5 -11.5 12.5t-16.5 15l-17.5 14.5l-14.5 12q-4 2 -3.5 6.5t7.5 14.5q6 8 13 15.5t13 12.5q12 11 31 -3q25 -18 42 -36t23 -23q4 -5 8 -5t7 2q3 1 10 4t16 6t19 5.5t19 2.5h1z" />
    <glyph glyph-name="quotesingle" unicode="'" horiz-adv-x="186" 
d="M134 616q10 0 16.5 -5.5t9.5 -14.5t4 -19.5t0 -20.5q-1 -9 -4.5 -25t-9 -35t-13 -39.5t-16.5 -39.5q-4 -9 -12 -17.5t-17 -16t-19 -13.5l-17 -10q-9 -4 -11 0t0 15q2 12 3.5 28.5l3 34.5t2 35.5t0.5 30.5q0 19 -1.5 36.5t-8.5 25.5q-5 6 3 14.5t39 21.5l26.5 9.5
t20.5 4.5h1z" />
    <glyph glyph-name="quotedblleft" unicode="&#x201c;" horiz-adv-x="390" 
d="M260 354q-14 0 -24 8t-16.5 20t-9.5 25.5t-3 25.5q0 33 15 63.5t37.5 55t48.5 41.5t48 23q16 4 22.5 -2t-2.5 -14q-29 -23 -50.5 -56t-21.5 -67q0 -24 9 -37.5t22 -21.5q6 -4 -0.5 -16t-26.5 -26q-30 -22 -47 -22h-1zM91 354q-14 0 -24 8t-16.5 20t-9.5 25.5t-3 25.5
q0 33 15 63.5t37.5 55.5t49 42t48.5 23q20 5 25 -1.5t-2 -12.5q-31 -25 -53.5 -58.5t-22.5 -67.5q0 -24 9.5 -37.5t20.5 -21.5q7 -4 0.5 -16t-26.5 -26q-30 -22 -47 -22h-1z" />
    <glyph glyph-name="guillemotleft" unicode="&#xab;" horiz-adv-x="480" 
d="M317 207q0 -4 7.5 -14.5t18.5 -21.5l22.5 -19.5t28 -22.5l27.5 -21l20 -15q5 -3 2 -9.5t-11 -12.5q-4 -5 -9.5 -10t-14.5 -12q-10 -8 -20 -6t-16 4q-13 6 -34 21t-42 33.5t-39 37.5t-25 32q-10 18 6 37t36.5 37.5t42.5 35.5t44 31.5l40 25.5q11 7 23.5 9.5t17.5 1.5
q5 -2 0.5 -12t-16.5 -22q-5 -4 -19 -16.5l-30 -26.5l-29.5 -26.5t-16.5 -15.5q-5 -5 -9.5 -11t-4.5 -11v-1zM135 204q0 -11 7.5 -24.5t17.5 -27.5q15 -20 39.5 -44t45.5 -40q11 -9 -6 -23q-5 -5 -11.5 -10t-14.5 -10t-19.5 -5.5t-22.5 5.5q-14 8 -31.5 23t-34 33t-31 37.5
t-23.5 37.5q-8 16 -5 28t12 24q4 6 14.5 16.5l24.5 24l30.5 28.5t32.5 28q15 12 31.5 21.5t31.5 15.5t27 9.5t19 3.5q10 0 1 -17.5t-45 -41.5q-24 -17 -47 -37t-31 -28q-12 -14 -12 -26v-1z" />
    <glyph glyph-name="guilsinglleft" unicode="&#x2039;" horiz-adv-x="308" 
d="M135 204q0 -11 7.5 -24.5t17.5 -27.5q15 -20 38.5 -44.5t45.5 -39.5q5 -4 4 -10t-10 -14q-5 -5 -12 -9.5t-14 -9.5q-20 -12 -41 0q-14 8 -31.5 23t-34 33t-31 37.5t-23.5 37.5q-8 16 -5 28.5t12 23.5q4 6 14.5 17l24.5 24.5t30.5 28l32.5 27.5q31 25 61.5 39t44.5 14
q5 0 4.5 -6t-6 -15t-15.5 -20t-24 -21q-12 -8 -24.5 -17.5t-23 -19l-18.5 -17l-12 -11.5q-12 -14 -12 -26v-1z" />
    <glyph glyph-name="guilsinglright" unicode="&#x203a;" horiz-adv-x="327" 
d="M113 343q18 0 47.5 -22.5t63.5 -56.5q31 -31 41 -46l15 -22q3 -8 2 -14t-7 -14q-14 -19 -39.5 -42t-52 -44t-49.5 -37t-32 -21q-14 -8 -32 -9.5t-26 2.5q-11 3 -7 9.5t13 12.5q11 9 28 25l35 33.5l34 34t24 27.5q11 13 4 25q-2 4 -14 18t-28.5 31t-35.5 34t-34 28
q-6 4 -6 8t8 13q10 10 23 18.5t24 8.5h1z" />
    <glyph glyph-name="endash" unicode="&#x2013;" horiz-adv-x="500" 
d="M141 243q31 0 66 -0.5l71 -1l71.5 -1t67.5 -0.5h51q12 0 0 -16q-22 -33 -48 -42.5t-64 -9.5q-61 0 -120 0.5t-120 0.5q-25 0 -43 -0.5t-26 -1.5q-6 -1 -6.5 2.5t5.5 14.5q16 24 36 39.5t58 15.5h1z" />
    <glyph glyph-name="dagger" unicode="&#x2020;" horiz-adv-x="460" 
d="M268 482q14 0 17 -19.5t2 -44.5q0 -9 -1.5 -27l-3 -36t-2.5 -32t-1 -17q0 -8 14 -8q12 0 28 -0.5l32.5 -1t33 -0.5t29.5 2q11 2 13 -3t-11 -18q-17 -17 -32 -26t-31 -13t-33.5 -4h-39.5q-7 0 -9 -2t-4 -11q-2 -14 -4.5 -40.5l-5.5 -59t-6 -69t-4 -69.5q-1 -21 3.5 -41
t12.5 -31q3 -5 -0.5 -9t-18.5 -14q-17 -11 -32.5 -18t-22.5 -7q-5 0 -8.5 1.5t-6 8t-3.5 18.5t-1 33q1 29 1.5 68t1.5 80.5l2 81t3 69.5q0 8 -1.5 9.5t-7.5 2.5q-11 1 -28 2t-35.5 1t-36 -1t-27.5 -4q-8 -2 -8 2.5t8 14.5q13 16 25.5 26t27.5 15.5t33 7.5t41 1q14 -1 14 13
q3 43 1 76t-11 47q-2 4 -2.5 6t7.5 8q8 7 20 13t25 10t24 6.5t18 2.5h1z" />
    <glyph glyph-name="daggerdbl" unicode="&#x2021;" horiz-adv-x="483" 
d="M265 486q11 0 13.5 -5t6.5 -16q3 -9 4 -24t0.5 -33.5t-2 -38t-2.5 -36.5q-1 -10 10 -10q42 -4 76.5 -4.5t54.5 2.5q11 1 2 -15q-8 -15 -18.5 -24t-26.5 -14t-39.5 -6.5t-57.5 0.5q-5 0 -6.5 -2.5t-2.5 -10.5l-3 -23l-4 -30.5l-3.5 -28t-1.5 -14.5q-1 -5 2.5 -6.5
t9.5 -2.5q15 -2 37 -4t45 -3t45.5 -0.5t38.5 4.5q5 2 3.5 -3.5t-6.5 -15.5q-12 -19 -32.5 -28.5t-44 -13t-48 -3t-45.5 0.5q-5 1 -7.5 -0.5t-3.5 -9.5q-1 -4 -3 -17.5t-4 -31t-3.5 -36t-1.5 -31.5t6.5 -30t12.5 -27q4 -4 3 -6t-7 -7q-11 -8 -29 -16.5t-26 -8.5t-14 2.5
t-11 11.5q-10 20 -7 97q2 43 2.5 67.5t1.5 36.5q1 10 -8 10q-11 1 -30 1.5t-38.5 0.5t-37 -1.5t-26.5 -4.5q-6 -2 -8.5 -1t-0.5 8q2 8 7.5 21t22.5 26q19 14 48.5 15t61.5 1q8 0 10.5 1.5t3.5 9.5l2 30t1 28.5t0.5 24t0.5 15.5q1 6 -2 7.5t-9 2.5q-35 4 -66 4t-53 -5
q-8 -2 -9.5 0t5.5 11q12 18 24.5 28t27.5 15.5t33.5 7t42.5 1.5q8 0 8 12q2 38 0.5 64.5t-9.5 37.5q-5 6 -4 8.5t6 7.5q4 3 15.5 8t24.5 9t24.5 7t16.5 3h1z" />
    <glyph glyph-name="periodcentered" unicode="&#xb7;" horiz-adv-x="208" 
d="M130 270q7 0 15 -20q3 -6 8 -15l10 -18t10 -16.5l7 -10.5q13 -15 -7 -30q-5 -4 -16 -13.5l-23.5 -19.5t-25 -17.5t-18.5 -7.5q-7 0 -15.5 8t-16 19t-13.5 21.5t-9 16.5q-7 16 -3 31t32 38q22 19 40 26.5t24 7.5h1z" />
    <glyph glyph-name="paragraph" unicode="&#xb6;" horiz-adv-x="520" 
d="M285 113q8 0 12.5 0.5t5.5 11.5q0 4 1.5 24t2.5 46.5t1.5 54.5t-0.5 48l-2 69q0 12 -6 14q-5 2 -16 2q-17 0 -28 -16t-17 -39t-8 -49t-1 -45q0 -12 2 -32.5t7 -40t16 -34t29 -14.5h1zM55 209q0 49 16 84t39 58t49 36.5t47 20.5q9 3 22 6.5t25.5 6.5l23 5.5t14.5 2.5
q9 0 11 9q0 5 7 11.5t16.5 12.5t19.5 10t16 4q5 0 7.5 -9.5t3.5 -23.5q0 -10 10 -11q9 -1 23 -1.5t29 -0.5t29 1.5t22 3.5q9 2 9 -1.5t-7 -13.5q-18 -27 -44.5 -34t-62.5 -7q-9 1 -9 -7v-13.5t1 -28.5q0 -13 -1 -41t-2 -59t-2 -57.5t-1 -35.5t9 -6q6 2 14.5 5.5l13.5 5.5
q9 5 10 0.5t-7 -16.5q-9 -14 -20 -23t-19 -13q-6 -4 -8 -18q-4 -37 -14 -76t-26 -70q-13 -25 -32.5 -48.5t-44.5 -41.5t-54 -29t-61 -11q-14 0 -28 4t-25 12.5t-18 20.5t-7 28q0 13 6.5 26t12.5 21q7 10 13 -2q6 -11 17 -20t24 -15.5t26.5 -10t24.5 -3.5q12 0 27 3
t29.5 12.5t28 27t23.5 46.5q5 13 8.5 30.5t5.5 34t3 30.5t1 20t-2 6.5t-8 -1.5q-14 -4 -35.5 -7t-44.5 -3q-37 0 -66 12t-48.5 32.5t-29.5 48t-10 59.5v1z" />
    <glyph glyph-name="bullet" unicode="&#x2022;" horiz-adv-x="332" 
d="M201 319q10 0 24 -33q9 -20 23.5 -46.5t27.5 -44.5q9 -13 4.5 -20.5t-18.5 -22.5q-6 -7 -22 -20t-34.5 -26t-37 -23t-30.5 -10q-13 0 -28.5 15.5t-29 36t-22.5 40.5t-10 29q-2 6 9.5 25t43.5 47q35 31 61.5 42t37.5 11h1z" />
    <glyph glyph-name="quotesinglbase" unicode="&#x201a;" horiz-adv-x="211" 
d="M122 148q15 0 26 -8.5t17.5 -21t9.5 -27t3 -26.5q0 -36 -16 -69.5t-40 -60t-52.5 -44.5t-52.5 -24q-17 -4 -23 2t8 17q32 26 51 59t19 71q0 26 -7.5 40t-19.5 22q-11 7 -3 19.5t29 27.5q31 23 50 23h1z" />
    <glyph glyph-name="quotedblbase" unicode="&#x201e;" horiz-adv-x="398" 
d="M309 148q15 0 26 -8.5t17.5 -21.5t10 -27.5t3.5 -27.5q0 -36 -16 -69t-40 -59.5t-52.5 -44.5t-52.5 -24q-17 -4 -23.5 2.5t7.5 17.5q12 10 25 24t23.5 31.5t17 36.5t6.5 39q0 26 -8.5 39.5t-20.5 21.5q-11 7 -3.5 19.5t29.5 27.5q31 23 50 23h1zM122 148q15 0 26 -8.5
t17.5 -21.5t10 -27.5t3.5 -27.5q0 -36 -16 -69t-40 -59.5t-52 -44.5t-52 -24q-17 -4 -24 2.5t7 17.5q13 10 25.5 24t23 31t17 36.5t6.5 39.5q0 26 -8 39.5t-20 21.5q-11 7 -3.5 19.5t28.5 27.5q31 23 50 23h1z" />
    <glyph glyph-name="quotedblright" unicode="&#x201d;" horiz-adv-x="390" 
d="M304 616q14 0 24 -8t16.5 -20t9.5 -25.5t3 -25.5q0 -34 -14.5 -64.5t-36.5 -54.5t-48 -41t-48 -23q-6 -2 -13 -2t-11.5 2t-4 6.5t9.5 11.5q12 9 24 22.5t22 30t16.5 34t6.5 34.5q0 24 -9.5 38t-20.5 22q-6 5 -0.5 15t25.5 24q14 11 26.5 17.5t21.5 6.5h1zM135 616
q14 0 24 -7.5t16.5 -19t9.5 -25t3 -25.5q0 -34 -14.5 -64.5t-36.5 -55.5t-48 -42t-48 -23q-20 -5 -26 1.5t8 17.5q12 9 24 22.5t21.5 29.5t16 33.5t6.5 34.5q0 24 -11.5 38.5t-19.5 21.5q-15 10 26 39q14 11 26.5 17.5t21.5 6.5h1z" />
    <glyph glyph-name="guillemotright" unicode="&#xbb;" horiz-adv-x="519" 
d="M330 332q22 0 42 -17t42 -38q23 -21 36.5 -38.5t17.5 -24.5q3 -6 2.5 -14t-6.5 -16l-19 -19t-37 -34.5l-48 -41t-52 -39.5q-12 -8 -22.5 -12.5t-17.5 -4.5q-5 0 -10.5 0.5t-10.5 4.5q-9 9 12 25q6 5 20 18.5l30.5 29.5t31.5 32.5t23 27.5q9 14 3 25q-5 9 -14 22t-20 25.5
t-22 23.5t-19 17q-9 7 -13 11t7 15q11 10 23.5 16t19.5 6h1zM116 343q18 0 47.5 -22.5t63.5 -56.5q31 -31 42 -46.5t15 -23.5t1.5 -13t-8.5 -13q-14 -19 -39 -42t-52 -44t-50 -37t-32 -21q-14 -8 -32.5 -11t-26.5 1q-7 2 -7 6.5t14 15.5q11 9 28.5 25.5l35.5 34.5l34 35
t24 27q10 13 4 26q-2 4 -11.5 16.5t-23.5 27.5t-30 30.5t-32 25.5q-18 11 -21 16.5t1 10.5q10 10 26.5 21t27.5 11h1z" />
    <glyph glyph-name="ellipsis" unicode="&#x2026;" horiz-adv-x="802" 
d="M656 -17q-9 0 -18.5 6t-17.5 15.5t-13 22t-5 26.5q0 11 4 19t16 19q13 11 35 20.5t35 9.5q4 0 7.5 -3.5t8.5 -14.5t11.5 -28.5t11.5 -28.5t2 -17.5t-16 -16.5q-6 -5 -15 -10t-18 -9t-16.5 -7t-10.5 -3h-1zM121 -17q-9 0 -18.5 5.5t-17.5 15.5t-13 22t-5 26q1 24 25 43
q15 13 33 19.5t29 6.5q4 0 7.5 -3t8.5 -14l13 -30t13 -28q6 -10 3.5 -17t-16.5 -18q-15 -11 -32.5 -19.5t-28.5 -8.5h-1zM379 -17q-6 0 -12.5 5t-12.5 12.5t-10.5 15t-7.5 13.5q-6 14 -3.5 26t11.5 23q11 12 28.5 24t30.5 18q11 6 17.5 4t13.5 -12q8 -11 17.5 -26.5
l18.5 -30.5q5 -8 -3.5 -19t-28.5 -28q-20 -15 -34.5 -20t-23.5 -5h-1z" />
    <glyph glyph-name="perthousand" unicode="&#x2030;" horiz-adv-x="1026" 
d="M904 301q22 0 37 -9.5t24 -24.5t12.5 -32.5t3.5 -32.5q0 -44 -13.5 -76.5t-32.5 -55.5t-40 -38t-37 -23q-17 -9 -35.5 -15.5t-35.5 -6.5t-34.5 4t-32 15.5t-23.5 32t-9 52.5q0 23 6.5 44t16.5 38.5t23 31t25 21.5l23 13.5t20 10.5q12 4 15.5 -2t-4.5 -15q-11 -12 -21 -37
t-10 -65q0 -25 6 -43t14.5 -29t18.5 -16.5t18 -5.5q18 0 29 12.5t16.5 30.5t7 38.5t1.5 36.5q0 45 -12 65.5t-21 24.5l-12.5 4t-12.5 0q-5 -1 -6.5 5t6.5 14q11 12 31 22.5t37 10.5h1zM593 301q22 0 37 -9.5t24 -24.5t12.5 -32.5t3.5 -32.5q0 -44 -13.5 -76.5t-32.5 -55.5
t-40 -38t-37 -23q-17 -9 -36 -15.5t-36 -6.5t-34.5 4t-32 15.5t-23.5 32t-9 52.5q0 23 6.5 44t16.5 38.5t23 31t25 21.5l23 13.5t20 10.5q13 4 16.5 -2t-5.5 -15q-11 -12 -21 -37t-10 -65q0 -25 6 -43t15 -29t19 -16.5t18 -5.5q18 0 29 12.5t16.5 30.5t7 38.5t1.5 36.5
q0 45 -12 65.5t-21 24.5l-12.5 4t-12.5 0q-5 -1 -7 5t6 14q12 12 32 22.5t37 10.5h1zM269 506q20 0 29 -7.5t14 -12.5q6 -5 12 -8.5t11 -5.5q14 -5 26.5 -8t32.5 -3q57 0 91 12t45 26q8 11 8 16q1 8 5 11t12 8q10 4 27 11.5t25 7.5q9 0 7 -9t-7 -21q-3 -7 -11.5 -19.5
t-19.5 -27l-23.5 -30t-22.5 -29.5l-35 -42.5l-51.5 -61l-54 -63.5l-44.5 -51l-92 -107.5l-56 -69.5q-11 -13 -16 -22.5t-3 -17.5q1 -6 -1 -10t-10 -8q-5 -3 -12.5 -5.5t-16 -4.5t-16 -3t-10.5 -1q-10 0 -12 11q0 5 5.5 15.5t15.5 24.5q8 11 33 41.5t79 90.5l69.5 77.5l71 82
l64.5 78l50 64.5q4 5 1 6.5t-8 -0.5q-14 -7 -32 -12t-36.5 -8t-35.5 -3.5t-29 0.5q-9 1 -11.5 -1.5t-2.5 -7.5v-16q0 -29 -10 -55t-25 -47.5t-33 -37.5t-33 -26q-23 -14 -46.5 -23t-45.5 -9q-45 0 -70.5 28t-25.5 76q0 58 30.5 103t84.5 68q19 7 19 -1t-6 -15
q-19 -23 -28 -48.5t-9 -62.5q0 -51 18.5 -74.5t40.5 -23.5q14 0 24.5 8t16.5 21q5 10 10 33t5 54q0 9 -1.5 25t-6 31t-13 26t-22.5 11h-15q-5 -1 -4.5 5.5t8.5 14.5q10 11 29.5 21.5t41.5 10.5h1z" />
    <glyph glyph-name="questiondown" unicode="&#xbf;" horiz-adv-x="368" 
d="M222 388q9 0 20 -8.5t20 -21t15 -26t6 -23.5q0 -5 -11.5 -17t-28 -24.5t-34 -22t-30.5 -9.5q-5 0 -8 6.5t-7 17.5q-5 15 -13 28l-14 22q-7 8 -5.5 15t15.5 21l15.5 12.5t20 14t20.5 11t18 4.5h1zM140 -152q-19 0 -37.5 5.5t-33.5 16.5t-24.5 27.5t-9.5 39.5q0 20 9 37
t22.5 32.5t29 29t28.5 26.5q43 38 43 61q0 22 -18 28q-6 2 -11.5 2.5t-12.5 0.5q-11 0 -2.5 11.5t23.5 19.5q13 8 31 14t39 6q24 0 39.5 -16.5t16.5 -33.5q0 -15 -8.5 -30.5t-19.5 -30.5l-29.5 -37t-26.5 -34q-10 -13 -13.5 -24t-3.5 -27q0 -13 14 -28t35 -15
q28 0 55.5 13.5t50.5 30.5q3 2 5.5 -6.5t-7.5 -21.5q-11 -17 -32 -35.5t-50 -35.5q-23 -14 -50.5 -20t-50.5 -6h-1z" />
    <glyph glyph-name="grave" unicode="`" horiz-adv-x="300" 
d="M112 600q7 0 10 -15q4 -14 12 -27q13 -27 30.5 -56t34.5 -49q10 -10 8.5 -13.5t-12.5 -7.5t-21 -2t-22 7q-16 7 -32 18.5t-30 23.5t-25 23.5t-16 19.5q-10 14 -10 30q1 12 12.5 23t22.5 16q9 5 20 7t17 2h1z" />
    <glyph glyph-name="acute" unicode="&#xb4;" horiz-adv-x="300" 
d="M287 596q14 0 11 -9.5t-11 -20.5q-6 -9 -18.5 -24l-27 -31t-28.5 -29.5t-24 -20.5q-14 -10 -32.5 -16.5t-37.5 -11.5q-13 -3 -12.5 2.5t8.5 18.5l12.5 19t17.5 28.5l18.5 32t16.5 30.5q5 12 29 19q19 5 40.5 9t36.5 4h1z" />
    <glyph glyph-name="circumflex" unicode="&#x2c6;" horiz-adv-x="300" 
d="M170 601q13 0 30 -20q8 -8 20 -27.5t23 -41.5q11 -20 14.5 -30.5t4.5 -15.5q0 -14 -21 -27q-17 -10 -26 -10q-7 0 -11 12q-4 9 -12.5 25.5t-16.5 30.5q-4 5 -7.5 10t-7.5 5q-5 0 -12 -9l-12.5 -13l-15.5 -16l-15.5 -15t-12.5 -11q-8 -6 -19.5 -9.5t-16.5 -3.5
q-4 0 -8.5 1t-6.5 4q-2 2 3 10.5t14 18.5q7 7 19 23.5l24.5 34.5l23.5 34t16 22q13 18 28 18h1z" />
    <glyph glyph-name="tilde" unicode="&#x2dc;" horiz-adv-x="300" 
d="M123 575q17 0 30 -14.5t27 -28.5q9 -9 16.5 -14.5t14.5 -5.5q8 0 17 8.5t17 22.5q3 5 7.5 11.5l7.5 10.5q6 9 11 9q9 0 9 -16t-8 -36.5t-20.5 -38.5t-29.5 -30.5t-36 -12.5q-17 0 -30 12l-30 29q-18 19 -27 19q-5 0 -11.5 -5.5l-13.5 -12t-12.5 -13.5t-7.5 -10
q-7 -13 -15 -13q-5 0 -7.5 5.5t2.5 19.5q4 11 13 29t20.5 34.5t25.5 28.5t29 12h1z" />
    <glyph glyph-name="macron" unicode="&#xaf;" horiz-adv-x="300" 
d="M122 525q31 0 70.5 -0.5t71.5 -0.5q3 0 3.5 -5t-7.5 -16q-17 -23 -31 -33.5t-44 -10.5q-31 0 -70.5 0.5t-71.5 -0.5q-11 -2 0 16q14 24 31.5 37t46.5 13h1z" />
    <glyph glyph-name="breve" unicode="&#x2d8;" horiz-adv-x="300" 
d="M157 503q26 0 44 15.5t31 38.5q7 11 16 18t18 7q4 0 4.5 -6.5t-2.5 -16.5q-8 -26 -28 -55.5t-43 -45.5q-32 -21 -70 -21t-63.5 24.5t-25.5 62.5q0 20 14 34.5t31 22.5q8 3 11.5 2.5t3.5 -10.5q-1 -32 16 -51t42 -19h1z" />
    <glyph glyph-name="dotaccent" unicode="&#x2d9;" horiz-adv-x="300" 
d="M188 585q8 0 7 -21q-2 -19 3.5 -37t14.5 -29q6 -8 5 -12t-9 -10q-5 -4 -14 -10t-19 -12t-19.5 -10t-14.5 -4q-6 0 -15 5.5t-18 16t-15.5 27t-6.5 37.5q0 7 12.5 17t29 19.5t33 16t25.5 6.5h1z" />
    <glyph glyph-name="dieresis" unicode="&#xa8;" horiz-adv-x="300" 
d="M73 573q4 0 11 -5.5t15 -12.5l13 -13t10 -11q5 -5 6.5 -11.5t-3.5 -17.5q-3 -7 -10.5 -16t-17.5 -17t-21 -13.5t-21 -5.5q-5 0 -13.5 5.5t-17 14t-14.5 18.5t-6 19q0 10 8.5 21.5t19.5 21.5t22.5 16.5t17.5 6.5h1zM254 575q5 0 18 -19q5 -8 14.5 -22t16.5 -23q4 -5 4 -10
t-11 -15q-6 -6 -14 -12t-17 -11t-17.5 -8.5t-14.5 -3.5q-13 0 -29 13t-22 35q-5 19 6.5 32.5t24.5 24.5q12 8 23.5 13.5t16.5 5.5h1z" />
    <glyph glyph-name="ring" unicode="&#x2da;" horiz-adv-x="300" 
d="M147 571q-20 0 -31.5 -14t-11.5 -37q0 -20 13.5 -32t29.5 -12q24 0 35 12t11 33q0 17 -11 33.5t-34 16.5h-1zM172 618q37 0 54.5 -24t17.5 -59q0 -22 -11 -41.5t-27.5 -34.5t-37 -23.5t-40.5 -8.5q-10 0 -22.5 3.5t-24 12.5t-19.5 23.5t-8 36.5t11 43t28 37t37.5 25.5
t40.5 9.5h1z" />
    <glyph glyph-name="cedilla" unicode="&#xb8;" horiz-adv-x="300" 
d="M202 -134q0 -22 -15.5 -40.5t-36.5 -32.5t-43.5 -22t-37.5 -8q-11 0 -14.5 3.5t-3.5 8.5q0 3 3.5 8t13.5 10q7 4 16.5 8.5t18.5 10.5t15 13t6 16q0 8 -12 21t-24 24q-16 13 -16 26q0 11 7 24q20 29 37.5 45l28.5 26q11 8 19.5 10.5t21.5 2.5q5 0 5 -3t-2 -6
q-3 -4 -10 -12l-14 -16.5t-12 -16.5t-5 -12q2 -11 13 -21q4 -5 11 -12t13.5 -15.5t11.5 -18.5t5 -20v-1z" />
    <glyph glyph-name="hungarumlaut" unicode="&#x2dd;" horiz-adv-x="300" 
d="M202 595q16 0 -3 -32q-12 -23 -36.5 -50.5t-53.5 -53.5q-14 -11 -30.5 -18.5t-30.5 -7.5q-9 0 -9.5 3.5t6.5 11.5q4 4 13.5 19.5l20.5 34.5l20 36t12 24q2 7 10 11t13 6q4 1 13 4t19 5.5t19.5 4.5t15.5 2h1zM346 595q11 0 9.5 -7.5t-11.5 -24.5q-13 -23 -37.5 -51
t-53.5 -54q-14 -11 -31 -18t-28 -7q-8 0 -10.5 2.5t6.5 12.5q3 4 13 19t20.5 33t19.5 35t11 26q5 11 22 16q14 5 35.5 11.5t33.5 6.5h1z" />
    <glyph glyph-name="ogonek" unicode="&#x2db;" horiz-adv-x="300" 
d="M95 -271q-34 0 -56.5 21.5t-22.5 59.5q0 34 18 65.5t45 58.5t57.5 49l54.5 38q6 4 14 6t13 2t7 -2.5t-4 -7.5q-58 -51 -84 -90.5t-26 -71.5q0 -24 13 -36t31 -12q20 0 45 8t45 23q6 5 7.5 -4t-6.5 -21q-12 -19 -29 -35t-37 -27t-41.5 -17.5t-42.5 -6.5h-1z" />
    <glyph glyph-name="caron" unicode="&#x2c7;" horiz-adv-x="300" 
d="M132 435q-8 0 -14 16q-5 11 -13 25t-17.5 28t-19.5 26.5t-19 20.5q-15 13 -6 22l11.5 11.5t11.5 9.5q16 10 31 -1q13 -10 29 -27.5t21 -24.5q9 -12 19 -3q6 6 15.5 14.5t21 17.5t22.5 16.5t19 10.5q12 7 19.5 7t7.5 -5q0 -17 -16 -37l-24 -29l-25.5 -31l-23.5 -28.5
t-17 -21.5t-15 -12.5t-17 -4.5h-1z" />
    <glyph glyph-name="emdash" unicode="&#x2014;" horiz-adv-x="925" 
d="M146 243h50.5t81.5 -0.5t102.5 -0.5t112.5 -0.5t112.5 -0.5t102.5 -0.5t82 -0.5h51h48q14 0 4 -13q-22 -29 -48 -42t-64 -13h-71.5h-118.5t-142.5 0.5t-142.5 0.5h-119h-72q-25 0 -42.5 -0.5t-25.5 -1.5q-6 0 -7 5t6 13q17 23 39.5 38.5t59.5 15.5h1z" />
    <glyph glyph-name="AE" unicode="&#xc6;" horiz-adv-x="742" 
d="M345 284q10 0 11 11q1 9 2.5 27t3 38t2 38t-0.5 29q0 5 -3.5 5t-7.5 -6q-7 -11 -21.5 -30.5l-30 -40.5l-30 -40t-20.5 -28q-10 -13 6 -10q9 2 34.5 4.5t53.5 2.5h1zM588 509q28 0 53 0.5t42 2.5q8 1 6.5 -5t-15.5 -18q-47 -39 -114 -39h-34.5t-33.5 1q-13 0 -13 -11
q1 -12 0.5 -30t-2 -37.5l-3 -39t-2.5 -35.5q-1 -9 1.5 -11.5t9.5 -3.5q16 -2 44 -4t70 -2q32 0 60 2t43 4q4 1 4.5 -2t-8.5 -13q-4 -5 -12.5 -12t-21 -14.5t-29.5 -13.5t-39 -8q-26 -3 -54 -3h-67q-12 0 -13 -16q-2 -11 -2.5 -27.5t0.5 -36.5q0 -26 7.5 -42t24 -25t42 -12
t63.5 -3q48 0 82 5t57 13q5 2 5.5 -4t-13.5 -20q-8 -8 -19.5 -17.5t-34 -18.5t-59 -15t-94.5 -6q-64 0 -95 3.5t-42 7.5q-22 7 -32 26q-14 24 -12.5 68.5t7.5 110.5q1 10 -0.5 13t-8.5 4q-9 2 -27.5 2.5t-30.5 -0.5q-32 -1 -56 -8t-41 -27q-16 -17 -30.5 -41t-23.5 -50
q-8 -25 -8.5 -43.5t4.5 -29.5q3 -8 -10 -14q-5 -3 -14.5 -7l-20.5 -8.5t-20.5 -7.5t-14.5 -3q-20 0 -21 23q0 36 53 117q12 18 30.5 43.5l39.5 54l42.5 58l40.5 55l33.5 45t20.5 29.5q11 17 16 31t6 23q0 6 1 9.5t6 8.5q3 3 9.5 8l13.5 10.5t13.5 9t9.5 3.5q5 0 11 -10
q2 -4 10 2q5 4 11.5 7t14.5 3h16t24 -2q8 -1 23 -2t34.5 -2t42 -2t43.5 -1h1z" />
    <glyph glyph-name="ordfeminine" unicode="&#xaa;" horiz-adv-x="368" 
d="M157 235q5 0 11 2t11 4q5 4 6 9l2 10q2 10 2 19.5t1 17.5q1 10 -10 7q-10 -2 -23 -5t-20 -6q-18 -9 -18 -26q0 -13 10.5 -22.5t26.5 -9.5h1zM237 456q16 0 26.5 -7.5t16.5 -19.5t8 -26.5t2 -27.5q0 -8 -1 -21.5l-2 -28l-2 -28.5t-1 -23q-1 -20 5.5 -32t23.5 -12
q14 0 27 5q5 2 6.5 -4.5t-7.5 -15.5q-14 -14 -38.5 -25t-54.5 -11q-20 0 -33.5 10.5t-19.5 22.5q-4 7 -11 3q-19 -11 -43 -21t-38 -10q-24 0 -42.5 14.5t-19.5 40.5q-1 23 15 37.5t33 24.5q24 14 44.5 21t49.5 15q13 4 14 10q1 7 1.5 14.5t-0.5 15.5q0 12 -7.5 19.5
t-21.5 7.5q-9 0 -21.5 -4.5t-26 -10t-25.5 -11.5t-19 -9q-8 -4 -12 -1.5t1 12.5q5 11 11.5 20t17.5 14t30 12.5t40 14t41 11t32 4.5h1z" />
    <glyph glyph-name="Oslash" unicode="&#xd8;" horiz-adv-x="622" 
d="M328 53q52 0 85 34q20 20 36.5 62.5t16.5 109.5q0 33 -4 59t-12 40q-4 8 -6.5 9.5t-7.5 -3.5l-106 -127l-109 -128q-6 -7 -5 -11t6 -9q22 -22 51 -29t54 -7h1zM401 526q25 0 46 -4.5t36 -12.5q7 -2 9 -1t6 6q5 6 11 15.5l11 17.5q3 5 6 8.5t12 8.5q14 8 30 11.5t22 3.5
q15 0 4 -18q-8 -16 -21.5 -33.5l-31.5 -40.5q-8 -10 0 -19q32 -35 40 -73t8 -86q0 -63 -26 -117t-64 -90q-23 -21 -51.5 -42t-60 -37.5t-65 -26.5t-66.5 -10q-30 0 -57 4.5t-50 15.5q-8 3 -10.5 2t-8.5 -7q-7 -8 -16.5 -17.5t-16.5 -15.5q-11 -11 -31 -18.5t-40 -7.5
q-7 0 -9 2.5t6 12.5t22.5 24.5t40.5 44.5q5 7 4.5 10.5t-6.5 8.5q-25 23 -38.5 61t-13.5 90q0 37 10.5 76t33 74.5t58 65t86.5 49.5q9 4 19.5 2t5.5 -9q-2 -5 -7 -9.5t-11 -11.5q-11 -11 -23 -26t-21.5 -38.5t-15.5 -56.5t-6 -81q0 -21 5 -44.5t13 -37.5q3 -6 6 -5t9 8
l54.5 62l56.5 66l54.5 65.5l50.5 60.5q5 6 4.5 9.5t-5.5 8.5q-16 17 -37 24.5t-42 7.5q-17 0 -32.5 -3.5t-28.5 -7.5q-5 -2 -5.5 6t11.5 20q23 24 56.5 39.5t68.5 15.5h1z" />
    <glyph glyph-name="OE" unicode="&#x152;" horiz-adv-x="821" 
d="M340 478q-26 0 -49 -7t-43 -21q-14 -10 -28 -26t-25 -40t-18.5 -57.5t-7.5 -79.5q0 -53 15 -91t37 -62t48 -35t47 -11q25 0 49 6.5t42 21.5q4 3 7 8t3 12l2.5 32t2.5 38t2 36t2 28q0 5 -0.5 7t-7.5 3q-20 4 -11 17q13 17 17.5 28.5t6.5 21.5q1 12 3 32.5t3 42.5t1 42
t-2 31q-3 11 -8 6q-8 -8 -16 -2q-10 8 -27 13.5t-44 5.5h-1zM387 527q26 0 41 -5t20 -8q7 -5 13 1q8 8 25 8q11 0 54.5 -4.5t122.5 -4.5q46 0 70 -0.5t33 -1.5q16 -1 -5 -20q-23 -18 -50.5 -28.5t-70.5 -11.5q-7 0 -17.5 -0.5t-21 -0.5h-19.5h-13q-5 0 -7.5 -2t-2.5 -10
q0 -10 -1 -26.5t-2.5 -35.5t-2.5 -37t-2 -31q-1 -8 1.5 -9.5t9.5 -2.5q13 -2 45.5 -3.5t74.5 -1.5q22 0 40.5 0.5t32.5 1.5q9 1 9 -4q0 -9 -13.5 -20t-30.5 -19q-41 -21 -94 -21h-32.5t-37.5 1q-6 1 -8 -1t-3 -10q-1 -11 -1.5 -25.5l-1 -30t0 -30t1.5 -23.5q3 -23 16.5 -33
t33.5 -14q38 -7 110 -7q16 0 32.5 1.5t32 3.5t28 4.5t19.5 4.5q3 1 4 -4.5t-12 -17.5q-7 -6 -21.5 -16t-36.5 -19t-52.5 -15.5t-69.5 -6.5q-40 0 -74.5 1.5t-69.5 5.5q-10 2 -15 -2l-10.5 -6t-8.5 -2q-7 0 -15 12t-11 25q-5 17 -15 10q-34 -18 -76 -34t-88 -16
q-101 0 -156.5 52.5t-55.5 155.5q0 60 20 108t52 85.5t73.5 65.5t85.5 46q68 28 122 28h1z" />
    <glyph glyph-name="ordmasculine" unicode="&#xba;" horiz-adv-x="379" 
d="M259 456q40 0 65 -26t25 -76q0 -27 -10.5 -49.5t-27.5 -40t-39 -31.5t-45 -24q-8 -4 -20 -8.5t-25 -8t-26 -6t-22 -2.5q-51 0 -79 27t-28 74q0 27 10 49t26 38t35.5 26.5t38.5 14.5q11 2 15 -1.5t-4 -13.5q-14 -16 -18.5 -36t-4.5 -42q0 -33 17.5 -60t49.5 -27q18 0 29 8
t18 20.5t9.5 28t2.5 30.5q0 13 -4 28t-11.5 28t-19.5 21.5t-28 8.5h-7.5t-9.5 -1q-5 -2 -3.5 6t13.5 17q15 11 34.5 19.5t42.5 8.5h1z" />
    <glyph glyph-name="ae" unicode="&#xe6;" horiz-adv-x="589" 
d="M181 59q12 0 21.5 7l19.5 15q7 6 9 14t1 16q-2 13 -1.5 25.5t0.5 23.5q0 7 -3 9.5t-12 0.5q-17 -3 -27 -6.5t-21 -8.5q-18 -8 -26 -22t-8 -28q0 -19 14.5 -32.5t31.5 -13.5h1zM416 329q-15 0 -27.5 -10.5t-21.5 -26t-14.5 -32.5t-5.5 -30q0 -10 11 -9q14 1 30.5 6
t30.5 13t23 20t9 29q0 15 -8 27.5t-26 12.5h-1zM385 -10q-37 0 -69.5 12.5t-55.5 45.5q-8 11 -18 4l-28 -18.5t-34 -20.5t-35.5 -16.5t-32.5 -6.5q-35 0 -60.5 21.5t-26.5 55.5q0 17 7.5 33t17.5 26q13 13 33.5 25.5t43.5 23.5t45.5 19.5t40.5 14.5q19 5 20 16q1 8 1.5 19
t-0.5 23q-1 22 -11 39.5t-30 17.5q-16 0 -33 -6t-34 -15l-33.5 -18.5t-31.5 -15.5q-19 -7 -14 5q8 17 17 33t26 25q12 6 35 16.5t49 20.5t51 17t41 7q26 0 44 -16t23 -41q2 -8 5.5 -8t9.5 5l29.5 17.5t35 18t37.5 14t36 5.5q21 0 36 -7t25 -17.5t15 -22.5t5 -23
q1 -30 -21 -50.5t-48 -35.5q-29 -16 -63 -27.5t-73 -22.5q-11 -3 -14.5 -7t-3.5 -10q2 -45 32 -73.5t75 -28.5q21 0 43.5 7t42.5 22q8 5 19.5 9.5t21.5 5.5q13 0 11 -5.5t-13 -19.5q-15 -17 -37.5 -33.5t-48 -29.5t-53 -21t-51.5 -8h-1z" />
    <glyph glyph-name="dotlessi" unicode="&#x131;" horiz-adv-x="266" 
d="M176 388q9 0 13.5 -9.5t6 -23.5t0.5 -30t-2 -28q-2 -18 -4 -40.5t-3.5 -45.5l-3 -46t-1.5 -41q-1 -20 2 -32.5t7.5 -20t11 -10t12.5 -2.5q7 0 19 2t24 7q8 3 6 -9t-14 -20q-41 -29 -76.5 -41.5t-58.5 -12.5q-27 0 -43 25t-12 81l2.5 34t3.5 42t3.5 43.5t3.5 38.5
q2 33 -3 51.5t-11 27.5q-2 3 -1 6t12 9q13 8 28.5 16t30 14.5t27 10.5t19.5 4h1z" />
    <glyph glyph-name="oslash" unicode="&#xf8;" horiz-adv-x="461" 
d="M233 51q13 0 27 5.5t27 20.5q12 16 22 42t10 79q0 18 -2 31t-4 21q-4 11 -10 4l-63 -82.5l-64 -83.5q-7 -9 0 -16q10 -11 25 -16t31 -5h1zM436 240q0 -29 -7.5 -54t-19 -46t-26 -37.5t-28.5 -28.5q-17 -15 -41 -30.5t-50.5 -28t-54 -20t-51.5 -7.5q-9 0 -20.5 2.5
t-20.5 6.5q-9 3 -16 -6q-8 -11 -15 -19.5t-15 -16.5q-7 -8 -25.5 -17t-39.5 -13q-7 -1 -4 5t11 16l11.5 13.5l11 13.5l12.5 16l17 21q2 5 2.5 9t-4.5 9q-12 11 -25.5 37.5t-13.5 69.5q0 63 27.5 104.5t65.5 65.5q12 7 26 12.5t25 7.5q14 2 17 -4.5t-5 -15.5
q-23 -26 -32.5 -59.5t-9.5 -71.5q0 -16 2.5 -27t4.5 -19q3 -11 10 -1l64 84l60 79q5 6 4.5 9t-2.5 6q-7 7 -20 12t-25 5q-19 0 -29 -3q-6 -2 -6 5.5t11 18.5q20 20 43 32t49 12q10 0 19.5 -2t16.5 -4q9 -4 15 6q14 20 18.5 25.5l10.5 12.5q10 8 27 12t26 4q8 0 6 -5
q-1 -3 -6 -11t-12 -18l-15 -21l-14 -20q-7 -10 0 -15q19 -16 29.5 -44t10.5 -66v-1z" />
    <glyph glyph-name="oe" unicode="&#x153;" horiz-adv-x="670" 
d="M505 335q-16 0 -29 -11t-22.5 -27.5t-15 -35.5t-5.5 -36q-1 -8 1 -10t9 0q15 2 32.5 8.5t32 17t24.5 24.5t10 31q0 15 -8.5 27t-27.5 12h-1zM302 388q32 0 54.5 -16.5t33.5 -42.5q7 -18 19 -9q38 29 79 48.5t74 19.5q42 0 65.5 -21t23.5 -53q0 -33 -23 -56.5t-56 -40
t-68.5 -27t-60.5 -16.5q-8 -2 -10 -4.5t-2 -9.5q0 -23 10 -40.5t26 -29.5t34 -18t35 -6q22 0 44 7.5t38 16.5q11 6 21 13l20 14q5 3 6.5 0.5t1 -7.5t-2.5 -12t-5 -11q-12 -16 -31 -33.5t-43.5 -31.5t-55 -23.5t-64.5 -9.5q-41 0 -69 16t-49 47q-7 11 -17 4q-13 -9 -33 -20.5
t-43 -22t-47 -18t-45 -7.5q-25 0 -53.5 8.5t-48.5 31.5q-12 14 -24 37.5t-12 61.5q0 51 20.5 96t62.5 75q11 8 24 15.5t29 12.5q18 6 21.5 0t-5.5 -16q-19 -20 -27 -50.5t-8 -74.5q0 -32 7.5 -59t20.5 -44q11 -14 27 -23t35 -9q34 0 56 23q30 32 30 112q0 23 -4.5 47
t-15 43.5t-28 32t-41.5 12.5q-6 0 -15 -0.5t-15 -2.5q-7 -2 -6 7t12 20q23 20 45.5 32t51.5 12h1z" />
    <glyph glyph-name="germandbls" unicode="&#xdf;" horiz-adv-x="495" 
d="M360 646q43 0 72.5 -24.5t29.5 -66.5q0 -23 -8.5 -41.5t-21 -34.5t-28 -30.5l-29.5 -28.5q-10 -10 -15.5 -17t-8 -12.5t-3 -10t-0.5 -9.5q0 -11 14 -32t42 -44q31 -27 49 -54.5t18 -64.5q0 -22 -7 -41t-17 -35t-21 -27.5t-20 -18.5q-14 -12 -30.5 -24t-35.5 -21.5
t-39.5 -16t-40.5 -6.5q-13 0 -27.5 5.5t-14.5 18.5q0 5 6 13t15 17q9 8 19 14.5t16 4.5q8 -4 20.5 -7t26.5 -3q16 0 26.5 5.5t17 13t9.5 16.5t3 17q0 14 -9.5 31.5t-32.5 37.5l-31 29t-21 21q-20 20 -29.5 36t-9.5 36q0 19 8.5 37t22 35.5t29.5 34t30 33.5q30 36 30 81
q0 35 -22 57t-47 22q-31 0 -49.5 -23t-27.5 -50q-6 -18 -11.5 -44.5t-10 -65t-7.5 -91t-4 -123.5q-2 -66 3 -100t13 -46q2 -5 0 -8t-11 -9q-11 -8 -26 -16.5t-30 -15.5t-28 -11t-19 -4q-11 0 -18 14.5t-7 52.5q0 57 2.5 119t6.5 117q1 7 -3.5 12.5t-27.5 13.5q-7 2 -8.5 3.5
t3.5 8.5l14.5 16.5t16.5 17.5q5 5 9 11t6 14q3 22 12 49.5t26 56.5t43.5 57.5t64.5 51.5q42 26 73 36t59 10h1z" />
    <glyph glyph-name="logicalnot" unicode="&#xac;" horiz-adv-x="550" 
d="M429 289q26 0 34 -23t6 -53q0 -8 -1.5 -27t-3.5 -41t-3.5 -41.5t-2.5 -26.5q-2 -14 -6.5 -26t-13.5 -17q-6 -4 -17.5 -8l-23.5 -8q-16 -5 -18.5 -3t-0.5 13q3 12 5 32l4 42t3.5 41.5t1.5 30.5q2 18 -0.5 27.5t-5.5 11.5q-6 7 -32 10q-14 1 -47 2t-93 1q-62 0 -93.5 -3
t-48.5 -6q-7 -2 -9 -0.5t4 11.5q3 6 9 14.5t14 17t16 15t16 9.5q13 5 35 6.5t61 1.5q68 0 112 -1.5t76 -1.5h23z" />
    <glyph glyph-name="mu" unicode="&#xb5;" horiz-adv-x="532" 
d="M204 -12q-11 0 -19.5 3.5t-13.5 8.5q-12 12 -15 -8q-8 -52 -8.5 -90.5t1.5 -62.5q2 -18 7 -25t9 -9q8 -6 -3 -16l-16 -12t-26.5 -18.5t-28.5 -17t-22 -7.5q-14 0 -18.5 25.5t-2.5 60.5q1 19 3.5 49.5l5.5 66.5l6 75.5l6 77t5 70t3 55.5q1 26 2 43.5t1 29.5v19v13
t3.5 12.5t14.5 11.5q43 21 69.5 29.5t35.5 8.5q8 0 6.5 -20.5t-9.5 -70.5q-5 -30 -7.5 -65.5t-2.5 -67.5q0 -15 3 -30.5t9.5 -28t16.5 -20.5t24 -8q20 0 37 12.5t28 35.5q6 14 10 26.5t6 26.5q3 14 5 34.5t3.5 40t2.5 35.5t0 22q-2 18 5.5 28.5t24.5 18.5q25 11 52 20t39 9
q8 0 3 -26q-3 -14 -6.5 -39.5t-7 -55.5t-5.5 -61.5t-2 -57.5q0 -37 10.5 -58t29.5 -21q11 0 27.5 5t30.5 13q8 4 7.5 -5t-8.5 -19q-6 -8 -22 -21t-38.5 -26t-48 -22t-49.5 -9q-20 0 -33.5 14.5t-18.5 31.5q-3 11 -4 18.5t-2 18.5q0 16 -14 0q-26 -29 -51 -50t-49 -21h-1z
" />
    <glyph glyph-name="trademark" unicode="&#x2122;" horiz-adv-x="461" 
d="M389 335q-9 0 -17 9t-10 17q-5 15 -3 40q1 10 1.5 19.5t1.5 18.5q0 10 -5 4l-6.5 -10l-10 -16l-11 -17.5l-8.5 -13.5q-7 -10 -9 -14.5t-2 -7.5q-1 -3 -6.5 -9t-13.5 -11q-8 -4 -14 -4q-4 0 -8.5 11t-9.5 25q-2 7 -6 16t-8.5 18l-8 16.5t-4.5 10.5q-5 9 -9 1
q-2 -5 -4.5 -14.5t-6.5 -23.5q-2 -10 -2.5 -19.5t-0.5 -13.5q0 -7 -4 -11q-7 -7 -19 -10.5t-14 -3.5q-9 0 -4 17l5 15t7 19t7.5 20l5.5 16q11 29 14 44t11 23q3 3 9 6.5t13.5 6.5t13.5 5t9 2q5 0 3 -8q0 -8 2.5 -18t11.5 -31l15.5 -31t7.5 -12q4 -7 12 2q4 5 9.5 13.5
l11.5 17.5t11 18.5t9 15.5q6 11 25 20.5t33 12.5q5 1 5.5 -2t-1.5 -7q-4 -4 -5 -18q-1 -8 -2 -27.5t-1 -40.5q0 -17 1.5 -26t5 -13.5t7.5 -5.5t8 -1q7 0 16 3t15 6q5 4 5.5 -2t-8.5 -17q-3 -4 -11.5 -9t-18.5 -9.5t-20.5 -8t-18.5 -3.5h-1zM77 342q-11 0 -11 18q0 23 4 55.5
t6 58.5q1 7 -5 7q-16 0 -28 -1.5t-18 -6.5q-8 -7 -10 -1.5t6 14.5q13 14 29.5 21t45.5 7q11 0 25 -1.5l32 -3.5q15 -2 25.5 -2.5t22.5 1.5q5 1 5 -2.5t-7 -10.5q-13 -14 -30.5 -16t-33.5 0q-5 0 -6 -4q-3 -18 -5.5 -43.5t-1.5 -45.5q0 -8 1 -13t3 -9q1 -2 0 -4.5t-8 -6.5
q-10 -5 -22.5 -8t-17.5 -3h-1z" />
    <glyph glyph-name="plusminus" unicode="&#xb1;" horiz-adv-x="550" 
d="M134 69q30 0 69.5 -2t87.5 -4t91.5 -2h69.5q46 1 60 3q11 1 4 -14q-8 -18 -23.5 -28.5t-34.5 -15t-40 -5.5t-41 -1q-63 0 -123.5 1t-99.5 2q-32 2 -63.5 2t-48.5 -2q-16 -2 -2 20q14 23 36 34.5t57 11.5h1zM325 502q6 0 6.5 -11.5t0.5 -25.5q0 -8 -1.5 -26l-3 -36.5
t-3 -33.5t-1.5 -18q-1 -10 12 -10q43 -1 87.5 -3t82.5 4q4 1 4.5 -1.5t-4.5 -10.5q-16 -31 -45.5 -42t-61.5 -11q-17 0 -37 0.5t-34 1.5q-8 0 -10 -2.5t-3 -8.5q-2 -16 -3 -35t-1 -36.5t2 -31.5t7 -20q3 -5 1 -7.5t-10 -7.5q-13 -8 -25.5 -13t-22.5 -5q-11 0 -17.5 13
t-5.5 43q1 24 2.5 53.5t3.5 47.5q1 8 -0.5 9.5t-6.5 1.5q-20 1 -43.5 1.5t-45.5 0.5t-41 -1t-31 -3q-5 -1 -3.5 4.5t6.5 13.5q20 26 47.5 38t71.5 11l40 -1q8 0 11 2t4 10q5 40 4.5 71t-1.5 38q0 5 3.5 8.5t18.5 11.5q12 7 25.5 12t19.5 5h1z" />
    <glyph glyph-name="divide" unicode="&#xf7;" horiz-adv-x="550" 
d="M270 103q5 0 10 -6t10 -13q5 -8 14 -20.5t18 -21.5q2 -2 1 -8t-9 -15q-4 -4 -11.5 -10t-16.5 -12t-18 -10t-15 -4q-11 0 -23.5 11t-20.5 32q-7 17 0 29t24 27q11 10 22 15.5t14 5.5h1zM133 231q18 0 47 -1t61 -1.5t62 -1.5t50 -1h44h47.5t40 0.5t23.5 0.5q2 0 4.5 -2.5
t-8.5 -16.5q-12 -16 -26 -25.5t-33.5 -15t-45 -7t-60.5 -1.5q-30 0 -71 1t-82.5 2.5t-78.5 2t-58 0.5q-8 0 -7.5 4.5t5.5 12.5q14 22 36.5 35.5t48.5 13.5h1zM297 402q4 0 10.5 -7t13.5 -13l20 -20t9 -17q0 -9 -9.5 -20t-22 -21.5t-24.5 -17.5t-16 -7q-5 0 -13 6.5t-16 16
t-14 19.5t-6 17q0 9 5.5 16t17.5 18q17 17 28 23.5t16 6.5h1z" />
    <glyph glyph-name="degree" unicode="&#xb0;" horiz-adv-x="310" 
d="M161 469q-32 0 -50.5 -20.5t-18.5 -52.5q0 -33 20 -50t49 -17t45.5 19.5t16.5 48.5q0 12 -3 24.5t-9.5 23t-18.5 17.5t-30 7h-1zM183 526q47 0 73 -32.5t26 -77.5t-24.5 -74.5t-56.5 -48.5q-20 -12 -37 -16.5t-31 -4.5t-31 5.5t-32.5 17.5t-26 32t-10.5 49q0 43 23 75
t49 49q41 26 77 26h1z" />
    <glyph glyph-name="registered" unicode="&#xae;" horiz-adv-x="316" 
d="M170 425q0 10 -6.5 15.5t-13.5 5.5q-5 0 -7 -1t-2 -5q0 -8 -0.5 -18.5t-1.5 -15.5t4 -5q8 0 18 5q3 2 6 6.5t3 11.5v1zM163 462q26 0 33 -11t7 -19q-2 -17 -18 -27q-5 -4 -3 -8q8 -18 19 -32q5 -6 11 -8.5t9 -2.5q5 0 4.5 -3t-4.5 -5q-2 -1 -11 -4t-17 -3q-12 0 -21.5 10
t-18.5 27q-7 11 -11 11t-5 -7q-2 -6 -2 -13.5t1 -12.5q2 -5 -9 -12t-20 -7q-7 0 -6 12q2 14 4.5 36.5t3.5 39.5q1 14 -3 14q-2 -1 -5.5 -1.5t-5.5 -1.5q-5 -2 -4 1t4 6q5 6 18 11q25 10 49 10h1zM169 498q-22 0 -42.5 -8t-36.5 -22.5t-25.5 -34.5t-9.5 -43q-2 -42 23.5 -66
t65.5 -24q51 0 80.5 31t29.5 82q0 41 -22.5 63t-61.5 22h-1zM192 526q9 0 25.5 -4.5t33 -16.5t28.5 -33t12 -54q0 -11 -3 -25.5t-10.5 -30t-20.5 -31.5t-34 -30q-22 -14 -45.5 -22.5t-43.5 -8.5q-54 0 -84.5 31.5t-30.5 74.5q1 46 31 80.5t69 52.5q20 9 38.5 13t33.5 4h1z
" />
    <glyph glyph-name="copyright" unicode="&#xa9;" horiz-adv-x="596" 
d="M345 389q24 0 38.5 -10t14.5 -18q0 -10 -11.5 -21t-19.5 -13q-5 -1 -5.5 0t-3.5 3q-12 10 -25.5 13.5t-21.5 3.5q-29 0 -48 -24t-19 -62q0 -36 22 -60t57 -24q29 0 53 9.5t40 20.5q5 5 6 -2.5t-7 -15.5q-24 -26 -60 -45.5t-79 -19.5q-45 0 -75 25.5t-30 70.5
q0 29 10 52.5t25 41.5t33.5 31t35.5 22q48 22 69 22h1zM323 466q-38 0 -78.5 -14.5t-74 -43t-55 -71t-21.5 -97.5q0 -45 14.5 -80.5t40.5 -60.5t63 -38t81 -13q41 0 78.5 17t66 47t45.5 70t17 85q0 42 -10 78.5t-31.5 63t-55 42t-79.5 15.5h-1zM362 510q21 0 54 -7t64 -29.5
t53 -64.5t22 -111q0 -41 -11.5 -77.5t-30 -68t-42.5 -56.5t-48 -42q-12 -8 -29.5 -18t-39.5 -18.5t-47 -14t-51 -5.5q-44 0 -83 14t-68.5 42t-46.5 69t-17 95q0 44 13 81t34 67.5t48 54t55 41.5q13 8 32.5 16.5t42 15.5t47 11.5t48.5 4.5h1z" />
    <glyph glyph-name="Aacute" unicode="&#xc1;" horiz-adv-x="609" 
d="M466 703q35 0 0 -38q-21 -23 -50 -45t-58 -38q-20 -11 -39.5 -15.5t-31.5 -4.5q-13 0 -17 5.5t3 12.5l17.5 18l23.5 25.5l22.5 25.5t15.5 19q7 10 13.5 14t17.5 8q20 7 45 10t37 3h1zM289 224q7 0 9 1.5t-1 9.5q-11 35 -19 65.5t-11 40.5q-5 18 -15 2q-7 -11 -15.5 -26.5
l-18 -32l-18.5 -33l-16 -29.5q-4 -5 -2.5 -7.5t9.5 -0.5q16 3 45.5 6.5t51.5 3.5h1zM472 -19q-16 0 -30 2.5t-27.5 10.5t-26.5 22.5t-25 38.5q-11 22 -22 50l-20 53q-3 8 -7 10t-15 2q-45 0 -82.5 -3t-56.5 -9q-8 -3 -13.5 -7t-10.5 -12q-7 -11 -12.5 -25.5t-9 -30t-4.5 -30
t1 -26.5q0 -3 -3.5 -7t-14.5 -10q-18 -11 -37.5 -18t-26.5 -7q-8 0 -12 5.5t-5 19.5q0 11 8.5 33t23.5 50q14 26 40.5 69.5l59.5 95.5l29.5 46l30 50t25.5 47.5t17 38.5q5 14 10.5 23.5t15.5 17.5l24.5 19t26.5 24q7 8 14.5 11.5t12.5 3.5q4 0 4 -14q0 -8 -0.5 -21t1.5 -23
q2 -23 9.5 -56t18 -67.5t21.5 -67t21 -53.5q3 -5 6 -7t11 -2q22 0 50 -3t45 -6q15 -2 14.5 -6.5t-8.5 -12.5q-13 -11 -35.5 -18.5t-40.5 -9.5q-11 -1 -13.5 -1.5t2.5 -11.5q4 -11 9.5 -23t18.5 -33q20 -35 40 -47.5t39 -12.5q8 0 19.5 0.5t19.5 2.5q12 3 12 -4
q0 -4 -3.5 -10t-12.5 -12q-8 -5 -22.5 -11.5t-32 -12.5t-36.5 -10.5t-34 -4.5h-1z" />
    <glyph glyph-name="Acircumflex" unicode="&#xc2;" horiz-adv-x="609" 
d="M347 699q14 0 28 -16l19.5 -25.5l28.5 -37.5q10 -13 13.5 -19t3.5 -11q0 -11 -26 -25q-17 -7 -26 -7q-6 0 -12 9l-12.5 16l-16.5 22q-5 5 -10 9t-8 4t-6.5 -2t-9.5 -6q-7 -5 -25 -17t-32 -20q-12 -7 -23 -9t-16 -2t-11 1.5t-8 3.5q-4 7 18 23l21.5 19.5l28.5 26l29 27
l22 21.5q16 15 29 15h1zM289 224q7 0 9 1.5t-1 9.5q-11 35 -19 65.5t-11 40.5q-5 18 -15 2q-7 -11 -15.5 -26.5l-18 -32l-18.5 -33l-16 -29.5q-4 -5 -2.5 -7.5t9.5 -0.5q16 3 45.5 6.5t51.5 3.5h1zM472 -19q-16 0 -30 2.5t-27.5 10.5t-26.5 22.5t-25 38.5q-11 22 -22 50
l-20 53q-3 8 -7 10t-15 2q-45 0 -82.5 -3t-56.5 -9q-8 -3 -13.5 -7t-10.5 -12q-7 -11 -12.5 -25.5t-9 -30t-4.5 -30t1 -26.5q0 -3 -3.5 -7t-14.5 -10q-18 -11 -37.5 -18t-26.5 -7q-8 0 -12 5.5t-5 19.5q0 11 8.5 33t23.5 50q14 26 40.5 69.5l59.5 95.5l29.5 46l30 50
t25.5 47.5t17 38.5q5 14 10.5 23.5t15.5 17.5l24.5 19t26.5 24q7 8 14.5 11.5t12.5 3.5q4 0 4 -14q0 -8 -0.5 -21t1.5 -23q2 -23 9.5 -56t18 -67.5t21.5 -67t21 -53.5q3 -5 6 -7t11 -2q22 0 50 -3t45 -6q15 -2 14.5 -6.5t-8.5 -12.5q-13 -11 -35.5 -18.5t-40.5 -9.5
q-11 -1 -13.5 -1.5t2.5 -11.5q4 -11 9.5 -23t18.5 -33q20 -35 40 -47.5t39 -12.5q8 0 19.5 0.5t19.5 2.5q12 3 12 -4q0 -4 -3.5 -10t-12.5 -12q-8 -5 -22.5 -11.5t-32 -12.5t-36.5 -10.5t-34 -4.5h-1z" />
    <glyph glyph-name="Adieresis" unicode="&#xc4;" horiz-adv-x="609" 
d="M245 679q6 0 13 -8t15 -15l13 -12.5t10 -8.5q9 -7 5 -21q-3 -9 -12.5 -19.5t-21 -19.5t-23 -15t-18.5 -6q-8 0 -17 5.5t-17 14t-13.5 18t-5.5 17.5q0 10 8.5 22t20 22.5t23.5 18t19 7.5h1zM420 679q7 0 19 -19q5 -8 15 -20t18 -20q5 -5 4 -12t-12 -18q-5 -5 -13 -11
t-17 -11.5t-17.5 -9.5t-13.5 -4q-14 0 -31 13t-22 36q-5 19 7 34t26 25q14 11 22.5 14t13.5 3h1zM289 224q7 0 9 1.5t-1 9.5q-11 35 -19 65.5t-11 40.5q-5 18 -15 2q-7 -11 -15.5 -26.5l-18 -32l-18.5 -33l-16 -29.5q-4 -5 -2.5 -7.5t9.5 -0.5q16 3 45.5 6.5t51.5 3.5h1z
M472 -19q-16 0 -30 2.5t-27.5 10.5t-26.5 22.5t-25 38.5q-11 22 -22 50l-20 53q-3 8 -7 10t-15 2q-45 0 -82.5 -3t-56.5 -9q-8 -3 -13.5 -7t-10.5 -12q-7 -11 -12.5 -25.5t-9 -30t-4.5 -30t1 -26.5q0 -3 -3.5 -7t-14.5 -10q-18 -11 -37.5 -18t-26.5 -7q-8 0 -12 5.5t-5 19.5
q0 11 8.5 33t23.5 50q14 26 40.5 69.5l59.5 95.5l29.5 46l30 50t25.5 47.5t17 38.5q5 14 10.5 23.5t15.5 17.5l24.5 19t26.5 24q7 8 14.5 11.5t12.5 3.5q4 0 4 -14q0 -8 -0.5 -21t1.5 -23q2 -23 9.5 -56t18 -67.5t21.5 -67t21 -53.5q3 -5 6 -7t11 -2q22 0 50 -3t45 -6
q15 -2 14.5 -6.5t-8.5 -12.5q-13 -11 -35.5 -18.5t-40.5 -9.5q-11 -1 -13.5 -1.5t2.5 -11.5q4 -11 9.5 -23t18.5 -33q20 -35 40 -47.5t39 -12.5q8 0 19.5 0.5t19.5 2.5q12 3 12 -4q0 -4 -3.5 -10t-12.5 -12q-8 -5 -22.5 -11.5t-32 -12.5t-36.5 -10.5t-34 -4.5h-1z" />
    <glyph glyph-name="Agrave" unicode="&#xc0;" horiz-adv-x="609" 
d="M353 566q-11 0 -28 5t-36 13t-37 17.5t-30 18.5q-27 20 -28 33q-2 17 14 33t32 24q20 10 27 0q9 -15 23.5 -31.5t31 -32.5t32.5 -29.5t28 -22.5q14 -9 2 -18q-12 -10 -30 -10h-1zM289 224q7 0 9 1.5t-1 9.5q-11 35 -19 65.5t-11 40.5q-5 18 -15 2q-7 -11 -15.5 -26.5
l-18 -32l-18.5 -33l-16 -29.5q-4 -5 -2.5 -7.5t9.5 -0.5q16 3 45.5 6.5t51.5 3.5h1zM472 -19q-16 0 -30 2.5t-27.5 10.5t-26.5 22.5t-25 38.5q-11 22 -22 50l-20 53q-3 8 -7 10t-15 2q-45 0 -82.5 -3t-56.5 -9q-8 -3 -13.5 -7t-10.5 -12q-7 -11 -12.5 -25.5t-9 -30t-4.5 -30
t1 -26.5q0 -3 -3.5 -7t-14.5 -10q-18 -11 -37.5 -18t-26.5 -7q-8 0 -12 5.5t-5 19.5q0 11 8.5 33t23.5 50q14 26 40.5 69.5l59.5 95.5l29.5 46l30 50t25.5 47.5t17 38.5q5 14 10.5 23.5t15.5 17.5l24.5 19t26.5 24q7 8 14.5 11.5t12.5 3.5q4 0 4 -14q0 -8 -0.5 -21t1.5 -23
q2 -23 9.5 -56t18 -67.5t21.5 -67t21 -53.5q3 -5 6 -7t11 -2q22 0 50 -3t45 -6q15 -2 14.5 -6.5t-8.5 -12.5q-13 -11 -35.5 -18.5t-40.5 -9.5q-11 -1 -13.5 -1.5t2.5 -11.5q4 -11 9.5 -23t18.5 -33q20 -35 40 -47.5t39 -12.5q8 0 19.5 0.5t19.5 2.5q12 3 12 -4
q0 -4 -3.5 -10t-12.5 -12q-8 -5 -22.5 -11.5t-32 -12.5t-36.5 -10.5t-34 -4.5h-1z" />
    <glyph glyph-name="Aring" unicode="&#xc5;" horiz-adv-x="609" 
d="M324 694q-18 0 -29.5 -14t-11.5 -35q0 -20 12.5 -33t29.5 -13q21 0 32.5 13t11.5 33q0 17 -10.5 33t-33.5 16h-1zM350 741q37 0 54.5 -24t17.5 -59q0 -22 -10.5 -41.5t-27 -34.5t-37.5 -23.5t-42 -8.5q-10 0 -22.5 4t-24 13t-19 24t-7.5 37q1 22 11.5 42t27.5 36
t37.5 25.5t40.5 9.5h1zM289 224q7 0 9 1.5t-1 9.5q-11 35 -19 65.5t-11 40.5q-5 18 -15 2q-7 -11 -15.5 -26.5l-18 -32l-18.5 -33l-16 -29.5q-4 -5 -2.5 -7.5t9.5 -0.5q16 3 45.5 6.5t51.5 3.5h1zM472 -19q-16 0 -30 2.5t-27.5 10.5t-26.5 22.5t-25 38.5q-11 22 -22 50
l-20 53q-3 8 -7 10t-15 2q-45 0 -82.5 -3t-56.5 -9q-8 -3 -13.5 -7t-10.5 -12q-7 -11 -12.5 -25.5t-9 -30t-4.5 -30t1 -26.5q0 -3 -3.5 -7t-14.5 -10q-18 -11 -37.5 -18t-26.5 -7q-8 0 -12 5.5t-5 19.5q0 11 8.5 33t23.5 50q14 26 40.5 69.5l59.5 95.5l29.5 46l30 50
t25.5 47.5t17 38.5q5 14 10.5 23.5t15.5 17.5l24.5 19t26.5 24q7 8 14.5 11.5t12.5 3.5q4 0 4 -14q0 -8 -0.5 -21t1.5 -23q2 -23 9.5 -56t18 -67.5t21.5 -67t21 -53.5q3 -5 6 -7t11 -2q22 0 50 -3t45 -6q15 -2 14.5 -6.5t-8.5 -12.5q-13 -11 -35.5 -18.5t-40.5 -9.5
q-11 -1 -13.5 -1.5t2.5 -11.5q4 -11 9.5 -23t18.5 -33q20 -35 40 -47.5t39 -12.5q8 0 19.5 0.5t19.5 2.5q12 3 12 -4q0 -4 -3.5 -10t-12.5 -12q-8 -5 -22.5 -11.5t-32 -12.5t-36.5 -10.5t-34 -4.5h-1z" />
    <glyph glyph-name="Atilde" unicode="&#xc3;" horiz-adv-x="609" 
d="M291 696q17 0 30 -14.5l26 -28.5q11 -11 18 -16.5t14 -5.5q8 0 16 9t17 23q5 11 13 21q8 8 15 8q8 2 8 -13q0 -16 -8 -36.5t-20.5 -38.5t-29.5 -30.5t-36 -12.5q-17 0 -30 12l-30 29q-19 19 -27 19q-5 0 -11 -5.5t-12 -12.5t-10.5 -14.5t-6.5 -10.5q-8 -12 -16 -12
q-5 0 -9.5 6t0.5 20q4 11 13 29t20.5 34.5t25.5 28.5t29 12h1zM289 224q7 0 9 1.5t-1 9.5q-11 35 -19 65.5t-11 40.5q-5 18 -15 2q-7 -11 -15.5 -26.5l-18 -32l-18.5 -33l-16 -29.5q-4 -5 -2.5 -7.5t9.5 -0.5q16 3 45.5 6.5t51.5 3.5h1zM472 -19q-16 0 -30 2.5t-27.5 10.5
t-26.5 22.5t-25 38.5q-11 22 -22 50l-20 53q-3 8 -7 10t-15 2q-45 0 -82.5 -3t-56.5 -9q-8 -3 -13.5 -7t-10.5 -12q-7 -11 -12.5 -25.5t-9 -30t-4.5 -30t1 -26.5q0 -3 -3.5 -7t-14.5 -10q-18 -11 -37.5 -18t-26.5 -7q-8 0 -12 5.5t-5 19.5q0 11 8.5 33t23.5 50
q14 26 40.5 69.5l59.5 95.5l29.5 46l30 50t25.5 47.5t17 38.5q5 14 10.5 23.5t15.5 17.5l24.5 19t26.5 24q7 8 14.5 11.5t12.5 3.5q4 0 4 -14q0 -8 -0.5 -21t1.5 -23q2 -23 9.5 -56t18 -67.5t21.5 -67t21 -53.5q3 -5 6 -7t11 -2q22 0 50 -3t45 -6q15 -2 14.5 -6.5
t-8.5 -12.5q-13 -11 -35.5 -18.5t-40.5 -9.5q-11 -1 -13.5 -1.5t2.5 -11.5q4 -11 9.5 -23t18.5 -33q20 -35 40 -47.5t39 -12.5q8 0 19.5 0.5t19.5 2.5q12 3 12 -4q0 -4 -3.5 -10t-12.5 -12q-8 -5 -22.5 -11.5t-32 -12.5t-36.5 -10.5t-34 -4.5h-1z" />
    <glyph glyph-name="Ccedilla" unicode="&#xc7;" horiz-adv-x="501" 
d="M342 -135q0 -22 -15.5 -40.5t-36.5 -32.5t-43.5 -22t-37.5 -8q-11 0 -15.5 5t-4.5 9q0 7 10 11q7 3 18.5 8.5t21.5 12t17.5 15t7.5 17.5q0 8 -12 21t-24 24q-16 14 -16 27q0 12 7 23q13 18 26.5 31l24.5 23q-10 -2 -22.5 -2.5t-23.5 -0.5q-45 0 -83.5 15t-60.5 40
q-20 23 -33.5 55.5t-13.5 83.5q0 91 49.5 164t146.5 127q44 25 87.5 40t79.5 15q24 0 38 -6t20 -14q6 -7 5.5 -16t-9.5 -18q-11 -11 -22.5 -20t-21.5 -16q-11 -7 -16 -7.5t-9 3.5q-14 13 -35.5 20t-41.5 7q-25 0 -46 -10.5t-36 -27.5q-25 -29 -39 -72.5t-14 -96.5
q0 -40 8.5 -74.5t28 -60t50.5 -40.5t76 -15q30 0 55.5 6t46.5 15t36.5 18.5t25.5 16.5t7 -5q-2 -9 -11.5 -22.5t-17.5 -20.5q-16 -13 -47 -29.5t-76 -32.5l-16.5 -6t-16.5 -5q-10 -11 -20 -24.5t-10 -19.5q2 -10 13 -21q4 -5 11 -12t13.5 -15.5t11.5 -18.5t5 -20v-1z" />
    <glyph glyph-name="Eacute" unicode="&#xc9;" horiz-adv-x="476" 
d="M407 695q35 0 0 -38q-21 -23 -50 -45t-58 -38q-20 -11 -39.5 -15.5t-31.5 -4.5q-13 0 -17 5.5t3 12.5l17.5 18l23.5 25.5l22.5 25.5t15.5 19q7 10 13.5 14t17.5 8q20 7 45 10t37 3h1zM235 -9q-37 0 -63.5 4t-38.5 8q-6 2 -14.5 -1t-13.5 -5q-5 -3 -11.5 1.5t-11.5 18.5
q-4 12 -3.5 30.5t0.5 37.5q0 16 1 36t2.5 39.5t2.5 35t1 23.5q2 14 -5 19q-8 6 -10 8.5t0 6.5q10 19 16 28.5t7 16.5q2 11 3 31.5t0 47.5q0 33 -6.5 55t-15.5 34q-3 4 -3.5 6t6.5 7q7 6 23 14t33 15t32.5 12t21.5 5q7 0 13 -8q3 -6 11 -2q4 4 26 4q5 0 17.5 -1t28 -1.5
t33.5 -1.5t35 -1q18 0 39 1t29 1q9 0 0 -13q-10 -14 -25.5 -23.5t-33.5 -14.5t-37.5 -7t-37.5 -2h-35.5t-27.5 1q-6 1 -7 -3.5t0 -12.5t1 -23.5v-34.5t-0.5 -39.5t-1.5 -37.5q-1 -8 1 -11t10 -4q26 -2 51.5 -2.5t51.5 -0.5q39 0 67 3t39 5q3 1 3.5 -3t-11.5 -18
q-14 -16 -33 -26t-40.5 -16t-44 -8t-42.5 -2q-17 0 -29.5 0.5t-20.5 1.5q-7 1 -8.5 -1.5t-2.5 -8.5q0 -10 -1.5 -37.5t-2.5 -56.5q-1 -27 5.5 -38.5t20.5 -16.5q13 -4 35.5 -6.5t56.5 -2.5q36 0 77 4t72 21q3 2 3.5 -4t-5.5 -14q-18 -24 -44.5 -38t-57.5 -22t-64.5 -10.5
t-64.5 -2.5h-1z" />
    <glyph glyph-name="Ecircumflex" unicode="&#xca;" horiz-adv-x="476" 
d="M286 701q14 0 28 -16l19.5 -25.5l28.5 -37.5q10 -13 13.5 -19t3.5 -11q0 -11 -26 -25q-17 -7 -26 -7q-6 0 -12 9l-12.5 16l-16.5 22q-5 5 -10 9t-8 4t-6.5 -2t-9.5 -6q-7 -5 -25 -17t-32 -20q-12 -7 -23 -9t-16 -2t-11 1.5t-8 3.5q-4 7 18 23l21.5 19.5l28.5 26l29 27
l22 21.5q16 15 29 15h1zM235 -9q-37 0 -63.5 4t-38.5 8q-6 2 -14.5 -1t-13.5 -5q-5 -3 -11.5 1.5t-11.5 18.5q-4 12 -3.5 30.5t0.5 37.5q0 16 1 36t2.5 39.5t2.5 35t1 23.5q2 14 -5 19q-8 6 -10 8.5t0 6.5q10 19 16 28.5t7 16.5q2 11 3 31.5t0 47.5q0 33 -6.5 55t-15.5 34
q-3 4 -3.5 6t6.5 7q7 6 23 14t33 15t32.5 12t21.5 5q7 0 13 -8q3 -6 11 -2q4 4 26 4q5 0 17.5 -1t28 -1.5t33.5 -1.5t35 -1q18 0 39 1t29 1q9 0 0 -13q-10 -14 -25.5 -23.5t-33.5 -14.5t-37.5 -7t-37.5 -2h-35.5t-27.5 1q-6 1 -7 -3.5t0 -12.5t1 -23.5v-34.5t-0.5 -39.5
t-1.5 -37.5q-1 -8 1 -11t10 -4q26 -2 51.5 -2.5t51.5 -0.5q39 0 67 3t39 5q3 1 3.5 -3t-11.5 -18q-14 -16 -33 -26t-40.5 -16t-44 -8t-42.5 -2q-17 0 -29.5 0.5t-20.5 1.5q-7 1 -8.5 -1.5t-2.5 -8.5q0 -10 -1.5 -37.5t-2.5 -56.5q-1 -27 5.5 -38.5t20.5 -16.5
q13 -4 35.5 -6.5t56.5 -2.5q36 0 77 4t72 21q3 2 3.5 -4t-5.5 -14q-18 -24 -44.5 -38t-57.5 -22t-64.5 -10.5t-64.5 -2.5h-1z" />
    <glyph glyph-name="Edieresis" unicode="&#xcb;" horiz-adv-x="476" 
d="M178 679q6 0 13 -8t15 -15l13 -12.5t10 -8.5q9 -7 5 -21q-3 -9 -12.5 -19.5t-21 -19.5t-23 -15t-18.5 -6q-8 0 -17 5.5t-17 14t-13.5 18t-5.5 17.5q0 10 8.5 22t20 22.5t23.5 18t19 7.5h1zM353 679q7 0 19 -19q5 -8 15 -20t18 -20q5 -5 4 -12t-12 -18q-5 -5 -13 -11
t-17 -11.5t-17.5 -9.5t-13.5 -4q-14 0 -31 13t-22 36q-5 19 7 34t26 25q14 11 22.5 14t13.5 3h1zM235 -9q-37 0 -63.5 4t-38.5 8q-6 2 -14.5 -1t-13.5 -5q-5 -3 -11.5 1.5t-11.5 18.5q-4 12 -3.5 30.5t0.5 37.5q0 16 1 36t2.5 39.5t2.5 35t1 23.5q2 14 -5 19q-8 6 -10 8.5
t0 6.5q10 19 16 28.5t7 16.5q2 11 3 31.5t0 47.5q0 33 -6.5 55t-15.5 34q-3 4 -3.5 6t6.5 7q7 6 23 14t33 15t32.5 12t21.5 5q7 0 13 -8q3 -6 11 -2q4 4 26 4q5 0 17.5 -1t28 -1.5t33.5 -1.5t35 -1q18 0 39 1t29 1q9 0 0 -13q-10 -14 -25.5 -23.5t-33.5 -14.5t-37.5 -7
t-37.5 -2h-35.5t-27.5 1q-6 1 -7 -3.5t0 -12.5t1 -23.5v-34.5t-0.5 -39.5t-1.5 -37.5q-1 -8 1 -11t10 -4q26 -2 51.5 -2.5t51.5 -0.5q39 0 67 3t39 5q3 1 3.5 -3t-11.5 -18q-14 -16 -33 -26t-40.5 -16t-44 -8t-42.5 -2q-17 0 -29.5 0.5t-20.5 1.5q-7 1 -8.5 -1.5t-2.5 -8.5
q0 -10 -1.5 -37.5t-2.5 -56.5q-1 -27 5.5 -38.5t20.5 -16.5q13 -4 35.5 -6.5t56.5 -2.5q36 0 77 4t72 21q3 2 3.5 -4t-5.5 -14q-18 -24 -44.5 -38t-57.5 -22t-64.5 -10.5t-64.5 -2.5h-1z" />
    <glyph glyph-name="Egrave" unicode="&#xc8;" horiz-adv-x="476" 
d="M288 558q-11 0 -28 5t-36 13t-37 17.5t-30 18.5q-27 20 -28 33q-2 17 14 33t32 24q20 10 27 0q9 -15 23.5 -31.5t31 -32.5t32.5 -29.5t28 -22.5q14 -9 2 -18q-12 -10 -30 -10h-1zM235 -9q-37 0 -63.5 4t-38.5 8q-6 2 -14.5 -1t-13.5 -5q-5 -3 -11.5 1.5t-11.5 18.5
q-4 12 -3.5 30.5t0.5 37.5q0 16 1 36t2.5 39.5t2.5 35t1 23.5q2 14 -5 19q-8 6 -10 8.5t0 6.5q10 19 16 28.5t7 16.5q2 11 3 31.5t0 47.5q0 33 -6.5 55t-15.5 34q-3 4 -3.5 6t6.5 7q7 6 23 14t33 15t32.5 12t21.5 5q7 0 13 -8q3 -6 11 -2q4 4 26 4q5 0 17.5 -1t28 -1.5
t33.5 -1.5t35 -1q18 0 39 1t29 1q9 0 0 -13q-10 -14 -25.5 -23.5t-33.5 -14.5t-37.5 -7t-37.5 -2h-35.5t-27.5 1q-6 1 -7 -3.5t0 -12.5t1 -23.5v-34.5t-0.5 -39.5t-1.5 -37.5q-1 -8 1 -11t10 -4q26 -2 51.5 -2.5t51.5 -0.5q39 0 67 3t39 5q3 1 3.5 -3t-11.5 -18
q-14 -16 -33 -26t-40.5 -16t-44 -8t-42.5 -2q-17 0 -29.5 0.5t-20.5 1.5q-7 1 -8.5 -1.5t-2.5 -8.5q0 -10 -1.5 -37.5t-2.5 -56.5q-1 -27 5.5 -38.5t20.5 -16.5q13 -4 35.5 -6.5t56.5 -2.5q36 0 77 4t72 21q3 2 3.5 -4t-5.5 -14q-18 -24 -44.5 -38t-57.5 -22t-64.5 -10.5
t-64.5 -2.5h-1z" />
    <glyph glyph-name="Iacute" unicode="&#xcd;" horiz-adv-x="292" 
d="M297 699q35 0 0 -38q-21 -23 -50 -45t-58 -38q-20 -11 -39.5 -15.5t-31.5 -4.5q-13 0 -17 5.5t3 12.5l17.5 18l23.5 25.5l22.5 25.5t15.5 19q7 10 13.5 14t17.5 8q20 7 45 10t37 3h1zM183 531q11 0 18 -8.5t10.5 -22.5t4.5 -31.5t1 -35.5q0 -44 -3 -92t-5 -86
q-2 -19 -3 -43.5t-2.5 -49t-2 -47t-0.5 -37.5q1 -17 4 -24.5t8 -11.5q8 -6 -2 -15q-6 -5 -22.5 -12.5t-35.5 -15t-36 -12.5t-24 -5q-6 0 -10 6.5t-5.5 16t-2 21t-0.5 22.5q0 27 2.5 72.5t5.5 91.5q4 53 6 100t1 82q0 30 -6 47.5t-15 25.5q-4 2 -4 5t7 8q7 6 23.5 14.5
t34.5 16.5t33 14t19 6h1z" />
    <glyph glyph-name="Icircumflex" unicode="&#xce;" horiz-adv-x="292" 
d="M185 700q14 0 28 -16l19.5 -25.5l28.5 -37.5q10 -13 13.5 -19t3.5 -11q0 -11 -26 -25q-17 -7 -26 -7q-6 0 -12 9l-12.5 16l-16.5 22q-5 5 -10 9t-8 4t-6.5 -2t-9.5 -6q-7 -5 -25 -17t-32 -20q-12 -7 -23 -9t-16 -2t-11 1.5t-8 3.5q-4 7 18 23l21.5 19.5l28.5 26l29 27
l22 21.5q16 15 29 15h1zM183 531q11 0 18 -8.5t10.5 -22.5t4.5 -31.5t1 -35.5q0 -44 -3 -92t-5 -86q-2 -19 -3 -43.5t-2.5 -49t-2 -47t-0.5 -37.5q1 -17 4 -24.5t8 -11.5q8 -6 -2 -15q-6 -5 -22.5 -12.5t-35.5 -15t-36 -12.5t-24 -5q-6 0 -10 6.5t-5.5 16t-2 21t-0.5 22.5
q0 27 2.5 72.5t5.5 91.5q4 53 6 100t1 82q0 30 -6 47.5t-15 25.5q-4 2 -4 5t7 8q7 6 23.5 14.5t34.5 16.5t33 14t19 6h1z" />
    <glyph glyph-name="Idieresis" unicode="&#xcf;" horiz-adv-x="292" 
d="M84 682q6 0 13 -8t15 -15l13 -12.5t10 -8.5q9 -7 5 -21q-3 -9 -12.5 -19.5t-21 -19.5t-23 -15t-18.5 -6q-8 0 -17 5.5t-17 14t-13.5 18t-5.5 17.5q0 10 8.5 22t20 22.5t23.5 18t19 7.5h1zM259 682q7 0 19 -19q5 -8 15 -20t18 -20q5 -5 4 -12t-12 -18q-5 -5 -13 -11
t-17 -11.5t-17.5 -9.5t-13.5 -4q-14 0 -31 13t-22 36q-5 19 7 34t26 25q14 11 22.5 14t13.5 3h1zM183 531q11 0 18 -8.5t10.5 -22.5t4.5 -31.5t1 -35.5q0 -44 -3 -92t-5 -86q-2 -19 -3 -43.5t-2.5 -49t-2 -47t-0.5 -37.5q1 -17 4 -24.5t8 -11.5q8 -6 -2 -15
q-6 -5 -22.5 -12.5t-35.5 -15t-36 -12.5t-24 -5q-6 0 -10 6.5t-5.5 16t-2 21t-0.5 22.5q0 27 2.5 72.5t5.5 91.5q4 53 6 100t1 82q0 30 -6 47.5t-15 25.5q-4 2 -4 5t7 8q7 6 23.5 14.5t34.5 16.5t33 14t19 6h1z" />
    <glyph glyph-name="Igrave" unicode="&#xcc;" horiz-adv-x="292" 
d="M196 563q-11 0 -28 5t-36 13t-37 17.5t-30 18.5q-27 20 -28 33q-2 17 14 33t32 24q20 10 27 0q9 -15 23.5 -31.5t31 -32.5t32.5 -29.5t28 -22.5q14 -9 2 -18q-12 -10 -30 -10h-1zM183 531q11 0 18 -8.5t10.5 -22.5t4.5 -31.5t1 -35.5q0 -44 -3 -92t-5 -86
q-2 -19 -3 -43.5t-2.5 -49t-2 -47t-0.5 -37.5q1 -17 4 -24.5t8 -11.5q8 -6 -2 -15q-6 -5 -22.5 -12.5t-35.5 -15t-36 -12.5t-24 -5q-6 0 -10 6.5t-5.5 16t-2 21t-0.5 22.5q0 27 2.5 72.5t5.5 91.5q4 53 6 100t1 82q0 30 -6 47.5t-15 25.5q-4 2 -4 5t7 8q7 6 23.5 14.5
t34.5 16.5t33 14t19 6h1z" />
    <glyph glyph-name="Ntilde" unicode="&#xd1;" horiz-adv-x="637" 
d="M304 693q17 0 30 -14.5l26 -28.5q11 -11 18 -16.5t14 -5.5q8 0 16 9t17 23q5 11 13 21q8 8 15 8q8 2 8 -13q0 -16 -8 -36.5t-20.5 -38.5t-29.5 -30.5t-36 -12.5q-17 0 -30 12l-30 29q-19 19 -27 19q-5 0 -11 -5.5t-12 -12.5t-10.5 -14.5t-6.5 -10.5q-8 -12 -16 -12
q-5 0 -9.5 6t0.5 20q4 11 13 29t20.5 34.5t25.5 28.5t29 12h1zM87 -12q-19 0 -19 43q1 25 6 66.5l10 80.5q2 20 4.5 41.5l5 41t4 35t1.5 23.5q1 10 1 17t-1 13t-3.5 13t-8.5 16q-6 10 -16 24t-15 25q-8 19 -6 37t18 39q14 21 28 31.5t19 10.5t16 -34q3 -8 6.5 -10.5
t8.5 -2.5q11 0 15 -1t7 -4q5 -5 6.5 -17.5t6.5 -19.5q14 -23 48 -53.5l69 -59.5l96 -77.5t91 -76.5q5 -4 7 -3.5t3 9.5q2 13 4 38.5t4 54.5t3 56.5t1 45.5q0 29 -3 45t-6 22q-2 4 2 11t21 23q14 14 26 22.5t15 8.5q14 0 14 -35q0 -10 -1 -31.5t-7 -59.5q-5 -36 -8.5 -73
l-6.5 -69.5t-4.5 -59t-1.5 -42.5q-1 -17 -0.5 -31.5t4.5 -21.5q11 -23 13 -31.5t2 -12.5q0 -9 -9.5 -22t-22.5 -24.5t-27.5 -19.5t-23.5 -8q-5 0 -14 21q-4 9 -11.5 22t-21.5 30.5t-36 40t-54 50.5q-17 15 -39.5 33l-47 37.5l-48.5 39l-45 37.5q-13 12 -17 -5
q-2 -9 -3.5 -25t-3 -35t-2.5 -39t-1 -36q-2 -46 3 -76.5t14 -41.5q2 -3 -0.5 -6.5t-12.5 -11.5q-13 -10 -32 -19t-23 -9h-1z" />
    <glyph glyph-name="Oacute" unicode="&#xd3;" horiz-adv-x="622" 
d="M485 695q35 0 0 -38q-21 -23 -50 -45t-58 -38q-20 -11 -39.5 -15.5t-31.5 -4.5q-13 0 -17 5.5t3 12.5l17.5 18l23.5 25.5l22.5 25.5t15.5 19q7 10 13.5 14t17.5 8q20 7 45 10t37 3h1zM246 -14q-45 0 -92.5 16.5t-79.5 55.5q-17 20 -29.5 55t-12.5 79q0 50 13.5 92.5
t38.5 76t58.5 58.5t74.5 40q6 2 11.5 1.5t9.5 -2t5.5 -3.5t-2.5 -5q-12 -11 -26 -26.5t-25 -39.5t-18.5 -58t-7.5 -80t11 -82.5t34 -62.5q26 -28 58 -37.5t61 -9.5q25 0 47.5 8.5t40.5 27.5q20 20 34.5 62.5t14.5 113.5q0 42 -10 77t-29 60t-46 39t-61 14q-23 0 -38 -3.5
t-21 -5.5q-4 -2 -2.5 7t12.5 19q25 23 64 38t73 15q51 0 83.5 -18t50.5 -38q29 -32 38.5 -73.5t9.5 -80.5q0 -60 -22 -110t-57.5 -89.5t-79 -67.5t-86.5 -44q-28 -11 -51 -15t-46 -4h-1z" />
    <glyph glyph-name="Ocircumflex" unicode="&#xd4;" horiz-adv-x="622" 
d="M392 696q14 0 28 -16l19.5 -25.5l28.5 -37.5q10 -13 13.5 -19t3.5 -11q0 -11 -26 -25q-17 -7 -26 -7q-6 0 -12 9l-12.5 16l-16.5 22q-5 5 -10 9t-8 4t-6.5 -2t-9.5 -6q-7 -5 -25 -17t-32 -20q-12 -7 -23 -9t-16 -2t-11 1.5t-8 3.5q-4 7 18 23l21.5 19.5l28.5 26l29 27
l22 21.5q16 15 29 15h1zM246 -14q-45 0 -92.5 16.5t-79.5 55.5q-17 20 -29.5 55t-12.5 79q0 50 13.5 92.5t38.5 76t58.5 58.5t74.5 40q6 2 11.5 1.5t9.5 -2t5.5 -3.5t-2.5 -5q-12 -11 -26 -26.5t-25 -39.5t-18.5 -58t-7.5 -80t11 -82.5t34 -62.5q26 -28 58 -37.5t61 -9.5
q25 0 47.5 8.5t40.5 27.5q20 20 34.5 62.5t14.5 113.5q0 42 -10 77t-29 60t-46 39t-61 14q-23 0 -38 -3.5t-21 -5.5q-4 -2 -2.5 7t12.5 19q25 23 64 38t73 15q51 0 83.5 -18t50.5 -38q29 -32 38.5 -73.5t9.5 -80.5q0 -60 -22 -110t-57.5 -89.5t-79 -67.5t-86.5 -44
q-28 -11 -51 -15t-46 -4h-1z" />
    <glyph glyph-name="Odieresis" unicode="&#xd6;" horiz-adv-x="622" 
d="M279 679q6 0 13 -8t15 -15l13 -12.5t10 -8.5q9 -7 5 -21q-3 -9 -12.5 -19.5t-21 -19.5t-23 -15t-18.5 -6q-8 0 -17 5.5t-17 14t-13.5 18t-5.5 17.5q0 10 8.5 22t20 22.5t23.5 18t19 7.5h1zM454 679q7 0 19 -19q5 -8 15 -20t18 -20q5 -5 4 -12t-12 -18q-5 -5 -13 -11
t-17 -11.5t-17.5 -9.5t-13.5 -4q-14 0 -31 13t-22 36q-5 19 7 34t26 25q14 11 22.5 14t13.5 3h1zM246 -14q-45 0 -92.5 16.5t-79.5 55.5q-17 20 -29.5 55t-12.5 79q0 50 13.5 92.5t38.5 76t58.5 58.5t74.5 40q6 2 11.5 1.5t9.5 -2t5.5 -3.5t-2.5 -5q-12 -11 -26 -26.5
t-25 -39.5t-18.5 -58t-7.5 -80t11 -82.5t34 -62.5q26 -28 58 -37.5t61 -9.5q25 0 47.5 8.5t40.5 27.5q20 20 34.5 62.5t14.5 113.5q0 42 -10 77t-29 60t-46 39t-61 14q-23 0 -38 -3.5t-21 -5.5q-4 -2 -2.5 7t12.5 19q25 23 64 38t73 15q51 0 83.5 -18t50.5 -38
q29 -32 38.5 -73.5t9.5 -80.5q0 -60 -22 -110t-57.5 -89.5t-79 -67.5t-86.5 -44q-28 -11 -51 -15t-46 -4h-1z" />
    <glyph glyph-name="Ograve" unicode="&#xd2;" horiz-adv-x="622" 
d="M394 553q-11 0 -28 5t-36 13t-37 17.5t-30 18.5q-27 20 -28 33q-2 17 14 33t32 24q20 10 27 0q9 -15 23.5 -31.5t31 -32.5t32.5 -29.5t28 -22.5q14 -9 2 -18q-12 -10 -30 -10h-1zM246 -14q-45 0 -92.5 16.5t-79.5 55.5q-17 20 -29.5 55t-12.5 79q0 50 13.5 92.5t38.5 76
t58.5 58.5t74.5 40q6 2 11.5 1.5t9.5 -2t5.5 -3.5t-2.5 -5q-12 -11 -26 -26.5t-25 -39.5t-18.5 -58t-7.5 -80t11 -82.5t34 -62.5q26 -28 58 -37.5t61 -9.5q25 0 47.5 8.5t40.5 27.5q20 20 34.5 62.5t14.5 113.5q0 42 -10 77t-29 60t-46 39t-61 14q-23 0 -38 -3.5t-21 -5.5
q-4 -2 -2.5 7t12.5 19q25 23 64 38t73 15q51 0 83.5 -18t50.5 -38q29 -32 38.5 -73.5t9.5 -80.5q0 -60 -22 -110t-57.5 -89.5t-79 -67.5t-86.5 -44q-28 -11 -51 -15t-46 -4h-1z" />
    <glyph glyph-name="Otilde" unicode="&#xd5;" horiz-adv-x="622" 
d="M318 696q17 0 30 -14.5l26 -28.5q11 -11 18 -16.5t14 -5.5q8 0 16 9t17 23q5 11 13 21q8 8 15 8q8 2 8 -13q0 -16 -8 -36.5t-20.5 -38.5t-29.5 -30.5t-36 -12.5q-17 0 -30 12l-30 29q-19 19 -27 19q-5 0 -11 -5.5t-12 -12.5t-10.5 -14.5t-6.5 -10.5q-8 -12 -16 -12
q-5 0 -9.5 6t0.5 20q4 11 13 29t20.5 34.5t25.5 28.5t29 12h1zM246 -14q-45 0 -92.5 16.5t-79.5 55.5q-17 20 -29.5 55t-12.5 79q0 50 13.5 92.5t38.5 76t58.5 58.5t74.5 40q6 2 11.5 1.5t9.5 -2t5.5 -3.5t-2.5 -5q-12 -11 -26 -26.5t-25 -39.5t-18.5 -58t-7.5 -80t11 -82.5
t34 -62.5q26 -28 58 -37.5t61 -9.5q25 0 47.5 8.5t40.5 27.5q20 20 34.5 62.5t14.5 113.5q0 42 -10 77t-29 60t-46 39t-61 14q-23 0 -38 -3.5t-21 -5.5q-4 -2 -2.5 7t12.5 19q25 23 64 38t73 15q51 0 83.5 -18t50.5 -38q29 -32 38.5 -73.5t9.5 -80.5q0 -60 -22 -110
t-57.5 -89.5t-79 -67.5t-86.5 -44q-28 -11 -51 -15t-46 -4h-1z" />
    <glyph glyph-name="Uacute" unicode="&#xda;" horiz-adv-x="642" 
d="M478 677q35 0 0 -38q-21 -23 -50 -45t-58 -38q-20 -11 -39.5 -15.5t-31.5 -4.5q-13 0 -17 5.5t3 12.5l17.5 18l23.5 25.5l22.5 25.5t15.5 19q7 10 13.5 14t17.5 8q20 7 45 10t37 3h1zM182 -11q-32 0 -56.5 18t-35.5 47q-5 14 -7.5 28.5t-3 31t0.5 36.5t3 45q4 48 7 93.5
l5 76.5q4 73 -19 93q-2 2 -3.5 4t10.5 10q44 26 76.5 39t38.5 13q11 0 17 -11.5t7.5 -32t0.5 -48t-3 -59.5q-2 -20 -4 -44l-4 -48.5t-3.5 -46.5t-1.5 -37q-1 -25 1 -46.5t9.5 -37.5t22 -25t38.5 -9q14 0 28.5 3t33.5 13q18 10 34 26t24 28q13 21 16 41q2 11 4 30.5t6 48.5
q1 12 2.5 28.5l3 34t2 33.5t0.5 26q0 21 -1.5 38.5t-6.5 28.5q-2 4 -1 8.5t17 14.5q40 25 68.5 36t32.5 11q14 0 16.5 -29.5t-2.5 -88.5l-4.5 -56l-5 -60t-4.5 -58.5t-3 -51.5q-1 -26 1 -49.5t8.5 -41t18.5 -28t32 -10.5q19 0 47 10q5 1 3 -9t-13 -19q-12 -9 -28.5 -19
t-35 -18t-38 -13t-37.5 -5q-21 0 -35.5 10.5t-24 26.5t-14.5 35.5t-6 37.5q0 14 -11 5q-8 -5 -33.5 -24.5t-74.5 -47.5q-37 -21 -62 -28.5t-52 -7.5h-1z" />
    <glyph glyph-name="Ucircumflex" unicode="&#xdb;" horiz-adv-x="642" 
d="M357 693q14 0 28 -16l19.5 -25.5l28.5 -37.5q10 -13 13.5 -19t3.5 -11q0 -11 -26 -25q-17 -7 -26 -7q-6 0 -12 9l-12.5 16l-16.5 22q-5 5 -10 9t-8 4t-6.5 -2t-9.5 -6q-7 -5 -25 -17t-32 -20q-12 -7 -23 -9t-16 -2t-11 1.5t-8 3.5q-4 7 18 23l21.5 19.5l28.5 26l29 27
l22 21.5q16 15 29 15h1zM182 -11q-32 0 -56.5 18t-35.5 47q-5 14 -7.5 28.5t-3 31t0.5 36.5t3 45q4 48 7 93.5l5 76.5q4 73 -19 93q-2 2 -3.5 4t10.5 10q44 26 76.5 39t38.5 13q11 0 17 -11.5t7.5 -32t0.5 -48t-3 -59.5q-2 -20 -4 -44l-4 -48.5t-3.5 -46.5t-1.5 -37
q-1 -25 1 -46.5t9.5 -37.5t22 -25t38.5 -9q14 0 28.5 3t33.5 13q18 10 34 26t24 28q13 21 16 41q2 11 4 30.5t6 48.5q1 12 2.5 28.5l3 34t2 33.5t0.5 26q0 21 -1.5 38.5t-6.5 28.5q-2 4 -1 8.5t17 14.5q40 25 68.5 36t32.5 11q14 0 16.5 -29.5t-2.5 -88.5l-4.5 -56l-5 -60
t-4.5 -58.5t-3 -51.5q-1 -26 1 -49.5t8.5 -41t18.5 -28t32 -10.5q19 0 47 10q5 1 3 -9t-13 -19q-12 -9 -28.5 -19t-35 -18t-38 -13t-37.5 -5q-21 0 -35.5 10.5t-24 26.5t-14.5 35.5t-6 37.5q0 14 -11 5q-8 -5 -33.5 -24.5t-74.5 -47.5q-37 -21 -62 -28.5t-52 -7.5h-1z" />
    <glyph glyph-name="Udieresis" unicode="&#xdc;" horiz-adv-x="642" 
d="M267 681q6 0 13 -8t15 -15l13 -12.5t10 -8.5q9 -7 5 -21q-3 -9 -12.5 -19.5t-21 -19.5t-23 -15t-18.5 -6q-8 0 -17 5.5t-17 14t-13.5 18t-5.5 17.5q0 10 8.5 22t20 22.5t23.5 18t19 7.5h1zM442 681q7 0 19 -19q5 -8 15 -20t18 -20q5 -5 4 -12t-12 -18q-5 -5 -13 -11
t-17 -11.5t-17.5 -9.5t-13.5 -4q-14 0 -31 13t-22 36q-5 19 7 34t26 25q14 11 22.5 14t13.5 3h1zM182 -11q-32 0 -56.5 18t-35.5 47q-5 14 -7.5 28.5t-3 31t0.5 36.5t3 45q4 48 7 93.5l5 76.5q4 73 -19 93q-2 2 -3.5 4t10.5 10q44 26 76.5 39t38.5 13q11 0 17 -11.5t7.5 -32
t0.5 -48t-3 -59.5q-2 -20 -4 -44l-4 -48.5t-3.5 -46.5t-1.5 -37q-1 -25 1 -46.5t9.5 -37.5t22 -25t38.5 -9q14 0 28.5 3t33.5 13q18 10 34 26t24 28q13 21 16 41q2 11 4 30.5t6 48.5q1 12 2.5 28.5l3 34t2 33.5t0.5 26q0 21 -1.5 38.5t-6.5 28.5q-2 4 -1 8.5t17 14.5
q40 25 68.5 36t32.5 11q14 0 16.5 -29.5t-2.5 -88.5l-4.5 -56l-5 -60t-4.5 -58.5t-3 -51.5q-1 -26 1 -49.5t8.5 -41t18.5 -28t32 -10.5q19 0 47 10q5 1 3 -9t-13 -19q-12 -9 -28.5 -19t-35 -18t-38 -13t-37.5 -5q-21 0 -35.5 10.5t-24 26.5t-14.5 35.5t-6 37.5q0 14 -11 5
q-8 -5 -33.5 -24.5t-74.5 -47.5q-37 -21 -62 -28.5t-52 -7.5h-1z" />
    <glyph glyph-name="Ugrave" unicode="&#xd9;" horiz-adv-x="642" 
d="M371 548q-11 0 -28 5t-36 13t-37 17.5t-30 18.5q-27 20 -28 33q-2 17 14 33t32 24q20 10 27 0q9 -15 23.5 -31.5t31 -32.5t32.5 -29.5t28 -22.5q14 -9 2 -18q-12 -10 -30 -10h-1zM182 -11q-32 0 -56.5 18t-35.5 47q-5 14 -7.5 28.5t-3 31t0.5 36.5t3 45q4 48 7 93.5
l5 76.5q4 73 -19 93q-2 2 -3.5 4t10.5 10q44 26 76.5 39t38.5 13q11 0 17 -11.5t7.5 -32t0.5 -48t-3 -59.5q-2 -20 -4 -44l-4 -48.5t-3.5 -46.5t-1.5 -37q-1 -25 1 -46.5t9.5 -37.5t22 -25t38.5 -9q14 0 28.5 3t33.5 13q18 10 34 26t24 28q13 21 16 41q2 11 4 30.5t6 48.5
q1 12 2.5 28.5l3 34t2 33.5t0.5 26q0 21 -1.5 38.5t-6.5 28.5q-2 4 -1 8.5t17 14.5q40 25 68.5 36t32.5 11q14 0 16.5 -29.5t-2.5 -88.5l-4.5 -56l-5 -60t-4.5 -58.5t-3 -51.5q-1 -26 1 -49.5t8.5 -41t18.5 -28t32 -10.5q19 0 47 10q5 1 3 -9t-13 -19q-12 -9 -28.5 -19
t-35 -18t-38 -13t-37.5 -5q-21 0 -35.5 10.5t-24 26.5t-14.5 35.5t-6 37.5q0 14 -11 5q-8 -5 -33.5 -24.5t-74.5 -47.5q-37 -21 -62 -28.5t-52 -7.5h-1z" />
    <glyph glyph-name="Ydieresis" unicode="&#x178;" horiz-adv-x="538" 
d="M231 679q6 0 13 -8t15 -15l13 -12.5t10 -8.5q9 -7 5 -21q-3 -9 -12.5 -19.5t-21 -19.5t-23 -15t-18.5 -6q-8 0 -17 5.5t-17 14t-13.5 18t-5.5 17.5q0 10 8.5 22t20 22.5t23.5 18t19 7.5h1zM406 679q7 0 19 -19q5 -8 15 -20t18 -20q5 -5 4 -12t-12 -18q-5 -5 -13 -11
t-17 -11.5t-17.5 -9.5t-13.5 -4q-14 0 -31 13t-22 36q-5 19 7 34t26 25q14 11 22.5 14t13.5 3h1zM141 527q26 0 52.5 -22t49.5 -65q21 -41 38 -81l25 -60q6 -14 10 -15t12 7q12 12 25 27t25 30.5t22.5 30.5t17.5 27q13 20 17.5 38.5t4.5 27.5q0 8 -1.5 15t-2.5 11
q-2 3 1 6.5t13 9.5q18 11 34.5 17t21.5 6q17 0 17 -28q0 -30 -27.5 -75t-75.5 -101q-32 -37 -48.5 -60.5t-27.5 -46.5q-8 -19 -10.5 -54.5t-4.5 -69.5q-3 -50 14 -66q3 -3 3.5 -5t-10.5 -9q-11 -6 -26.5 -12t-31.5 -11.5t-30.5 -9t-21.5 -3.5q-9 0 -14 6t-7 16t-2 21.5
t1 22.5q1 13 3 33.5t3.5 40t2.5 35.5t1 20q1 5 -1 11.5t-3 10.5q-2 6 -4 11t-4 14q-4 21 -14 48t-23.5 55t-28.5 53t-30 43q-12 14 -29.5 27t-34.5 13q-9 0 -19 -2q-5 -1 -4 5.5t11 14.5q21 16 52.5 29t57.5 13h1z" />
    <glyph glyph-name="aacute" unicode="&#xe1;" horiz-adv-x="423" 
d="M339 596q14 0 11 -9.5t-11 -20.5q-6 -9 -18.5 -24l-27 -31t-28.5 -29.5t-24 -20.5q-14 -10 -32.5 -16.5t-37.5 -11.5q-13 -3 -12.5 2.5t8.5 18.5l12.5 19t17.5 28.5l18.5 32t16.5 30.5q5 12 29 19q19 5 40.5 9t36.5 4h1zM178 59q6 0 15.5 2t14.5 6q13 9 14 34
q1 9 1.5 25.5t2.5 33.5q0 6 -2.5 7.5t-10.5 0.5q-17 -3 -33.5 -6.5t-23.5 -8.5q-27 -13 -27 -42q0 -22 15 -37t33 -15h1zM274 393q34 0 56.5 -34t18.5 -88q-4 -43 -5.5 -80.5t-1.5 -63.5q-1 -20 1 -33.5t10 -22.5q13 -15 30 -15q9 0 21 3t19 6q8 4 8.5 -5t-7.5 -17
q-8 -10 -20.5 -20.5t-28.5 -19.5t-35 -14.5t-39 -5.5q-25 0 -46 16.5t-30 33.5q-3 5 -5.5 5.5t-8.5 -3.5q-11 -8 -25.5 -16t-29 -14.5t-27.5 -11t-20 -4.5q-24 0 -45 11.5t-30 29.5q-10 19 -10 42q0 18 8.5 32.5t18.5 24.5q14 14 33.5 26t41.5 22.5t44.5 18.5t41.5 14
q16 5 17 13t1 15v18q1 26 -10.5 45t-33.5 19q-14 0 -30.5 -5t-33.5 -13t-33.5 -17.5l-30.5 -17.5q-5 -3 -8 -2t2 17q7 17 16 29.5t26 21.5q22 11 56.5 24.5t65.5 24.5q36 11 57 11h1z" />
    <glyph glyph-name="acircumflex" unicode="&#xe2;" horiz-adv-x="423" 
d="M231 601q13 0 30 -20q8 -8 20 -27.5t23 -41.5q11 -20 14.5 -30.5t4.5 -15.5q0 -14 -21 -27q-17 -10 -26 -10q-7 0 -11 12q-4 9 -12.5 25.5t-16.5 30.5q-4 5 -7.5 10t-7.5 5q-5 0 -12 -9l-12.5 -13l-15.5 -16l-15.5 -15t-12.5 -11q-8 -6 -19.5 -9.5t-16.5 -3.5
q-4 0 -8.5 1t-6.5 4q-2 2 3 10.5t14 18.5q7 7 19 23.5l24.5 34.5l23.5 34t16 22q13 18 28 18h1zM178 59q6 0 15.5 2t14.5 6q13 9 14 34q1 9 1.5 25.5t2.5 33.5q0 6 -2.5 7.5t-10.5 0.5q-17 -3 -33.5 -6.5t-23.5 -8.5q-27 -13 -27 -42q0 -22 15 -37t33 -15h1zM274 393
q34 0 56.5 -34t18.5 -88q-4 -43 -5.5 -80.5t-1.5 -63.5q-1 -20 1 -33.5t10 -22.5q13 -15 30 -15q9 0 21 3t19 6q8 4 8.5 -5t-7.5 -17q-8 -10 -20.5 -20.5t-28.5 -19.5t-35 -14.5t-39 -5.5q-25 0 -46 16.5t-30 33.5q-3 5 -5.5 5.5t-8.5 -3.5q-11 -8 -25.5 -16t-29 -14.5
t-27.5 -11t-20 -4.5q-24 0 -45 11.5t-30 29.5q-10 19 -10 42q0 18 8.5 32.5t18.5 24.5q14 14 33.5 26t41.5 22.5t44.5 18.5t41.5 14q16 5 17 13t1 15v18q1 26 -10.5 45t-33.5 19q-14 0 -30.5 -5t-33.5 -13t-33.5 -17.5l-30.5 -17.5q-5 -3 -8 -2t2 17q7 17 16 29.5t26 21.5
q22 11 56.5 24.5t65.5 24.5q36 11 57 11h1z" />
    <glyph glyph-name="adieresis" unicode="&#xe4;" horiz-adv-x="423" 
d="M130 561q4 0 11 -5.5t15 -12.5l13 -13t10 -11q5 -5 6.5 -11.5t-3.5 -17.5q-3 -7 -10.5 -16t-17.5 -17t-21 -13.5t-21 -5.5q-5 0 -13.5 5.5t-17 14t-14.5 18.5t-6 19q0 10 8.5 21.5t19.5 21.5t22.5 16.5t17.5 6.5h1zM311 563q5 0 18 -19q5 -8 14.5 -22t16.5 -23
q4 -5 4 -10t-11 -15q-6 -6 -14 -12t-17 -11t-17.5 -8.5t-14.5 -3.5q-13 0 -29 13t-22 35q-5 19 6.5 32.5t24.5 24.5q12 8 23.5 13.5t16.5 5.5h1zM178 59q6 0 15.5 2t14.5 6q13 9 14 34q1 9 1.5 25.5t2.5 33.5q0 6 -2.5 7.5t-10.5 0.5q-17 -3 -33.5 -6.5t-23.5 -8.5
q-27 -13 -27 -42q0 -22 15 -37t33 -15h1zM274 393q34 0 56.5 -34t18.5 -88q-4 -43 -5.5 -80.5t-1.5 -63.5q-1 -20 1 -33.5t10 -22.5q13 -15 30 -15q9 0 21 3t19 6q8 4 8.5 -5t-7.5 -17q-8 -10 -20.5 -20.5t-28.5 -19.5t-35 -14.5t-39 -5.5q-25 0 -46 16.5t-30 33.5
q-3 5 -5.5 5.5t-8.5 -3.5q-11 -8 -25.5 -16t-29 -14.5t-27.5 -11t-20 -4.5q-24 0 -45 11.5t-30 29.5q-10 19 -10 42q0 18 8.5 32.5t18.5 24.5q14 14 33.5 26t41.5 22.5t44.5 18.5t41.5 14q16 5 17 13t1 15v18q1 26 -10.5 45t-33.5 19q-14 0 -30.5 -5t-33.5 -13t-33.5 -17.5
l-30.5 -17.5q-5 -3 -8 -2t2 17q7 17 16 29.5t26 21.5q22 11 56.5 24.5t65.5 24.5q36 11 57 11h1z" />
    <glyph glyph-name="agrave" unicode="&#xe0;" horiz-adv-x="423" 
d="M189 600q7 0 10 -15q4 -14 12 -27q13 -27 30.5 -56t34.5 -49q10 -10 8.5 -13.5t-12.5 -7.5t-21 -2t-22 7q-16 7 -32 18.5t-30 23.5t-25 23.5t-16 19.5q-10 14 -10 30q1 12 12.5 23t22.5 16q9 5 20 7t17 2h1zM178 59q6 0 15.5 2t14.5 6q13 9 14 34q1 9 1.5 25.5t2.5 33.5
q0 6 -2.5 7.5t-10.5 0.5q-17 -3 -33.5 -6.5t-23.5 -8.5q-27 -13 -27 -42q0 -22 15 -37t33 -15h1zM274 393q34 0 56.5 -34t18.5 -88q-4 -43 -5.5 -80.5t-1.5 -63.5q-1 -20 1 -33.5t10 -22.5q13 -15 30 -15q9 0 21 3t19 6q8 4 8.5 -5t-7.5 -17q-8 -10 -20.5 -20.5t-28.5 -19.5
t-35 -14.5t-39 -5.5q-25 0 -46 16.5t-30 33.5q-3 5 -5.5 5.5t-8.5 -3.5q-11 -8 -25.5 -16t-29 -14.5t-27.5 -11t-20 -4.5q-24 0 -45 11.5t-30 29.5q-10 19 -10 42q0 18 8.5 32.5t18.5 24.5q14 14 33.5 26t41.5 22.5t44.5 18.5t41.5 14q16 5 17 13t1 15v18q1 26 -10.5 45
t-33.5 19q-14 0 -30.5 -5t-33.5 -13t-33.5 -17.5l-30.5 -17.5q-5 -3 -8 -2t2 17q7 17 16 29.5t26 21.5q22 11 56.5 24.5t65.5 24.5q36 11 57 11h1z" />
    <glyph glyph-name="aring" unicode="&#xe5;" horiz-adv-x="423" 
d="M219 571q-20 0 -31.5 -14t-11.5 -37q0 -20 13.5 -32t29.5 -12q24 0 35 12t11 33q0 17 -11 33.5t-34 16.5h-1zM244 618q37 0 54.5 -24t17.5 -59q0 -22 -11 -41.5t-27.5 -34.5t-37 -23.5t-40.5 -8.5q-10 0 -22.5 3.5t-24 12.5t-19.5 23.5t-8 36.5t11 43t28 37t37.5 25.5
t40.5 9.5h1zM178 59q6 0 15.5 2t14.5 6q13 9 14 34q1 9 1.5 25.5t2.5 33.5q0 6 -2.5 7.5t-10.5 0.5q-17 -3 -33.5 -6.5t-23.5 -8.5q-27 -13 -27 -42q0 -22 15 -37t33 -15h1zM274 393q34 0 56.5 -34t18.5 -88q-4 -43 -5.5 -80.5t-1.5 -63.5q-1 -20 1 -33.5t10 -22.5
q13 -15 30 -15q9 0 21 3t19 6q8 4 8.5 -5t-7.5 -17q-8 -10 -20.5 -20.5t-28.5 -19.5t-35 -14.5t-39 -5.5q-25 0 -46 16.5t-30 33.5q-3 5 -5.5 5.5t-8.5 -3.5q-11 -8 -25.5 -16t-29 -14.5t-27.5 -11t-20 -4.5q-24 0 -45 11.5t-30 29.5q-10 19 -10 42q0 18 8.5 32.5t18.5 24.5
q14 14 33.5 26t41.5 22.5t44.5 18.5t41.5 14q16 5 17 13t1 15v18q1 26 -10.5 45t-33.5 19q-14 0 -30.5 -5t-33.5 -13t-33.5 -17.5l-30.5 -17.5q-5 -3 -8 -2t2 17q7 17 16 29.5t26 21.5q22 11 56.5 24.5t65.5 24.5q36 11 57 11h1z" />
    <glyph glyph-name="atilde" unicode="&#xe3;" horiz-adv-x="423" 
d="M187 575q17 0 30 -14.5t27 -28.5q9 -9 16.5 -14.5t14.5 -5.5q8 0 17 8.5t17 22.5q3 5 7.5 11.5l7.5 10.5q6 9 11 9q9 0 9 -16t-8 -36.5t-20.5 -38.5t-29.5 -30.5t-36 -12.5q-17 0 -30 12l-30 29q-18 19 -27 19q-5 0 -11.5 -5.5l-13.5 -12t-12.5 -13.5t-7.5 -10
q-7 -13 -15 -13q-5 0 -7.5 5.5t2.5 19.5q4 11 13 29t20.5 34.5t25.5 28.5t29 12h1zM178 59q6 0 15.5 2t14.5 6q13 9 14 34q1 9 1.5 25.5t2.5 33.5q0 6 -2.5 7.5t-10.5 0.5q-17 -3 -33.5 -6.5t-23.5 -8.5q-27 -13 -27 -42q0 -22 15 -37t33 -15h1zM274 393q34 0 56.5 -34
t18.5 -88q-4 -43 -5.5 -80.5t-1.5 -63.5q-1 -20 1 -33.5t10 -22.5q13 -15 30 -15q9 0 21 3t19 6q8 4 8.5 -5t-7.5 -17q-8 -10 -20.5 -20.5t-28.5 -19.5t-35 -14.5t-39 -5.5q-25 0 -46 16.5t-30 33.5q-3 5 -5.5 5.5t-8.5 -3.5q-11 -8 -25.5 -16t-29 -14.5t-27.5 -11t-20 -4.5
q-24 0 -45 11.5t-30 29.5q-10 19 -10 42q0 18 8.5 32.5t18.5 24.5q14 14 33.5 26t41.5 22.5t44.5 18.5t41.5 14q16 5 17 13t1 15v18q1 26 -10.5 45t-33.5 19q-14 0 -30.5 -5t-33.5 -13t-33.5 -17.5l-30.5 -17.5q-5 -3 -8 -2t2 17q7 17 16 29.5t26 21.5q22 11 56.5 24.5
t65.5 24.5q36 11 57 11h1z" />
    <glyph glyph-name="ccedilla" unicode="&#xe7;" horiz-adv-x="373" 
d="M297 387q9 0 20.5 -2.5t21 -7.5t16.5 -12t8 -17q0 -7 -5 -14.5t-12.5 -14.5t-15 -13t-13.5 -10q-8 -5 -12 -5t-6 2q-12 13 -32.5 21t-37.5 8q-29 0 -51 -20q-11 -12 -21 -37t-10 -60q0 -59 28 -97.5t87 -38.5q23 0 54 8.5t52 24.5q6 5 9 5.5t3 -5.5q0 -7 -4.5 -18.5
t-14.5 -19.5q-45 -36 -113 -59q-10 -3 -20 -11q-9 -8 -18.5 -19t-9.5 -20q0 -11 12 -23q9 -9 24 -27t15 -41q0 -22 -14.5 -40.5t-35.5 -32t-43 -21t-37 -7.5q-11 0 -16 5t-5 10t21 16l17.5 9t18 11t14 12t5.5 13q0 10 -10.5 23t-23.5 24q-15 13 -15 26q0 5 1 11t6 13
q10 14 19 25t16 18q9 10 -7 10q-63 0 -100 35t-37 99q0 40 14.5 74.5t38 63.5t54 52t63.5 40q35 18 60.5 26t40.5 8h1z" />
    <glyph glyph-name="eacute" unicode="&#xe9;" horiz-adv-x="404" 
d="M356 588q14 0 11 -9.5t-11 -20.5q-6 -9 -18.5 -24l-27 -31t-28.5 -29.5t-24 -20.5q-14 -10 -32.5 -16.5t-37.5 -11.5q-13 -3 -12.5 2.5t8.5 18.5l12.5 19t17.5 28.5l18.5 32t16.5 30.5q5 12 29 19q19 5 40.5 9t36.5 4h1zM215 341q-15 0 -35.5 -25t-26.5 -76
q-1 -8 1.5 -9.5t9.5 -1.5q20 1 43.5 4t39.5 8q11 3 14 7.5t3 15.5q0 9 -2.5 24.5t-8.5 26.5q-5 11 -15 18.5t-22 7.5h-1zM176 -10q-49 0 -86 21t-54 66q-11 32 -11 73q0 58 28 109t81 85q29 19 62 31t65 12q22 0 38 -4.5t27.5 -11.5t18.5 -16t12 -17q8 -14 10.5 -33t2.5 -28
q0 -5 3 -6.5t18 0.5q8 1 7 -6.5t-12 -16.5t-33.5 -18t-49.5 -16q-11 -3 -27.5 -7l-35 -8.5t-37.5 -8l-35 -6.5q-11 -2 -14.5 -5t-3.5 -10q0 -24 9 -43t25 -32.5t37.5 -20t44.5 -6.5q33 0 65.5 9t58.5 28q3 3 4 -0.5t0.5 -9.5t-4 -13.5t-9.5 -13.5q-11 -10 -30 -23.5
t-45.5 -25.5t-59 -20t-69.5 -8h-1z" />
    <glyph glyph-name="ecircumflex" unicode="&#xea;" horiz-adv-x="404" 
d="M243 597q13 0 30 -20q8 -8 20 -27.5t23 -41.5q11 -20 14.5 -30.5t4.5 -15.5q0 -14 -21 -27q-17 -10 -26 -10q-7 0 -11 12q-4 9 -12.5 25.5t-16.5 30.5q-4 5 -7.5 10t-7.5 5q-5 0 -12 -9l-12.5 -13l-15.5 -16l-15.5 -15t-12.5 -11q-8 -6 -19.5 -9.5t-16.5 -3.5
q-4 0 -8.5 1t-6.5 4q-2 2 3 10.5t14 18.5q7 7 19 23.5l24.5 34.5l23.5 34t16 22q13 18 28 18h1zM215 341q-15 0 -35.5 -25t-26.5 -76q-1 -8 1.5 -9.5t9.5 -1.5q20 1 43.5 4t39.5 8q11 3 14 7.5t3 15.5q0 9 -2.5 24.5t-8.5 26.5q-5 11 -15 18.5t-22 7.5h-1zM176 -10
q-49 0 -86 21t-54 66q-11 32 -11 73q0 58 28 109t81 85q29 19 62 31t65 12q22 0 38 -4.5t27.5 -11.5t18.5 -16t12 -17q8 -14 10.5 -33t2.5 -28q0 -5 3 -6.5t18 0.5q8 1 7 -6.5t-12 -16.5t-33.5 -18t-49.5 -16q-11 -3 -27.5 -7l-35 -8.5t-37.5 -8l-35 -6.5q-11 -2 -14.5 -5
t-3.5 -10q0 -24 9 -43t25 -32.5t37.5 -20t44.5 -6.5q33 0 65.5 9t58.5 28q3 3 4 -0.5t0.5 -9.5t-4 -13.5t-9.5 -13.5q-11 -10 -30 -23.5t-45.5 -25.5t-59 -20t-69.5 -8h-1z" />
    <glyph glyph-name="edieresis" unicode="&#xeb;" horiz-adv-x="404" 
d="M138 562q4 0 11 -5.5t15 -12.5l13 -13t10 -11q5 -5 6.5 -11.5t-3.5 -17.5q-3 -7 -10.5 -16t-17.5 -17t-21 -13.5t-21 -5.5q-5 0 -13.5 5.5t-17 14t-14.5 18.5t-6 19q0 10 8.5 21.5t19.5 21.5t22.5 16.5t17.5 6.5h1zM319 564q5 0 18 -19q5 -8 14.5 -22t16.5 -23
q4 -5 4 -10t-11 -15q-6 -6 -14 -12t-17 -11t-17.5 -8.5t-14.5 -3.5q-13 0 -29 13t-22 35q-5 19 6.5 32.5t24.5 24.5q12 8 23.5 13.5t16.5 5.5h1zM215 341q-15 0 -35.5 -25t-26.5 -76q-1 -8 1.5 -9.5t9.5 -1.5q20 1 43.5 4t39.5 8q11 3 14 7.5t3 15.5q0 9 -2.5 24.5
t-8.5 26.5q-5 11 -15 18.5t-22 7.5h-1zM176 -10q-49 0 -86 21t-54 66q-11 32 -11 73q0 58 28 109t81 85q29 19 62 31t65 12q22 0 38 -4.5t27.5 -11.5t18.5 -16t12 -17q8 -14 10.5 -33t2.5 -28q0 -5 3 -6.5t18 0.5q8 1 7 -6.5t-12 -16.5t-33.5 -18t-49.5 -16q-11 -3 -27.5 -7
l-35 -8.5t-37.5 -8l-35 -6.5q-11 -2 -14.5 -5t-3.5 -10q0 -24 9 -43t25 -32.5t37.5 -20t44.5 -6.5q33 0 65.5 9t58.5 28q3 3 4 -0.5t0.5 -9.5t-4 -13.5t-9.5 -13.5q-11 -10 -30 -23.5t-45.5 -25.5t-59 -20t-69.5 -8h-1z" />
    <glyph glyph-name="egrave" unicode="&#xe8;" horiz-adv-x="404" 
d="M194 600q7 0 10 -15q4 -14 12 -27q13 -27 30.5 -56t34.5 -49q10 -10 8.5 -13.5t-12.5 -7.5t-21 -2t-22 7q-16 7 -32 18.5t-30 23.5t-25 23.5t-16 19.5q-10 14 -10 30q1 12 12.5 23t22.5 16q9 5 20 7t17 2h1zM215 341q-15 0 -35.5 -25t-26.5 -76q-1 -8 1.5 -9.5t9.5 -1.5
q20 1 43.5 4t39.5 8q11 3 14 7.5t3 15.5q0 9 -2.5 24.5t-8.5 26.5q-5 11 -15 18.5t-22 7.5h-1zM176 -10q-49 0 -86 21t-54 66q-11 32 -11 73q0 58 28 109t81 85q29 19 62 31t65 12q22 0 38 -4.5t27.5 -11.5t18.5 -16t12 -17q8 -14 10.5 -33t2.5 -28q0 -5 3 -6.5t18 0.5
q8 1 7 -6.5t-12 -16.5t-33.5 -18t-49.5 -16q-11 -3 -27.5 -7l-35 -8.5t-37.5 -8l-35 -6.5q-11 -2 -14.5 -5t-3.5 -10q0 -24 9 -43t25 -32.5t37.5 -20t44.5 -6.5q33 0 65.5 9t58.5 28q3 3 4 -0.5t0.5 -9.5t-4 -13.5t-9.5 -13.5q-11 -10 -30 -23.5t-45.5 -25.5t-59 -20
t-69.5 -8h-1z" />
    <glyph glyph-name="iacute" unicode="&#xed;" horiz-adv-x="266" 
d="M264 591q14 0 11 -9.5t-11 -20.5q-6 -9 -18.5 -24l-27 -31t-28.5 -29.5t-24 -20.5q-14 -10 -32.5 -16.5t-37.5 -11.5q-13 -3 -12.5 2.5t8.5 18.5l12.5 19t17.5 28.5l18.5 32t16.5 30.5q5 12 29 19q19 5 40.5 9t36.5 4h1zM176 388q9 0 13.5 -9.5t6 -23.5t0.5 -30t-2 -28
q-2 -18 -4 -40.5t-3.5 -45.5l-3 -46t-1.5 -41q-1 -20 2 -32.5t7.5 -20t11 -10t12.5 -2.5q7 0 19 2t24 7q8 3 6 -9t-14 -20q-41 -29 -76.5 -41.5t-58.5 -12.5q-27 0 -43 25t-12 81l2.5 34t3.5 42t3.5 43.5t3.5 38.5q2 33 -3 51.5t-11 27.5q-2 3 -1 6t12 9q13 8 28.5 16
t30 14.5t27 10.5t19.5 4h1z" />
    <glyph glyph-name="icircumflex" unicode="&#xee;" horiz-adv-x="266" 
d="M154 601q13 0 30 -20q8 -8 20 -27.5t23 -41.5q11 -20 14.5 -30.5t4.5 -15.5q0 -14 -21 -27q-17 -10 -26 -10q-7 0 -11 12q-4 9 -12.5 25.5t-16.5 30.5q-4 5 -7.5 10t-7.5 5q-5 0 -12 -9l-12.5 -13l-15.5 -16l-15.5 -15t-12.5 -11q-8 -6 -19.5 -9.5t-16.5 -3.5
q-4 0 -8.5 1t-6.5 4q-2 2 3 10.5t14 18.5q7 7 19 23.5l24.5 34.5l23.5 34t16 22q13 18 28 18h1zM176 388q9 0 13.5 -9.5t6 -23.5t0.5 -30t-2 -28q-2 -18 -4 -40.5t-3.5 -45.5l-3 -46t-1.5 -41q-1 -20 2 -32.5t7.5 -20t11 -10t12.5 -2.5q7 0 19 2t24 7q8 3 6 -9t-14 -20
q-41 -29 -76.5 -41.5t-58.5 -12.5q-27 0 -43 25t-12 81l2.5 34t3.5 42t3.5 43.5t3.5 38.5q2 33 -3 51.5t-11 27.5q-2 3 -1 6t12 9q13 8 28.5 16t30 14.5t27 10.5t19.5 4h1z" />
    <glyph glyph-name="idieresis" unicode="&#xef;" horiz-adv-x="266" 
d="M62 560q4 0 11 -5.5t15 -12.5l13 -13t10 -11q5 -5 6.5 -11.5t-3.5 -17.5q-3 -7 -10.5 -16t-17.5 -17t-21 -13.5t-21 -5.5q-5 0 -13.5 5.5t-17 14t-14.5 18.5t-6 19q0 10 8.5 21.5t19.5 21.5t22.5 16.5t17.5 6.5h1zM243 562q5 0 18 -19q5 -8 14.5 -22t16.5 -23q4 -5 4 -10
t-11 -15q-6 -6 -14 -12t-17 -11t-17.5 -8.5t-14.5 -3.5q-13 0 -29 13t-22 35q-5 19 6.5 32.5t24.5 24.5q12 8 23.5 13.5t16.5 5.5h1zM176 388q9 0 13.5 -9.5t6 -23.5t0.5 -30t-2 -28q-2 -18 -4 -40.5t-3.5 -45.5l-3 -46t-1.5 -41q-1 -20 2 -32.5t7.5 -20t11 -10t12.5 -2.5
q7 0 19 2t24 7q8 3 6 -9t-14 -20q-41 -29 -76.5 -41.5t-58.5 -12.5q-27 0 -43 25t-12 81l2.5 34t3.5 42t3.5 43.5t3.5 38.5q2 33 -3 51.5t-11 27.5q-2 3 -1 6t12 9q13 8 28.5 16t30 14.5t27 10.5t19.5 4h1z" />
    <glyph glyph-name="igrave" unicode="&#xec;" horiz-adv-x="266" 
d="M95 600q7 0 10 -15q4 -14 12 -27q13 -27 30.5 -56t34.5 -49q10 -10 8.5 -13.5t-12.5 -7.5t-21 -2t-22 7q-16 7 -32 18.5t-30 23.5t-25 23.5t-16 19.5q-10 14 -10 30q1 12 12.5 23t22.5 16q9 5 20 7t17 2h1zM176 388q9 0 13.5 -9.5t6 -23.5t0.5 -30t-2 -28
q-2 -18 -4 -40.5t-3.5 -45.5l-3 -46t-1.5 -41q-1 -20 2 -32.5t7.5 -20t11 -10t12.5 -2.5q7 0 19 2t24 7q8 3 6 -9t-14 -20q-41 -29 -76.5 -41.5t-58.5 -12.5q-27 0 -43 25t-12 81l2.5 34t3.5 42t3.5 43.5t3.5 38.5q2 33 -3 51.5t-11 27.5q-2 3 -1 6t12 9q13 8 28.5 16
t30 14.5t27 10.5t19.5 4h1z" />
    <glyph glyph-name="ntilde" unicode="&#xf1;" horiz-adv-x="505" 
d="M231 575q17 0 30 -14.5t27 -28.5q9 -9 16.5 -14.5t14.5 -5.5q8 0 17 8.5t17 22.5q3 5 7.5 11.5l7.5 10.5q6 9 11 9q9 0 9 -16t-8 -36.5t-20.5 -38.5t-29.5 -30.5t-36 -12.5q-17 0 -30 12l-30 29q-18 19 -27 19q-5 0 -11.5 -5.5l-13.5 -12t-12.5 -13.5t-7.5 -10
q-7 -13 -15 -13q-5 0 -7.5 5.5t2.5 19.5q4 11 13 29t20.5 34.5t25.5 28.5t29 12h1zM374 387q19 0 30.5 -12t18 -30.5t8 -40.5t0.5 -43q-2 -32 -5 -69.5t-5 -68.5q-1 -42 12 -56.5t27 -14.5q8 0 19 2t21 7q7 3 4.5 -9t-11.5 -20q-14 -11 -30.5 -20.5t-34 -16t-33.5 -10.5
t-28 -4q-16 0 -28 6.5t-22 15.5q-21 21 -15 75l2.5 30l3 37.5l3 39l2.5 33.5q1 15 1 29.5t-3.5 26.5t-10 19t-18.5 7q-14 0 -30.5 -11.5t-30.5 -28.5q-15 -18 -23.5 -41t-13.5 -48.5t-7 -51.5t-4 -48q-2 -19 -6 -30.5t-19 -22.5q-8 -5 -19.5 -11t-24 -11t-24 -8t-18.5 -3
q-13 0 -10 10q3 7 6 30t6 56t5 72t2 80q0 29 -3.5 54t-16.5 39q-2 3 -2 5.5t7 8.5q6 6 20.5 16t30.5 19l29.5 16t17.5 7q9 0 15.5 -11t10.5 -26.5t6 -33.5t2 -32t14 -2q26 22 54 43t55 34q17 8 31 12.5t31 4.5h1z" />
    <glyph glyph-name="oacute" unicode="&#xf3;" horiz-adv-x="461" 
d="M380 584q14 0 11 -9.5t-11 -20.5q-6 -9 -18.5 -24l-27 -31t-28.5 -29.5t-24 -20.5q-14 -10 -32.5 -16.5t-37.5 -11.5q-13 -3 -12.5 2.5t8.5 18.5l12.5 19t17.5 28.5l18.5 32t16.5 30.5q5 12 29 19q19 5 40.5 9t36.5 4h1zM313 387q24 0 46.5 -8t40 -25.5t27.5 -45
t10 -66.5q0 -32 -7.5 -57t-19.5 -45.5t-27 -36.5t-29 -29q-17 -15 -40.5 -30.5t-50.5 -27.5t-54 -20t-51 -8q-71 0 -103 39.5t-32 106.5q0 60 27 102.5t68 66.5q27 16 45 20q17 5 21 -0.5t-7 -19.5q-19 -22 -26.5 -52.5t-7.5 -60.5q-1 -68 25.5 -103.5t64.5 -35.5
q14 0 27 5.5t24 18.5q13 14 20.5 41.5t7.5 71.5q0 21 -4 44t-13.5 42t-24.5 31.5t-37 12.5q-8 0 -17 -1t-14 -3q-3 -1 -2.5 7.5t9.5 17.5q21 18 48 33t55 15h1z" />
    <glyph glyph-name="ocircumflex" unicode="&#xf4;" horiz-adv-x="461" 
d="M270 592q13 0 30 -20q8 -8 20 -27.5t23 -41.5q11 -20 14.5 -30.5t4.5 -15.5q0 -14 -21 -27q-17 -10 -26 -10q-7 0 -11 12q-4 9 -12.5 25.5t-16.5 30.5q-4 5 -7.5 10t-7.5 5q-5 0 -12 -9l-12.5 -13l-15.5 -16l-15.5 -15t-12.5 -11q-8 -6 -19.5 -9.5t-16.5 -3.5
q-4 0 -8.5 1t-6.5 4q-2 2 3 10.5t14 18.5q7 7 19 23.5l24.5 34.5l23.5 34t16 22q13 18 28 18h1zM313 387q24 0 46.5 -8t40 -25.5t27.5 -45t10 -66.5q0 -32 -7.5 -57t-19.5 -45.5t-27 -36.5t-29 -29q-17 -15 -40.5 -30.5t-50.5 -27.5t-54 -20t-51 -8q-71 0 -103 39.5
t-32 106.5q0 60 27 102.5t68 66.5q27 16 45 20q17 5 21 -0.5t-7 -19.5q-19 -22 -26.5 -52.5t-7.5 -60.5q-1 -68 25.5 -103.5t64.5 -35.5q14 0 27 5.5t24 18.5q13 14 20.5 41.5t7.5 71.5q0 21 -4 44t-13.5 42t-24.5 31.5t-37 12.5q-8 0 -17 -1t-14 -3q-3 -1 -2.5 7.5
t9.5 17.5q21 18 48 33t55 15h1z" />
    <glyph glyph-name="odieresis" unicode="&#xf6;" horiz-adv-x="461" 
d="M169 556q4 0 11 -5.5t15 -12.5l13 -13t10 -11q5 -5 6.5 -11.5t-3.5 -17.5q-3 -7 -10.5 -16t-17.5 -17t-21 -13.5t-21 -5.5q-5 0 -13.5 5.5t-17 14t-14.5 18.5t-6 19q0 10 8.5 21.5t19.5 21.5t22.5 16.5t17.5 6.5h1zM350 558q5 0 18 -19q5 -8 14.5 -22t16.5 -23
q4 -5 4 -10t-11 -15q-6 -6 -14 -12t-17 -11t-17.5 -8.5t-14.5 -3.5q-13 0 -29 13t-22 35q-5 19 6.5 32.5t24.5 24.5q12 8 23.5 13.5t16.5 5.5h1zM313 387q24 0 46.5 -8t40 -25.5t27.5 -45t10 -66.5q0 -32 -7.5 -57t-19.5 -45.5t-27 -36.5t-29 -29q-17 -15 -40.5 -30.5
t-50.5 -27.5t-54 -20t-51 -8q-71 0 -103 39.5t-32 106.5q0 60 27 102.5t68 66.5q27 16 45 20q17 5 21 -0.5t-7 -19.5q-19 -22 -26.5 -52.5t-7.5 -60.5q-1 -68 25.5 -103.5t64.5 -35.5q14 0 27 5.5t24 18.5q13 14 20.5 41.5t7.5 71.5q0 21 -4 44t-13.5 42t-24.5 31.5
t-37 12.5q-8 0 -17 -1t-14 -3q-3 -1 -2.5 7.5t9.5 17.5q21 18 48 33t55 15h1z" />
    <glyph glyph-name="ograve" unicode="&#xf2;" horiz-adv-x="461" 
d="M213 600q7 0 10 -15q4 -14 12 -27q13 -27 30.5 -56t34.5 -49q10 -10 8.5 -13.5t-12.5 -7.5t-21 -2t-22 7q-16 7 -32 18.5t-30 23.5t-25 23.5t-16 19.5q-10 14 -10 30q1 12 12.5 23t22.5 16q9 5 20 7t17 2h1zM313 387q24 0 46.5 -8t40 -25.5t27.5 -45t10 -66.5
q0 -32 -7.5 -57t-19.5 -45.5t-27 -36.5t-29 -29q-17 -15 -40.5 -30.5t-50.5 -27.5t-54 -20t-51 -8q-71 0 -103 39.5t-32 106.5q0 60 27 102.5t68 66.5q27 16 45 20q17 5 21 -0.5t-7 -19.5q-19 -22 -26.5 -52.5t-7.5 -60.5q-1 -68 25.5 -103.5t64.5 -35.5q14 0 27 5.5
t24 18.5q13 14 20.5 41.5t7.5 71.5q0 21 -4 44t-13.5 42t-24.5 31.5t-37 12.5q-8 0 -17 -1t-14 -3q-3 -1 -2.5 7.5t9.5 17.5q21 18 48 33t55 15h1z" />
    <glyph glyph-name="otilde" unicode="&#xf5;" horiz-adv-x="461" 
d="M220 567q17 0 30 -14.5t27 -28.5q9 -9 16.5 -14.5t14.5 -5.5q8 0 17 8.5t17 22.5q3 5 7.5 11.5l7.5 10.5q6 9 11 9q9 0 9 -16t-8 -36.5t-20.5 -38.5t-29.5 -30.5t-36 -12.5q-17 0 -30 12l-30 29q-18 19 -27 19q-5 0 -11.5 -5.5l-13.5 -12t-12.5 -13.5t-7.5 -10
q-7 -13 -15 -13q-5 0 -7.5 5.5t2.5 19.5q4 11 13 29t20.5 34.5t25.5 28.5t29 12h1zM313 387q24 0 46.5 -8t40 -25.5t27.5 -45t10 -66.5q0 -32 -7.5 -57t-19.5 -45.5t-27 -36.5t-29 -29q-17 -15 -40.5 -30.5t-50.5 -27.5t-54 -20t-51 -8q-71 0 -103 39.5t-32 106.5
q0 60 27 102.5t68 66.5q27 16 45 20q17 5 21 -0.5t-7 -19.5q-19 -22 -26.5 -52.5t-7.5 -60.5q-1 -68 25.5 -103.5t64.5 -35.5q14 0 27 5.5t24 18.5q13 14 20.5 41.5t7.5 71.5q0 21 -4 44t-13.5 42t-24.5 31.5t-37 12.5q-8 0 -17 -1t-14 -3q-3 -1 -2.5 7.5t9.5 17.5
q21 18 48 33t55 15h1z" />
    <glyph glyph-name="uacute" unicode="&#xfa;" horiz-adv-x="512" 
d="M393 596q14 0 11 -9.5t-11 -20.5q-6 -9 -18.5 -24l-27 -31t-28.5 -29.5t-24 -20.5q-14 -10 -32.5 -16.5t-37.5 -11.5q-13 -3 -12.5 2.5t8.5 18.5l12.5 19t17.5 28.5l18.5 32t16.5 30.5q5 12 29 19q19 5 40.5 9t36.5 4h1zM146 -10q-39 0 -62 30.5t-23 77.5q0 20 2 42.5
t4 51.5q2 24 3 44.5t1 43.5q0 35 -16 51q-4 3 -2.5 6.5t12.5 8.5q42 23 68 33.5t38 10.5q10 0 14.5 -14t6 -33t0.5 -39t-2 -32q-2 -12 -3 -28.5t-1.5 -33.5t-1.5 -33.5t-1 -29.5q-1 -34 12 -53t38 -19q17 0 32.5 13t28.5 33q10 15 13 27t5 26t4 40t3 52q1 25 -1.5 40.5
t-7.5 23.5q-2 4 -0.5 7t13.5 10l21.5 11l28 14t28.5 11.5t23 4.5q11 0 13.5 -11.5t1.5 -27.5q-1 -15 -3.5 -42l-5 -56t-4.5 -57t-2 -45q0 -12 0.5 -27.5t4.5 -30t13 -24.5t25 -10q9 0 21.5 2.5t20.5 6.5q7 3 6 -7.5t-11 -19.5q-11 -10 -26 -20t-32 -18t-35 -13t-33 -5
q-19 0 -31.5 7t-21 18.5t-13 26.5t-7.5 30q-3 17 -15 6l-15.5 -13l-21 -17.5l-23.5 -18.5t-21 -14q-17 -10 -30 -14t-32 -4h-1z" />
    <glyph glyph-name="ucircumflex" unicode="&#xfb;" horiz-adv-x="512" 
d="M280 601q13 0 30 -20q8 -8 20 -27.5t23 -41.5q11 -20 14.5 -30.5t4.5 -15.5q0 -14 -21 -27q-17 -10 -26 -10q-7 0 -11 12q-4 9 -12.5 25.5t-16.5 30.5q-4 5 -7.5 10t-7.5 5q-5 0 -12 -9l-12.5 -13l-15.5 -16l-15.5 -15t-12.5 -11q-8 -6 -19.5 -9.5t-16.5 -3.5
q-4 0 -8.5 1t-6.5 4q-2 2 3 10.5t14 18.5q7 7 19 23.5l24.5 34.5l23.5 34t16 22q13 18 28 18h1zM146 -10q-39 0 -62 30.5t-23 77.5q0 20 2 42.5t4 51.5q2 24 3 44.5t1 43.5q0 35 -16 51q-4 3 -2.5 6.5t12.5 8.5q42 23 68 33.5t38 10.5q10 0 14.5 -14t6 -33t0.5 -39t-2 -32
q-2 -12 -3 -28.5t-1.5 -33.5t-1.5 -33.5t-1 -29.5q-1 -34 12 -53t38 -19q17 0 32.5 13t28.5 33q10 15 13 27t5 26t4 40t3 52q1 25 -1.5 40.5t-7.5 23.5q-2 4 -0.5 7t13.5 10l21.5 11l28 14t28.5 11.5t23 4.5q11 0 13.5 -11.5t1.5 -27.5q-1 -15 -3.5 -42l-5 -56t-4.5 -57
t-2 -45q0 -12 0.5 -27.5t4.5 -30t13 -24.5t25 -10q9 0 21.5 2.5t20.5 6.5q7 3 6 -7.5t-11 -19.5q-11 -10 -26 -20t-32 -18t-35 -13t-33 -5q-19 0 -31.5 7t-21 18.5t-13 26.5t-7.5 30q-3 17 -15 6l-15.5 -13l-21 -17.5l-23.5 -18.5t-21 -14q-17 -10 -30 -14t-32 -4h-1z" />
    <glyph glyph-name="udieresis" unicode="&#xfc;" horiz-adv-x="512" 
d="M183 573q4 0 11 -5.5t15 -12.5l13 -13t10 -11q5 -5 6.5 -11.5t-3.5 -17.5q-3 -7 -10.5 -16t-17.5 -17t-21 -13.5t-21 -5.5q-5 0 -13.5 5.5t-17 14t-14.5 18.5t-6 19q0 10 8.5 21.5t19.5 21.5t22.5 16.5t17.5 6.5h1zM364 575q5 0 18 -19q5 -8 14.5 -22t16.5 -23
q4 -5 4 -10t-11 -15q-6 -6 -14 -12t-17 -11t-17.5 -8.5t-14.5 -3.5q-13 0 -29 13t-22 35q-5 19 6.5 32.5t24.5 24.5q12 8 23.5 13.5t16.5 5.5h1zM146 -10q-39 0 -62 30.5t-23 77.5q0 20 2 42.5t4 51.5q2 24 3 44.5t1 43.5q0 35 -16 51q-4 3 -2.5 6.5t12.5 8.5q42 23 68 33.5
t38 10.5q10 0 14.5 -14t6 -33t0.5 -39t-2 -32q-2 -12 -3 -28.5t-1.5 -33.5t-1.5 -33.5t-1 -29.5q-1 -34 12 -53t38 -19q17 0 32.5 13t28.5 33q10 15 13 27t5 26t4 40t3 52q1 25 -1.5 40.5t-7.5 23.5q-2 4 -0.5 7t13.5 10l21.5 11l28 14t28.5 11.5t23 4.5q11 0 13.5 -11.5
t1.5 -27.5q-1 -15 -3.5 -42l-5 -56t-4.5 -57t-2 -45q0 -12 0.5 -27.5t4.5 -30t13 -24.5t25 -10q9 0 21.5 2.5t20.5 6.5q7 3 6 -7.5t-11 -19.5q-11 -10 -26 -20t-32 -18t-35 -13t-33 -5q-19 0 -31.5 7t-21 18.5t-13 26.5t-7.5 30q-3 17 -15 6l-15.5 -13l-21 -17.5
l-23.5 -18.5t-21 -14q-17 -10 -30 -14t-32 -4h-1z" />
    <glyph glyph-name="ugrave" unicode="&#xf9;" horiz-adv-x="512" 
d="M218 600q7 0 10 -15q4 -14 12 -27q13 -27 30.5 -56t34.5 -49q10 -10 8.5 -13.5t-12.5 -7.5t-21 -2t-22 7q-16 7 -32 18.5t-30 23.5t-25 23.5t-16 19.5q-10 14 -10 30q1 12 12.5 23t22.5 16q9 5 20 7t17 2h1zM146 -10q-39 0 -62 30.5t-23 77.5q0 20 2 42.5t4 51.5
q2 24 3 44.5t1 43.5q0 35 -16 51q-4 3 -2.5 6.5t12.5 8.5q42 23 68 33.5t38 10.5q10 0 14.5 -14t6 -33t0.5 -39t-2 -32q-2 -12 -3 -28.5t-1.5 -33.5t-1.5 -33.5t-1 -29.5q-1 -34 12 -53t38 -19q17 0 32.5 13t28.5 33q10 15 13 27t5 26t4 40t3 52q1 25 -1.5 40.5t-7.5 23.5
q-2 4 -0.5 7t13.5 10l21.5 11l28 14t28.5 11.5t23 4.5q11 0 13.5 -11.5t1.5 -27.5q-1 -15 -3.5 -42l-5 -56t-4.5 -57t-2 -45q0 -12 0.5 -27.5t4.5 -30t13 -24.5t25 -10q9 0 21.5 2.5t20.5 6.5q7 3 6 -7.5t-11 -19.5q-11 -10 -26 -20t-32 -18t-35 -13t-33 -5q-19 0 -31.5 7
t-21 18.5t-13 26.5t-7.5 30q-3 17 -15 6l-15.5 -13l-21 -17.5l-23.5 -18.5t-21 -14q-17 -10 -30 -14t-32 -4h-1z" />
    <glyph glyph-name="ydieresis" unicode="&#xff;" horiz-adv-x="438" 
d="M177 573q4 0 11 -5.5t15 -12.5l13 -13t10 -11q5 -5 6.5 -11.5t-3.5 -17.5q-3 -7 -10.5 -16t-17.5 -17t-21 -13.5t-21 -5.5q-5 0 -13.5 5.5t-17 14t-14.5 18.5t-6 19q0 10 8.5 21.5t19.5 21.5t22.5 16.5t17.5 6.5h1zM358 575q5 0 18 -19q5 -8 14.5 -22t16.5 -23
q4 -5 4 -10t-11 -15q-6 -6 -14 -12t-17 -11t-17.5 -8.5t-14.5 -3.5q-13 0 -29 13t-22 35q-5 19 6.5 32.5t24.5 24.5q12 8 23.5 13.5t16.5 5.5h1zM144 390q16 0 31.5 -16t25.5 -42l17.5 -51.5t21.5 -76.5q8 -32 16 -56t11 -32q3 -7 8.5 -15t10.5 -8t13 17q10 21 19 50
t15 60.5t8.5 62.5t-1.5 55q-1 5 5 11q3 3 13 10.5l22 16t24 14.5t18 6q5 0 8 -4.5t4 -17.5q0 -11 -2.5 -28.5t-7 -37.5t-11 -40.5l-12.5 -38.5l-37 -96.5t-47 -102.5t-62.5 -104.5t-81.5 -101.5l-34.5 -33t-37 -30.5t-35.5 -22.5t-30 -9q-17 0 -12 20q1 6 10.5 24t21.5 36.5
t23.5 32.5t15.5 13q11 -2 21 -3t15 1q13 6 35 29t39 56q5 9 2 14t-10 13q-10 11 -19 38l-17 53q-28 93 -45 143.5t-27 70.5q-9 17 -19 25t-18 8q-7 0 -18.5 -1.5t-19.5 -4.5q-5 -2 -4 7t11 20t25 22.5t31.5 21.5t33.5 16t32 6h1z" />
    <glyph glyph-name="Delta" unicode="&#x2206;" horiz-adv-x="570" 
d="M364 60q7 1 9.5 3t-0.5 9q-10 21 -23.5 54.5l-27.5 71.5t-26.5 76.5t-19.5 69.5q-4 19 -14 0q-12 -26 -30 -61.5l-38 -73.5t-41 -73.5t-39 -60.5q-4 -5 1 -10t13 -7q14 -2 42 -3.5t84 -0.5q48 0 70 2t40 4zM533 -8q-22 4 -54 6t-69 2.5t-75 0t-72 -0.5q-85 1 -145 -2
t-98 -8q-8 -1 -9.5 5.5t3.5 11.5q18 17 42.5 55.5t51.5 87.5l54 102l50 99q17 35 26 62t11 35q2 7 5.5 14.5t8.5 13.5q2 3 11.5 9.5l21.5 14.5l22.5 15.5t15.5 12.5q4 5 9.5 8.5t9.5 3.5q6 0 5 -11q-2 -8 -3 -20t1 -22q6 -37 25 -95.5t45.5 -122.5t55.5 -124t55 -100
q14 -21 14.5 -37t-18.5 -16z" />
    <glyph glyph-name="Omega" unicode="&#x2126;" horiz-adv-x="690" 
d="M193 83q-17 8 -37.5 21t-38 34.5t-29 52.5t-11.5 75q0 55 25 102.5t67.5 82.5t99.5 54.5t121 19.5q48 0 90 -16t73 -44t49 -66.5t18 -82.5q0 -50 -10.5 -84.5t-29 -59t-45 -43t-57.5 -36.5q-9 -5 -6.5 -8.5t9.5 -4.5q13 -1 34.5 -2t38.5 -1q41 0 65 7t43 23q6 4 8.5 2.5
t2 -7t-3 -12t-6.5 -12.5q-27 -37 -64.5 -59t-69.5 -22t-64 1t-46 1q-13 0 -35 -1t-32 -3q-3 -1 -6.5 1t-0.5 8l15 26.5t12 18.5q27 17 48 35.5t35.5 44t22.5 61.5t8 90q0 45 -11.5 81.5t-32.5 62t-50 39t-63 13.5q-61 0 -90 -49.5t-29 -130.5q0 -42 7 -79t20.5 -66.5
t33.5 -50t47 -29.5q5 -2 4.5 -7t-2.5 -9q-5 -8 -12 -17t-14 -17t-13.5 -14t-10.5 -9l-61 3q-9 0 -25.5 -0.5t-35 -1t-37 -1.5t-30.5 -1q-31 0 -50 8.5t-14 23.5q3 9 10.5 20.5t16.5 23t17.5 20t12.5 10.5q10 -10 20 -15t36 -6l63 -1v2z" />
    <glyph glyph-name="pi" unicode="&#x3c0;" horiz-adv-x="495" 
d="M176 291q-2 -41 -5 -81.5t-7 -75.5t-9.5 -63.5t-12.5 -45.5q-5 -11 -32 -25t-67 -14q-5 0 -10 2t-6.5 5t1.5 7.5t12 9.5q36 20 55.5 73t24.5 133q1 13 0.5 27.5t-1.5 26.5t-2.5 19.5t-4.5 7.5q-20 0 -45.5 -5t-39.5 -17q-18 -15 -21 -5.5t8 25.5q8 12 26 28t40 29.5
t45.5 22.5t44.5 8l160 -6q36 -2 59.5 -1t38.5 4t23 7t12 9q11 14 18.5 11t3.5 -24l-5.5 -24t-8 -29t-10 -25t-9.5 -14t-12 -4.5t-16.5 -2.5t-17 -1.5t-13.5 -0.5q-3 -8 -5.5 -22t-4.5 -30.5t-3 -33.5t-1 -30q0 -17 3 -34.5t10.5 -31.5t19 -23.5t29.5 -9.5q8 0 20.5 3.5
t23.5 10.5q8 5 8 -6.5t-13 -25.5q-30 -35 -68 -49.5t-71 -14.5q-35 0 -57.5 30t-22.5 80q0 24 2 46.5t6 45t10 46.5t14 52z" />
    <glyph glyph-name="partialdiff" unicode="&#x2202;" horiz-adv-x="452" 
d="M219 34q22 0 37 14t24 37t13 53t4 62q0 7 -5.5 18.5t-16 22.5t-24.5 19t-30 8q-41 0 -56.5 -32.5t-15.5 -86.5q0 -53 20 -84t49 -31h1zM59 462q-8 -5 -12 -2.5t1 11.5q5 8 15.5 20t20.5 20q20 17 56.5 30t76.5 13q42 0 77.5 -15t61.5 -45.5t40.5 -76.5t14.5 -108
q0 -94 -23.5 -155t-59 -96.5t-76.5 -49.5t-76 -14q-39 0 -66 10.5t-44.5 28.5t-25.5 42.5t-8 51.5q0 31 14.5 62.5t42.5 57t68.5 42t91.5 16.5q16 0 22 -1.5t16 -3.5q11 -3 13 5q1 5 1 9.5v9.5q0 32 -11.5 61.5t-30.5 52.5t-43.5 36.5t-49.5 13.5q-34 0 -61.5 -7t-45.5 -19z
" />
    <glyph glyph-name="product" unicode="&#x220f;" horiz-adv-x="612" 
d="M255 457q-1 -22 -3 -59t-5 -82.5t-7 -98t-9 -106.5q-8 -77 -3 -116.5t13 -50.5q4 -6 2 -8.5t-4 -4.5q-6 -6 -21.5 -13.5t-33.5 -14.5t-35 -11.5t-27 -4.5q-23 0 -23 35q0 26 2.5 65.5t6.5 85.5l8.5 96l8.5 96.5t6.5 86t2.5 65.5q0 27 -7.5 33.5t-18.5 6.5
q-30 0 -52.5 -6.5t-36.5 -15.5q-6 -4 -8.5 -3t-2 5t3 10t7.5 12q6 8 19.5 18.5t31.5 19.5t38.5 15t41.5 6l333 -4q39 -1 69 3.5t43 16.5q7 7 11.5 3t-3.5 -19q-2 -3 -5.5 -11.5t-8.5 -18t-10.5 -17.5t-10.5 -11q-7 -4 -18 -5l-23 -2q-11 0 -15 -4t-6 -24q-5 -58 -8 -116.5
t-4.5 -110.5t-1.5 -93t2 -64q1 -14 2.5 -30.5t6 -30.5t13.5 -23.5t26 -9.5q5 0 12 1.5t12 3.5q3 1 3.5 -1.5t-1 -7.5t-4 -10t-5.5 -8q-6 -6 -17.5 -13t-28 -13t-37.5 -10.5t-44 -4.5q-34 0 -46 23t-18 72q-3 25 -2.5 78t3.5 119.5t7.5 139t9.5 137.5z" />
    <glyph glyph-name="summation" unicode="&#x2211;" horiz-adv-x="467" 
d="M239 -110q-27 0 -54.5 1.5t-52.5 3.5t-45.5 4t-32.5 2h-23t-21 -2q-2 -1 -3 5t10 15q9 7 23.5 24.5l31.5 39.5l35 47.5l34 48.5l29 43l20 31t7 19t-3 14q-5 8 -17.5 33l-30 57.5l-36 68.5l-35 66.5l-28.5 51.5t-14 24q-3 3 -2 5.5t5 7.5q2 2 14.5 6t29.5 8t34.5 7t30.5 3
q1 0 4 -2t5 -4t3.5 -2t8.5 2q6 2 11 2t38 -4t81 -4q62 0 92.5 1.5t41.5 4.5q7 2 6 -3.5t-9 -13.5q-11 -11 -22.5 -19.5t-26.5 -14t-35 -8t-47 -2.5q-7 0 -21 0.5t-28.5 0.5t-26.5 0.5t-16 0.5q-8 1 -8 -9q0 -8 12 -33t28 -54l32 -56.5t25 -39.5q10 -14 9.5 -20t-8.5 -18
l-37.5 -52l-44.5 -64.5l-39.5 -59t-21.5 -33.5q-5 -9 -2 -13t13 -6q3 -1 18.5 -3l36.5 -4.5t44.5 -4t43.5 -1.5q45 0 82 4t69 27q9 6 8.5 -5.5t-9.5 -22.5q-18 -23 -36 -41.5t-42 -32t-56.5 -20.5t-80.5 -7h-1z" />
    <glyph glyph-name="radical" unicode="&#x221a;" horiz-adv-x="465" 
d="M465 672q5 0 1 -16l-30 -141l-32.5 -152l-32 -151l-29 -136.5l-23 -109t-13.5 -68.5q-1 -5 -8.5 -16t-16.5 -22.5t-18 -20t-13 -8.5q-3 0 -4.5 2.5t-3.5 10.5q-6 38 -19.5 89.5t-30.5 101.5t-34.5 91.5t-29.5 58.5t-16 20t-11 3q-5 0 -22.5 -7t-32.5 -15q-12 -5 -15 -5
t-1 7q5 12 12 25t12 15q13 5 27.5 12.5l29 15t26.5 14.5l20 12q5 2 14 7t16 5q5 0 14 -9t16 -22q10 -18 19.5 -43.5t18.5 -55t17 -59.5t13 -57q4 -19 9 -15.5t7 16.5l24.5 135l27.5 148l28.5 151.5l28.5 145.5q1 7 8 14.5t15.5 14t17 10.5t13.5 4h1z" />
    <glyph glyph-name="infinity" unicode="&#x221e;" horiz-adv-x="585" 
d="M426 264q-30 0 -52 -16t-38 -32l31 -32.5t31.5 -29.5t29.5 -21t26 -8q23 0 36 14.5t13 46.5q0 14 -5 28t-14.5 25t-24 18t-32.5 7h-1zM161 128q22 0 36 4.5t24.5 11.5t18.5 16.5t17 18.5l-23.5 27t-28.5 28t-31.5 22t-32.5 9q-35 0 -45.5 -15.5t-10.5 -44.5q0 -15 7 -29
t18.5 -24.5t24.5 -17t25 -6.5h1zM552 215q0 -27 -12 -53.5t-31.5 -47.5t-44.5 -34t-50 -13q-37 0 -68 20.5t-72 69.5l-34.5 -39t-31 -28.5t-33 -17.5t-40.5 -6q-40 0 -69.5 26.5t-29.5 80.5q0 28 13 55.5t34 49.5t47 35.5t52 13.5q39 0 72 -26t64 -65q35 41 67.5 65.5
t77.5 24.5q39 0 64 -29.5t25 -80.5v-1z" />
    <glyph glyph-name="integral" unicode="&#x222b;" horiz-adv-x="290" 
d="M311 551q0 -10 -8 -5q-15 11 -37.5 17.5t-48.5 6.5q-9 0 -15.5 -6.5t-10 -23t-4.5 -44t1 -70.5q2 -40 6 -85.5l8.5 -92.5t7.5 -93t3 -87q0 -32 -16 -68.5t-43 -67t-61.5 -51t-71.5 -20.5q-26 0 -41.5 24t-9.5 59q1 11 8 6q11 -8 26 -14.5t30 -10.5t28.5 -6t21.5 -2
q6 0 11 4t8.5 17t4.5 38t-1 67q-2 27 -5.5 70.5l-7.5 91.5t-7.5 96.5t-4.5 86.5q-1 59 19.5 103.5t50 74t60.5 44t51 14.5q17 0 27 -8.5t15 -20.5t6 -24.5t0 -19.5z" />
    <glyph glyph-name="approxequal" unicode="&#x2248;" horiz-adv-x="494" 
d="M314 53q-23 0 -47.5 9t-62.5 27q-23 9 -39.5 14t-27.5 5q-13 0 -29 -6.5t-27 -26.5q-5 -8 -12 -12t-20 -9q-7 -3 -8 -1t0 8q1 12 11 33t27.5 41.5t41.5 36t54 15.5q22 0 46.5 -10.5l52.5 -21.5q26 -11 45.5 -17t33.5 -6q17 0 32 8t25 26q3 7 11 12.5t19 10.5q6 2 7.5 0.5
t0.5 -8.5q-3 -24 -14 -47t-29 -41t-41 -29t-49 -11h-1zM322 221q-23 0 -47.5 9t-62.5 27q-23 9 -39.5 14.5t-27.5 5.5q-13 0 -29 -7t-27 -27q-5 -8 -12.5 -12t-20.5 -9q-7 -3 -7.5 -1t0.5 9q1 11 11 32t27.5 42t41.5 36.5t54 15.5q22 0 46.5 -10.5l51.5 -22.5q27 -11 46 -17
t33 -6q18 0 33 8t24 26q7 13 29 23q6 2 7.5 0t1.5 -9q-3 -24 -14 -47t-28.5 -41t-40.5 -28.5t-49 -10.5h-1z" />
    <glyph glyph-name="notequal" unicode="&#x2260;" horiz-adv-x="550" 
d="M173 144q12 0 27 -0.5t29 -0.5l28 52l27 52h-79q-34 1 -66 0.5t-52 -5.5q-6 -2 -6.5 3.5t7.5 16.5q10 15 22 25t27.5 15.5t35.5 8t46 2.5q20 0 45.5 -0.5t51.5 -1.5q8 19 15 33.5t10 24.5q1 4 11 9.5t22 11t23 9.5t15 6q3 1 5.5 -1t-2.5 -16q-2 -10 -11.5 -31t-23.5 -48
q31 -2 66 -3t54 -1q5 0 2.5 -6t-8.5 -15q-17 -26 -47.5 -32.5t-75.5 -7.5h-24l-28 -51.5l-28 -51.5q17 -1 35 -1.5t35 -0.5q10 0 28 -0.5t36.5 -0.5t35.5 0.5t25 0.5q3 0 4 -4t-7 -15q-19 -27 -51 -37.5t-79 -11.5q-26 -1 -52.5 0t-49.5 1l-24 -41t-14 -22q-9 -11 -20 -17.5
t-21 -9.5t-18 -4t-9 -1q-5 0 -7 4.5t6 14.5q7 9 19.5 31l26.5 46q-13 0 -31 1t-37 1t-37 -1t-31 -4q-4 -1 -4 4.5t11 19.5q23 30 48 40t63 10h1z" />
    <glyph glyph-name="lessequal" unicode="&#x2264;" horiz-adv-x="477" 
d="M185 72q49 0 112 -3t132 -2q6 0 6 -4.5t-8 -15.5q-11 -17 -27.5 -26.5t-35.5 -14.5t-40 -6t-42 -1q-23 0 -49 1t-59 1q-43 1 -76.5 0t-50.5 -5q-4 -2 -4 4t8 17q14 18 28 29t30 17t34 7.5t41 1.5h1zM408 455q5 0 4 -3t-3 -8q-8 -15 -19 -26t-20 -16l-70 -34.5t-44 -23.5
t-28.5 -18l-23.5 -17q-14 -10 -16.5 -17t5.5 -16q4 -4 15 -12.5t33 -22.5l57 -35.5l87 -51.5q11 -6 12 -11.5t-13 -19.5l-15.5 -14t-16.5 -11.5t-18.5 -4.5t-21.5 7l-59.5 34.5t-66 40.5l-61.5 41.5t-46 37.5q-18 18 -2 34q13 13 47 34t75.5 43t82.5 41.5t68 30.5
q20 8 35.5 13t21.5 5h1z" />
    <glyph glyph-name="greaterequal" unicode="&#x2265;" horiz-adv-x="477" 
d="M183 72q50 0 112 -3.5t131 -1.5q8 0 7 -3.5t-8 -14.5q-11 -17 -27 -27t-35 -15.5t-40 -6.5t-42 -1q-23 0 -49 1t-59 1q-43 1 -75.5 0.5t-49.5 -5.5q-7 -2 -7 3.5t10 18.5q14 18 28 28.5t29.5 16.5t33.5 7.5t40 1.5h1zM83 91q-4 0 -5 1t2 6q8 15 19 27t20 17l70 34.5
t44 24l28.5 18t23.5 16.5q14 10 16.5 17t-5.5 16q-4 4 -15 12.5t-33 22.5l-57 35.5l-87 51.5q-11 7 -12.5 12t13.5 19q7 7 15 14t17 11.5t18.5 4.5t21.5 -7l59.5 -34.5l66 -40t61.5 -41t46 -38.5t2 -33q-13 -13 -47 -34t-75.5 -43.5t-82.5 -42t-68 -29.5q-20 -8 -34.5 -12.5
t-20.5 -4.5h-1z" />
    <glyph glyph-name="lozenge" unicode="&#x25ca;" horiz-adv-x="467" 
d="M338 232q-8 12 -21.5 35l-28.5 50l-29.5 54l-24.5 47q-5 11 -8 11.5t-11 -11.5q-3 -7 -12.5 -23.5l-21.5 -36l-24.5 -39.5t-22.5 -33q-5 -6 -4.5 -10.5t4.5 -11.5q8 -15 22.5 -38l30 -49l29.5 -51t23 -43q6 -12 10.5 -13t10.5 9q14 28 35.5 61.5t41.5 60.5q6 9 7.5 13.5
t-6.5 17.5zM423 242q-14 -15 -37 -45.5t-47 -66l-45.5 -70t-31.5 -57.5q-1 -2 -10 -8.5t-19.5 -13t-20.5 -12t-13 -5.5t-5 1t-4 6q-13 31 -32.5 68.5l-39.5 72.5t-39 64t-32 44q-7 8 -5 14.5t16 24.5q21 27 47 64l49 72t40 63.5t21 38.5q2 6 12 14t21 15t21 12t12 5
q4 0 5 -2.5t3 -5.5q9 -29 27 -67t38 -75t40 -69t32 -49q7 -9 7.5 -15.5t-10.5 -17.5z" />
    <glyph glyph-name="uni00A0" unicode="&#xa0;" horiz-adv-x="178" 
 />
    <glyph glyph-name="quotedbl" unicode="&#x22;" horiz-adv-x="348" 
d="M293 616q11 0 17 -6t8.5 -15t2.5 -19.5t-1 -19.5t-4.5 -25t-9.5 -35t-14.5 -39.5t-17.5 -39.5q-8 -17 -28 -32t-34 -23q-17 -8 -14 10q2 12 4 30.5l4 38.5t3 39t1 32q0 19 -2 33t-8 22q-5 6 1.5 13t37.5 21q18 8 31.5 11.5t21.5 3.5h1zM130 616q11 0 17 -5.5t8.5 -14.5
t3 -19.5t-0.5 -20.5q-1 -9 -4.5 -25t-9.5 -35t-14.5 -39.5t-17.5 -39.5q-8 -17 -27.5 -32t-33.5 -23q-18 -10 -15 10q2 12 4.5 30.5t4 38.5t2.5 39t1 32q0 19 -2 33.5t-8 22.5q-5 6 1 13t34 19q19 8 33.5 12t22.5 4h1z" />
    <glyph glyph-name="exclam" unicode="!" horiz-adv-x="243" 
d="M102 -18q-7 0 -16.5 8.5t-18.5 20.5t-15.5 25t-6.5 21q0 10 8 21.5t19.5 22t24 19t20.5 12.5q14 8 21 6.5t14 -13.5q12 -23 41 -57q8 -8 -0.5 -23t-30.5 -32q-23 -17 -38 -24t-21 -7h-1zM90 168q-11 0 -15 14t-3 40q1 22 2.5 48.5t2.5 53.5t1.5 51.5t0.5 44.5q0 15 -3 28
t-8 19q-2 4 -2 5t5 5q4 2 22 9.5t39 15t40.5 13.5t25.5 6q9 0 14 -6t6.5 -16t0.5 -23t-3 -26q-3 -17 -8.5 -41.5t-10.5 -49.5l-9.5 -47.5t-6.5 -35.5q-3 -17 0 -31.5t11 -20.5q3 -3 3 -5t-6 -8q-5 -5 -18.5 -12.5t-29 -14t-30 -11.5t-20.5 -5h-1z" />
    <glyph glyph-name="Lslash" unicode="&#x141;" horiz-adv-x="491" 
d="M349 62q27 0 63.5 4.5t65.5 15.5q7 2 7 -4t-12 -19q-20 -21 -45 -33.5t-52.5 -19.5t-56.5 -9.5t-56 -2.5q-20 0 -42.5 1t-37.5 3q-6 1 -16.5 1t-22.5 -4q-7 -2 -18 -4t-16 -2q-4 0 -8 3t-8 12q-4 8 -5.5 18.5t-2.5 23.5q-1 20 0.5 52.5t6.5 80.5l-30 -17.5t-31 -16.5
q-11 -7 -12.5 -4t4.5 19q6 14 14 29t19 23l17 10.5l23 13.5q3 43 5 86t2 73q0 29 -2.5 49.5t-10.5 30.5q-5 5 -3.5 8.5t15.5 9.5q15 7 31 13.5t30 11t24 7t14 2.5q13 0 19.5 -12t9 -29t1.5 -35.5t-1 -31.5q-2 -29 -3 -55t-3 -55l42 23l36 19q16 9 28 1q9 -5 17 -10.5
t8 -10.5t-9.5 -11.5t-20.5 -12.5l-51 -27.5l-55 -29.5q-3 -33 -4 -63t-2 -56q-1 -33 13.5 -46t35.5 -17q33 -6 85 -6h1z" />
    <glyph glyph-name="lslash" unicode="&#x142;" horiz-adv-x="270" 
d="M136 -10q-14 0 -26.5 7t-21.5 18q-11 14 -16 44t-3 82q2 24 3 49t3 51l-27.5 -13l-24.5 -12q-13 -7 -8 10q5 19 13 33.5t16 19.5l17 8.5t18 9.5q4 58 7 113.5t4 106.5q3 59 -20 79q-12 10 8 24q13 8 29 16t31.5 14.5t29 10.5t20.5 4q9 0 13.5 -16t6 -38t1.5 -45t-1 -37
q-2 -32 -5.5 -76.5t-5.5 -93.5l38 21l29 16q7 4 9 3t2 -6q0 -12 -10.5 -30.5t-21.5 -26.5q-17 -13 -49 -32q-2 -40 -3.5 -76.5t-1.5 -65.5q-1 -38 2 -55t11 -28q12 -15 30 -15q8 0 22 2.5t23 4.5q2 1 3 -8t-16 -22q-13 -10 -30 -19t-35 -16t-34.5 -11.5t-27.5 -4.5h-1z" />
    <glyph glyph-name="onesuperior" unicode="&#xb9;" 
d="M160 303q-11 0 -18.5 8t-9.5 28q-1 8 0 25t2.5 38t3.5 43.5t4 41.5q2 23 3 35.5t0 20.5q-1 9 -10 6q-14 -4 -34 -7t-31 -3h-10.5t-10.5 1q-11 3 -3 11q3 4 11 9.5t18 8.5q16 4 35.5 10t39.5 13t38.5 14.5l32.5 13.5l18 8t12 3q9 0 9 -7q0 -6 -5 -11q-3 -6 -3 -20
q-1 -28 -3.5 -70.5t-6.5 -78.5q-2 -26 -1.5 -40.5t1.5 -24.5q1 -16 14 -22q8 -2 8 -9q-1 -7 -14.5 -15t-31 -14.5t-34 -11t-23.5 -4.5h-1z" />
    <glyph glyph-name="Eth" unicode="&#xd0;" horiz-adv-x="640" 
d="M294 463q-20 0 -35 -3q-8 -1 -8 -12q0 -15 -1 -35l-2 -40.5l-2 -40t-2 -33.5q0 -7 1 -9.5t8 -3.5q10 -1 23.5 -1.5t26.5 -0.5h22.5t24.5 0.5t21.5 1t13.5 1.5q5 1 2.5 -6t-12.5 -16q-11 -11 -22.5 -17.5t-26 -10.5t-34 -5.5t-46.5 -1.5q-8 0 -9 -10q0 -14 -1 -33t0 -39.5
t6 -38.5t17 -28q14 -12 33 -19.5t42 -7.5q21 0 39.5 4t34.5 14q9 5 22 17t25 34t20.5 56.5t8.5 85.5q0 48 -15 84.5t-40.5 62t-60 38.5t-73.5 13h-1zM363 520q66 0 112 -17.5t77 -44.5q29 -26 45 -66t16 -89q0 -44 -10 -78.5t-27 -62t-38.5 -48.5t-45.5 -37q-28 -19 -60 -35
t-66 -28t-69 -19t-68 -7q-13 0 -27.5 2.5t-28.5 9.5t-26 18t-20 28q-17 35 -16 81t5 97q1 6 0 8.5t-7 3.5q-8 1 -20 1t-25 -0.5t-24.5 -2t-19.5 -3.5q-5 -2 -5 3.5t7 13.5q21 24 38.5 33.5t50.5 9.5q7 0 8.5 2t2.5 7q1 9 2 25.5t1.5 34.5t0.5 34.5t-1 26.5q0 12 -11 8
q-10 -3 -22 -8t-23.5 -10.5l-21.5 -10.5t-14 -8q-6 -4 -7.5 0t4.5 15q2 4 7 11.5t16 15.5q8 7 19.5 15t35.5 17q6 3 9 5l6 4q4 3 9 5.5t9 6.5q4 6 17 13t28 13t27.5 10t17.5 4t13 -14q2 -4 4.5 -4.5t7.5 1.5q24 5 50.5 7.5t55.5 2.5h1z" />
    <glyph glyph-name="onehalf" unicode="&#xbd;" horiz-adv-x="785" 
d="M610 316q29 0 48 -8t30.5 -20t16.5 -27t5 -30q0 -23 -13.5 -42.5t-33 -35.5t-41.5 -29.5l-39 -23.5q-9 -6 -9.5 -10.5t6.5 -5.5q5 -1 15 -2.5t19 -3.5q12 -4 32 -7t35 -3q12 0 27 5.5t26 16.5q14 11 18 8q5 -3 3 -12.5t-12 -22.5q-21 -27 -53.5 -50t-67.5 -23
q-11 0 -26 3t-30 7l-28 7.5t-19 4.5q-8 2 -12.5 2h-6.5q-20 0 -35.5 -10.5t-27.5 -10.5q-8 0 -7.5 9.5t8.5 18.5t26.5 25l38.5 33q34 27 61 60t27 66q0 17 -12 29t-36 12q-17 0 -37.5 -10t-30.5 -18q-17 -15 -22 -15t-5 12q0 6 8.5 18t33.5 33l21.5 16t28 16.5t33.5 12.5
t36 5h1zM617 558q11 0 0 -21q-7 -13 -26 -40l-45 -62.5l-58 -77.5l-65 -85l-66.5 -85l-62.5 -78l-52.5 -63l-36.5 -41q-9 -10 -22 -19t-25.5 -16t-23.5 -11.5t-16 -4.5q-8 0 -9 3.5t10 15.5q22 23 52.5 59l65.5 79.5l73 92l73.5 95.5l67.5 90l56 76q13 19 23 36t14 25
q2 8 14.5 12.5t23.5 9.5q23 10 34 10h1zM158 184q-11 0 -18.5 8t-9.5 28q-1 8 0 25t2.5 38t3.5 43.5t4 41.5l3 35t0 20q-1 9 -10 7q-14 -5 -34 -7.5t-31 -2.5q-5 0 -10.5 -0.5t-10.5 1.5q-12 2 -3 11q3 4 11 9.5t18 7.5q16 4 35.5 10.5l39.5 13.5t38.5 14.5l32.5 13.5l18 8
t12 3q9 0 9 -7q0 -6 -5 -11q-3 -6 -3 -20t-1 -32.5t-2.5 -38.5l-3 -40.5t-3.5 -38.5q-2 -26 -1.5 -40t1.5 -25q2 -15 14 -21q8 -2 8 -9q-1 -8 -14.5 -15.5t-31 -14.5t-34 -11t-23.5 -4h-1z" />
    <glyph glyph-name="Thorn" unicode="&#xde;" horiz-adv-x="492" 
d="M339 262q0 43 -26.5 73.5t-68.5 30.5q-11 0 -21 -2q-5 -2 -7.5 -4.5t-3.5 -10.5q-1 -17 -2 -44.5t-2.5 -55.5t-3 -51t-1.5 -32q-1 -8 3 -10.5t13 -4.5q53 -6 86.5 23t33.5 87v1zM311 411q76 0 115.5 -32.5t39.5 -88.5q0 -32 -13 -56.5t-34 -43.5t-46.5 -32t-49.5 -23
q-39 -16 -69 -23.5t-41 -8.5q-13 -1 -12 -12q0 -15 3 -34.5t15 -30.5q5 -4 3 -7t-10 -8q-6 -4 -18.5 -9t-27 -9t-28.5 -7t-23 -3q-15 0 -23 6t-12 16.5t-5 24.5t-1 30q0 18 1.5 43l3 52l3 54.5t3.5 50.5q6 94 5.5 143t-15.5 70q-4 7 -2.5 10.5t13.5 11.5q9 6 24 13t30.5 13
t29 10.5t18.5 4.5q12 0 18.5 -16t9 -37t2.5 -41.5t-1 -30.5q-1 -7 3.5 -7.5t10.5 1.5q13 2 33 4t46 2h1z" />
    <glyph glyph-name="onequarter" unicode="&#xbc;" horiz-adv-x="785" 
d="M648 233q13 0 13.5 -14.5t0.5 -28.5q0 -9 -2 -26.5t-4 -30.5q-2 -8 5 -8q15 0 32 1t29 6q11 5 11 -2q0 -5 -5 -10.5l-10 -10.5q-12 -11 -29 -17.5t-29 -7.5q-11 0 -12 -9q-1 -5 -2 -16t-1 -20q0 -8 3 -15.5t8 -10.5q7 -4 6 -7.5t-9 -8.5q-5 -3 -14.5 -8t-21.5 -9.5
t-24.5 -7.5t-22.5 -3q-11 0 -16 4.5t-7 16t-0.5 31t4.5 50.5q0 5 -1.5 7t-7.5 3q-3 0 -12 1t-22 2t-28 2t-28 1q-31 0 -38 -7q-7 -5 -13 -5q-3 0 -6.5 2t-3.5 10q0 5 6 16t14 20l35 39.5l40.5 46.5l39 47.5t29.5 41.5l13 21t5 13q0 4 4.5 8.5t17.5 12.5q8 5 18.5 10t15.5 5
q8 0 8 -12t-15.5 -36t-32.5 -44l-31 -36.5l-34.5 -40l-29 -34.5t-15.5 -19q-9 -13 0 -11q13 0 32 -1t33 -3q10 -1 13 9q2 10 2.5 13.5t0.5 8.5q0 17 -3 25q-1 4 -0.5 6.5t6.5 7.5q6 4 17.5 9.5t24 10.5t24.5 8.5t18 3.5h1zM616 558q11 0 0 -21q-10 -18 -39 -59l-68.5 -94
l-85.5 -112l-88.5 -112l-77 -95t-52.5 -60q-9 -10 -22 -19t-25.5 -16t-23.5 -11.5t-16 -4.5q-8 0 -9 3.5t10 15.5q22 23 52.5 59.5l65.5 80l73 92l73.5 95.5l67.5 90l56 76q13 19 23 35.5t14 24.5q2 8 14.5 12.5t23.5 9.5q23 10 33 10h1zM156 184q-11 0 -18.5 8t-9.5 28
q-1 9 0 26t2.5 38t3.5 43t4 41q2 23 3 35.5t0 20.5q-1 9 -10 6q-14 -4 -34 -7t-31 -3h-10.5t-10.5 1q-11 3 -3 11q3 4 11 9.5t18 8.5q16 4 35.5 10.5l39.5 13.5l38.5 14t32.5 13l18 8t12 3q9 0 9 -7q0 -6 -5 -11q-2 -2 -2.5 -8t-0.5 -12q-1 -28 -3.5 -70.5t-6.5 -78.5
q-2 -26 -1.5 -40.5t1.5 -24.5q2 -17 14 -21q8 -3 8 -9q-1 -8 -14.5 -16t-31 -14.5t-34 -11t-23.5 -4.5h-1z" />
    <glyph glyph-name="brokenbar" unicode="&#xa6;" horiz-adv-x="250" 
d="M85 175h80v-350h-80v350zM165 675v-350h-80v350h80z" />
    <glyph glyph-name="thorn" unicode="&#xfe;" horiz-adv-x="490" 
d="M271 307q-21 0 -40.5 -16t-30.5 -30q-9 -11 -14 -27t-7 -46q0 -7 -1 -25l-2 -37.5t-2 -36.5t-1 -23q0 -10 3 -14t10 -6t16.5 -3t20.5 -1q34 0 59.5 11t41.5 37q8 14 14 40.5t6 63.5q0 19 -4.5 39.5t-13.5 36.5t-22.5 26.5t-31.5 10.5h-1zM362 387q25 0 44.5 -11t33 -29
t20.5 -41.5t7 -48.5q0 -63 -24.5 -106.5t-69.5 -81.5q-21 -19 -46 -34t-51 -25.5t-50.5 -17t-45.5 -7.5q-14 0 -15 -14q-1 -7 -1 -19.5v-28t0.5 -31.5t0.5 -31q-1 -35 6 -52.5t15 -24.5q3 -3 4 -5.5t-9 -10.5q-6 -5 -20 -12.5t-30.5 -15t-33 -13t-26.5 -5.5q-12 0 -18 15
t-8 36t-1.5 42.5t1.5 34.5q2 27 4.5 71l5.5 94t5.5 100t5.5 88q3 47 5 96t3 92.5t1 78t-1 52.5q-2 29 -10.5 49t-17.5 28q-2 1 -1 4.5t8.5 8.5t22.5 13t41 20q13 6 25.5 10t17.5 4q12 0 19 -16.5t10 -39.5t3.5 -47t0.5 -40q-1 -24 -2 -55t-1.5 -60t-1 -51.5t-0.5 -28.5
q0 -14 13 -5q10 6 37 21l54 29q18 10 36 15.5t33 5.5h1z" />
    <glyph glyph-name="threequarters" unicode="&#xbe;" horiz-adv-x="785" 
d="M671 233q13 0 13.5 -14.5t0.5 -28.5q0 -9 -2 -26.5t-4 -30.5q-2 -8 5 -8q15 0 32 1t29 6q11 5 11 -2q0 -5 -5 -10.5l-10 -10.5q-12 -11 -29 -17.5t-29 -7.5q-11 0 -12 -9q-1 -5 -2 -16t-1 -20q0 -8 3 -15.5t8 -10.5q7 -4 6 -7.5t-9 -8.5q-5 -3 -14.5 -8t-21.5 -9.5
t-24.5 -7.5t-22.5 -3q-11 0 -16 4.5t-7 16t-0.5 31t4.5 50.5q0 5 -1.5 7t-7.5 3q-3 0 -12 1t-22 2t-28 2t-28 1q-31 0 -38 -7q-7 -5 -13 -5q-3 0 -6.5 2t-3.5 10q0 5 6 16t14 20l35 39.5l40.5 46.5l39 47.5t29.5 41.5q18 26 18 33q0 5 4.5 9.5t17.5 12.5q8 5 18.5 10t15.5 5
q8 0 8 -12t-15.5 -36t-32.5 -44l-31 -36.5l-34.5 -39.5l-29 -34t-15.5 -20q-9 -13 0 -11q13 0 32 -1t33 -3q10 -1 13 9q2 11 2.5 14t0.5 8q0 17 -3 25q-1 4 -0.5 6.5t6.5 7.5q6 4 17.5 9.5t24 10.5t24.5 8.5t18 3.5h1zM642 558q11 0 0 -21q-10 -18 -39 -59l-69 -94l-86 -112
l-88 -112l-77 -95t-52 -60q-10 -10 -23 -19t-25.5 -16t-23.5 -11.5t-16 -4.5q-8 0 -9 3.5t10 15.5q22 23 52.5 59l66 80l73 92l73.5 95.5l67.5 90.5l55.5 76q14 18 23.5 35t13.5 25q3 8 15 12.5t23 9.5q23 10 34 10h1zM223 506q13 0 27.5 -3.5t26.5 -11t19.5 -19t7.5 -27.5
q0 -14 -13 -29t-44 -32q-12 -7 -12 -11q0 -3 6.5 -6t17.5 -7q9 -3 20 -8t20.5 -12.5t15.5 -18.5t6 -25q0 -29 -29 -57t-90 -54q-29 -13 -51.5 -19.5t-45.5 -6.5q-10 0 -22 2.5t-22.5 7.5t-17.5 13t-7 19q0 7 5 15t12.5 14.5t14.5 10.5t12 4t6.5 -1t4.5 -6q10 -15 27 -25
t37 -10q49 0 49 54q0 32 -22 45q-10 5 -21 7.5t-20 2.5q-8 0 -17 -1t-12 -2q-6 0 -9.5 0.5t-3.5 5.5t8.5 17t20.5 18q10 4 21.5 9.5t20.5 13t15 18.5t6 27q0 15 -10.5 26.5t-27.5 11.5q-14 0 -20.5 -7.5t-8.5 -16.5q-2 -11 -12 -16.5t-22 -11.5q-9 -5 -18 -8t-13 -3
q-11 0 -8.5 13t15.5 26q13 12 31.5 25.5t39.5 24t43 17.5t42 7h1z" />
    <glyph glyph-name="twosuperior" unicode="&#xb2;" 
d="M196 625q29 0 48 -8t30.5 -20t16.5 -27t5 -30q0 -24 -13.5 -43.5t-33 -35.5t-41.5 -29l-39 -23q-9 -6 -9.5 -10.5t6.5 -5.5q5 -1 15 -2.5t19 -3.5q12 -3 32 -6t35 -3q12 0 27 5.5t26 16.5q14 11 18 7q5 -3 3 -12t-12 -22q-21 -27 -53.5 -50t-67.5 -23q-11 0 -26 3
t-30 6.5t-28 7t-19 4.5q-8 2 -12.5 2t-6.5 1q-20 0 -35.5 -10.5t-27.5 -10.5q-8 0 -7.5 9.5t8.5 18.5t26.5 24.5l38.5 32.5q34 27 61 60t27 66q0 17 -12 29t-36 12q-17 0 -37.5 -10t-30.5 -18q-17 -15 -22 -15t-5 12q0 6 8.5 18t33.5 33l21.5 16t28 16.5t33.5 12.5t36 5h1z
" />
    <glyph glyph-name="minus" unicode="&#x2212;" horiz-adv-x="550" 
d="M166 235q42 0 79.5 -1.5l86.5 -3.5q56 -2 101.5 -3t73.5 1q9 0 -4 -19q-12 -17 -27.5 -26.5t-36 -14t-45.5 -5t-55 0.5q-46 1 -79 2.5t-57.5 2t-42 1t-32.5 0.5q-27 0 -45 -1t-29 -3q-14 -2 0 18q20 29 45.5 40t65.5 11h1z" />
    <glyph glyph-name="eth" unicode="&#xf0;" horiz-adv-x="462" 
d="M241 51q22 0 37 15t23.5 46t12 66t4 69t0.5 57q0 16 -7 13q-8 -4 -14 -3.5t-15 4.5q-8 3 -18.5 5t-26.5 2q-15 0 -28 -4.5t-26 -16.5q-12 -12 -22 -41t-10 -72q0 -27 5 -52.5t16 -45t27.5 -31t40.5 -11.5h1zM192 638q42 0 77 -17.5t58 -40.5q7 -7 18 -1l28 20t23 14
q10 5 26.5 5.5t25.5 -2.5q4 -2 1 -6t-14 -15t-25.5 -23t-37.5 -29q-9 -5 -1 -16q20 -31 38.5 -82.5t18.5 -114.5q0 -57 -8.5 -105.5t-28 -88t-52.5 -70.5t-82 -55q-48 -23 -92 -23q-66 0 -101 41t-35 104q0 38 12 70.5t33 59.5t50 48.5t63 36.5q31 14 53.5 19t38.5 5
q14 0 26 -3q9 -2 7 8q-2 20 -10.5 46t-18.5 43q-7 11 -18 4q-52 -35 -72 -43q-14 -5 -30.5 -5t-25.5 3q-5 2 -5.5 4.5t9.5 10.5q20 16 47 34l54 36q12 7 4 16q-25 32 -55.5 43t-52.5 11q-23 0 -43 -4t-29 -8q-6 -3 -4.5 6t8.5 16q7 6 19.5 14.5t28.5 16t35 12.5t38 5h1z" />
    <glyph glyph-name="multiply" unicode="&#xd7;" horiz-adv-x="550" 
d="M424 11q-11 0 -32.5 18.5t-45.5 46.5l-33.5 38l-32.5 36q-5 5 -8.5 5t-10.5 -6q-14 -12 -30.5 -28.5l-32.5 -33.5l-30 -33t-23 -28q-3 -4 -12.5 -7.5t-22 -6.5t-25 -5t-20.5 -2q-15 0 -15 7q0 5 13.5 22t27.5 32l39.5 39.5l41 40.5l34 33l18.5 18q5 5 6 9.5t-3 9.5
q-6 10 -24 30t-39 41t-40.5 38t-29.5 22q-6 3 -7.5 4.5t3.5 7.5q2 3 7.5 9t12.5 11.5t14.5 9.5t14.5 4t13.5 -2.5t17.5 -11.5q5 -3 19 -17l30.5 -31l32.5 -34l25 -27q9 -9 19 3l26.5 27t37.5 36.5t38.5 34t27.5 20.5q10 5 23.5 1.5t24.5 -9.5q12 -8 10.5 -13t-16.5 -16
q-14 -11 -36 -31l-43.5 -41l-38.5 -38l-20 -20q-5 -5 -3.5 -9t6.5 -11l32 -38l39 -44t39.5 -40.5t33.5 -26.5q6 -3 5 -6.5t-7 -9.5q-11 -11 -26 -19.5t-24 -8.5h-1z" />
    <glyph glyph-name="threesuperior" unicode="&#xb3;" 
d="M222 625q13 0 27.5 -3.5t26.5 -11t19.5 -19t7.5 -27.5q0 -14 -13 -29t-44 -32q-12 -7 -12 -11q0 -3 6.5 -6t17.5 -7q9 -3 20 -8t20.5 -12.5t15.5 -18.5t6 -25q0 -29 -29 -57t-90 -54q-29 -13 -51.5 -19.5t-45.5 -6.5q-10 0 -22 2.5t-22.5 7.5t-17.5 13t-7 19q0 7 5 15
t12.5 14.5t14.5 10.5t12 4t6.5 -1t4.5 -6q10 -15 27 -25t37 -10q49 0 49 54q0 32 -22 45q-10 5 -21 7.5t-20 2.5q-8 0 -17 -1t-12 -2q-6 0 -9.5 0.5t-3.5 5.5t8.5 17t20.5 18q10 4 21.5 9.5t20.5 13t15 18.5t6 27q0 15 -10.5 26.5t-27.5 11.5q-14 0 -20.5 -7.5t-8.5 -16.5
q-2 -11 -12 -16.5t-22 -11.5q-9 -5 -18 -8t-13 -3q-11 0 -8.5 13t15.5 26q13 12 31.5 25.5t39.5 24t43 17.5t42 7h1z" />
    <glyph glyph-name="Scaron" unicode="&#x160;" horiz-adv-x="415" 
d="M230 555q-9 0 -17 11q-13 19 -33.5 46t-40.5 43q-8 6 -6.5 10.5t8.5 9.5q6 5 13 8.5t13 5.5q8 2 16.5 2t16.5 -5q13 -9 28.5 -22.5t21.5 -20.5q8 -8 20 1l18.5 13.5t21.5 14.5l21 13t17 9q8 3 18.5 2.5t17.5 -2.5q7 -3 4 -9t-11 -12q-8 -7 -25 -23.5l-35.5 -34l-35 -32.5
t-22.5 -19q-5 -4 -13.5 -6.5t-14.5 -2.5h-1zM114 -14q-11 0 -26.5 2.5t-30.5 8t-25.5 15.5t-10.5 25q0 7 4.5 14.5t11 13.5l13 11.5t11.5 8.5q15 12 20.5 12.5t7.5 -2.5q10 -17 39 -32t67 -15q16 0 31.5 4t28 12t20.5 21t8 31q0 25 -22 42t-65 36q-14 6 -31 12.5t-33.5 13.5
t-30.5 15t-22 16q-29 29 -29 74q0 24 8 45.5t20 38.5t26 31t26 23q14 10 34 22t43 22t47 16.5t46 6.5q8 0 19.5 -2.5t21.5 -7t17 -11.5t7 -15q0 -7 -5 -15t-12 -16t-14.5 -14.5t-11.5 -9.5q-12 -7 -15 -4q-18 16 -40 23t-47 7q-15 0 -29 -5t-25 -13.5t-18 -20.5t-7 -25
q0 -16 11 -29.5t28.5 -24.5t39.5 -21t45 -19q27 -11 49 -21t37.5 -23t24 -30.5t8.5 -44.5q0 -35 -15 -61t-35.5 -45.5t-41 -32t-31.5 -18.5q-9 -6 -24 -13.5t-34 -14.5t-41.5 -12t-46.5 -5h-1z" />
    <glyph glyph-name="Yacute" unicode="&#xdd;" horiz-adv-x="538" 
d="M430 695q35 0 0 -38q-21 -23 -50 -45t-58 -38q-20 -11 -39.5 -15.5t-31.5 -4.5q-13 0 -17 5.5t3 12.5l17.5 18l23.5 25.5l22.5 25.5t15.5 19q7 10 13.5 14t17.5 8q20 7 45 10t37 3h1zM141 527q26 0 52.5 -22t49.5 -65q21 -41 38 -81l25 -60q6 -14 10 -15t12 7
q12 12 25 27t25 30.5t22.5 30.5t17.5 27q13 20 17.5 38.5t4.5 27.5q0 8 -1.5 15t-2.5 11q-2 3 1 6.5t13 9.5q18 11 34.5 17t21.5 6q17 0 17 -28q0 -30 -27.5 -75t-75.5 -101q-32 -37 -48.5 -60.5t-27.5 -46.5q-8 -19 -10.5 -54.5t-4.5 -69.5q-3 -50 14 -66q3 -3 3.5 -5
t-10.5 -9q-11 -6 -26.5 -12t-31.5 -11.5t-30.5 -9t-21.5 -3.5q-9 0 -14 6t-7 16t-2 21.5t1 22.5q1 13 3 33.5t3.5 40t2.5 35.5t1 20q1 5 -1 11.5t-3 10.5q-2 6 -4 11t-4 14q-4 21 -14 48t-23.5 55t-28.5 53t-30 43q-12 14 -29.5 27t-34.5 13q-9 0 -19 -2q-5 -1 -4 5.5
t11 14.5q21 16 52.5 29t57.5 13h1z" />
    <glyph glyph-name="Zcaron" unicode="&#x17d;" horiz-adv-x="585" 
d="M323 555q-9 0 -17 11q-13 19 -33.5 46t-40.5 43q-8 6 -6.5 10.5t8.5 9.5q6 5 13 8.5t13 5.5q8 2 16.5 2t16.5 -5q13 -9 28.5 -22.5t21.5 -20.5q8 -8 20 1l18.5 13.5t21.5 14.5l21 13t17 9q8 3 18.5 2.5t17.5 -2.5q7 -3 4 -9t-11 -12q-8 -7 -25 -23.5l-35.5 -34l-35 -32.5
t-22.5 -19q-5 -4 -13.5 -6.5t-14.5 -2.5h-1zM231 521q16 0 38 -2t45.5 -5l47 -6t41.5 -6q25 -4 38.5 -5t21.5 -1q7 0 15 3t19 12q19 17 34 24.5t30 7.5q11 0 -7 -24q-6 -8 -18.5 -22.5t-38.5 -40.5l-62.5 -65.5l-75.5 -81.5l-77 -86l-68 -79q-14 -17 1 -20q14 -3 35 -9.5
l61 -18.5q36 -11 76 -20t69 -9q23 0 55 17.5t56 46.5q3 4 5.5 2.5t3 -6.5t-1.5 -12t-6 -14q-35 -58 -87 -92t-118 -34q-23 0 -47.5 5t-47.5 11.5t-42.5 13l-32.5 10.5q-40 14 -62 14q-24 0 -46 -10.5t-43 -26.5q-10 -7 -18 -5t-7 9q2 6 9.5 18.5t21.5 26.5l160.5 170.5
t157.5 174.5q7 8 7.5 13t-9.5 5t-30 2.5t-44.5 4.5l-50 4t-47.5 2q-48 0 -80.5 -14.5t-61.5 -43.5q-7 -7 -13 -3t4 23q6 12 17.5 27.5t25.5 31.5t28.5 29.5t25.5 21.5q24 17 45 24.5t47 7.5h1z" />
    <glyph glyph-name="scaron" unicode="&#x161;" horiz-adv-x="353" 
d="M187 435q-8 0 -14 16q-5 11 -13 25t-17.5 28t-19.5 26.5t-19 20.5q-15 13 -6 22l11.5 11.5t11.5 9.5q16 10 31 -1q13 -10 29 -27.5t21 -24.5q9 -12 19 -3q6 6 15.5 14.5t21 17.5t22.5 16.5t19 10.5q12 7 19.5 7t7.5 -5q0 -17 -16 -37l-24 -29l-25.5 -31l-23.5 -28.5
t-17 -21.5t-15 -12.5t-17 -4.5h-1zM45 233q0 25 13 47t33 39.5t43 31t44 22.5q23 9 44 13.5t37 4.5q21 0 39 -10t18 -28q-1 -13 -14 -28.5t-22 -22.5t-13 -2q-7 13 -28.5 24.5t-49.5 11.5q-17 0 -29 -11t-12 -26q0 -12 9 -21.5t24 -18t35 -16t41 -16.5q29 -11 50.5 -29.5
t21.5 -46.5q0 -27 -13.5 -49t-33.5 -39.5t-42 -30t-39 -19.5q-24 -11 -49 -18t-51 -7q-9 0 -23.5 2.5t-27.5 8t-22.5 13.5t-9.5 20q0 7 6 15t14 15.5t17 14t15 9.5q8 5 12 5t6 -3q3 -7 12 -14.5t21 -13.5t26 -10t29 -4q17 0 33 8.5t16 27.5q0 16 -18 29.5t-59 27.5
q-17 6 -31.5 13t-26.5 14q-45 25 -45 66v1z" />
    <glyph glyph-name="yacute" unicode="&#xfd;" horiz-adv-x="438" 
d="M386 596q14 0 11 -9.5t-11 -20.5q-6 -9 -18.5 -24l-27 -31t-28.5 -29.5t-24 -20.5q-14 -10 -32.5 -16.5t-37.5 -11.5q-13 -3 -12.5 2.5t8.5 18.5l12.5 19t17.5 28.5l18.5 32t16.5 30.5q5 12 29 19q19 5 40.5 9t36.5 4h1zM144 390q16 0 31.5 -16t25.5 -42l17.5 -51.5
t21.5 -76.5q8 -32 16 -56t11 -32q3 -7 8.5 -15t10.5 -8t13 17q10 21 19 50t15 60.5t8.5 62.5t-1.5 55q-1 5 5 11q3 3 13 10.5l22 16t24 14.5t18 6q5 0 8 -4.5t4 -17.5q0 -11 -2.5 -28.5t-7 -37.5t-11 -40.5l-12.5 -38.5l-37 -96.5t-47 -102.5t-62.5 -104.5t-81.5 -101.5
l-34.5 -33t-37 -30.5t-35.5 -22.5t-30 -9q-17 0 -12 20q1 6 10.5 24t21.5 36.5t23.5 32.5t15.5 13q11 -2 21 -3t15 1q13 6 35 29t39 56q5 9 2 14t-10 13q-10 11 -19 38l-17 53q-28 93 -45 143.5t-27 70.5q-9 17 -19 25t-18 8q-7 0 -18.5 -1.5t-19.5 -4.5q-5 -2 -4 7t11 20
t25 22.5t31.5 21.5t33.5 16t32 6h1z" />
    <glyph glyph-name="zcaron" unicode="&#x17e;" horiz-adv-x="434" 
d="M234 435q-8 0 -14 16q-5 11 -13 25t-17.5 28t-19.5 26.5t-19 20.5q-15 13 -6 22l11.5 11.5t11.5 9.5q16 10 31 -1q13 -10 29 -27.5t21 -24.5q9 -12 19 -3q6 6 15.5 14.5t21 17.5t22.5 16.5t19 10.5q12 7 19.5 7t7.5 -5q0 -17 -16 -37l-24 -29l-25.5 -31l-23.5 -28.5
t-17 -21.5t-15 -12.5t-17 -4.5h-1zM179 385q11 0 27 -1.5t33 -4l32.5 -5t26.5 -4.5q17 -4 27 -4.5t17 -0.5q11 0 22 7.5t19 14.5q10 8 26 11t25 3q4 0 1 -7t-14 -18l-31 -33l-43.5 -46l-49 -52l-48 -51l-39 -42t-23.5 -25q-8 -9 -7 -11.5t8 -4.5q13 -3 29 -9.5t37 -12.5
q22 -7 42 -12t43 -5q28 0 53 15t42 33q8 8 9 -3.5t-9 -25.5q-33 -48 -77.5 -78t-89.5 -30q-23 0 -54.5 9t-62.5 16q-36 9 -59 9q-17 0 -33 -8.5t-30 -20.5q-7 -6 -10.5 -2.5t-3.5 11.5q1 8 9 23.5t26 32.5l55.5 57l58 62l49 53.5l29.5 32.5q16 18 2 19q-11 0 -21.5 1.5
t-22.5 3.5t-29.5 3.5t-28.5 1.5q-36 0 -62.5 -16t-42.5 -33q-4 -4 -7.5 4.5t3.5 22.5q11 21 26.5 42t34 38.5t40.5 28.5t45 11h1z" />
    <glyph glyph-name="dollaroldstyle" unicode="&#xf724;" horiz-adv-x="451" 
d="M314 103q0 11 -6.5 19.5t-16.5 14.5t-21 9.5t-20 5.5q-11 3 -12 -7q-3 -20 -6 -43t-6 -52q-1 -8 0 -10t6 -1q12 1 26 6.5t27 13.5t21 19t8 24v1zM145 335q0 -21 18.5 -32.5t42.5 -19.5q6 -2 7.5 0t2.5 8q5 35 8 58.5t5 36.5q1 7 -1 8t-7 1q-12 -1 -25.5 -6t-24.5 -12.5
t-18.5 -18t-7.5 -22.5v-1zM334 448q9 0 20.5 -2t22 -7t18 -12.5t7.5 -18.5q0 -6 -4 -13t-10 -13.5t-13 -12t-13 -8.5q-16 -9 -19 -1q-6 15 -25 25.5t-36 10.5q-6 0 -7 -2t-3 -9q-2 -15 -5 -42t-8 -60q-2 -8 0 -10.5t8 -4.5q14 -4 35 -8.5t41 -10.5q35 -10 55 -29t21 -51
q0 -35 -18.5 -63t-47 -49.5t-62 -35.5t-61.5 -21q-7 -2 -9 -4.5t-4 -8.5q-4 -35 -7 -58t-3 -37q0 -12 -9 -12q-5 0 -11.5 4t-12 11t-9 17t-1.5 23q2 9 3.5 18.5t3.5 26.5q0 10 -7 9h-27q-22 0 -43 3.5t-38 10.5t-28 17t-11 23q0 6 4.5 14t11 16t14 14.5t13.5 10.5
q9 5 11.5 4t5.5 -6q14 -26 38 -42t53 -18q11 -2 12 8q5 26 8 54t8 57q1 6 -0.5 8.5t-7.5 4.5q-65 16 -101.5 38t-37.5 64q0 30 12.5 54t41.5 47q26 21 54.5 34.5t67.5 24.5q11 4 10 12q2 17 4.5 31.5t0.5 22.5q-1 4 0.5 8.5t9.5 11.5q13 11 22 15.5t13 4.5q3 0 3.5 -7.5
t0 -19.5t-2.5 -26.5t-4 -27.5q0 -5 0.5 -8t5.5 -2q7 1 19 2t26 1h1z" />
    <glyph glyph-name="dollarsuperior" unicode="&#xf6e4;" horiz-adv-x="359" 
d="M237 383q0 13 -12 17.5t-25 7.5q-8 3 -9 -5l-4 -21t-4 -29q-1 -6 1 -7t6 0q16 2 31.5 10.5t15.5 25.5v1zM130 541q0 -12 9.5 -16.5t27.5 -9.5q7 -2 7 5q5 23 6 34t2 19q1 5 -1 5.5t-5 0.5q-17 -2 -31.5 -11t-14.5 -26v-1zM248 614q9 0 20 -2.5t20.5 -7t16 -11t6.5 -13.5
q0 -5 -3.5 -10.5t-8.5 -11t-10.5 -10t-9.5 -6.5q-12 -6 -13 -1q-5 13 -18 24t-26 11q-7 0 -8 -7q-2 -10 -3.5 -22.5t-4.5 -31.5q-1 -9 5 -11q11 -2 28.5 -6t32.5 -8q25 -6 37.5 -22.5t12.5 -37.5q0 -23 -14 -42t-34.5 -33.5t-45 -24.5t-45.5 -14q-7 -3 -7 -7
q-4 -23 -6 -38.5t-2 -25.5q0 -7 -6 -7q-7 0 -17.5 8.5t-8.5 25.5q1 6 2 13.5t3 18.5q1 7 -5 6h-20q-35 0 -61 13t-26 30q0 4 4 11t10 14t12 13t11 9q7 4 8.5 3t3.5 -4q10 -21 25.5 -36.5t37.5 -15.5q6 -1 7 6q4 16 5.5 27t4.5 30q1 7 -6 8q-54 14 -76 29.5t-23 45.5
q0 20 9.5 40t29.5 36q20 14 39.5 22.5t47.5 15.5q8 2 8 6q2 12 3 21.5t1 14.5q0 2 0.5 4.5t5.5 5.5q21 15 28 15q4 0 3 -10.5t-6 -44.5q0 -7 5 -7q10 2 20 2h1z" />
    <glyph glyph-name="parenleftsuperior" unicode="&#x207d;" horiz-adv-x="242" 
d="M96 448q0 -13 1.5 -30t5 -34.5t9 -34t13.5 -28.5q18 -27 33.5 -44t31.5 -21q6 -1 4.5 -4.5t-5.5 -5.5q-3 -2 -10.5 -4t-16.5 -4t-17 -3.5t-12 -1.5q-2 0 -9 1t-15 6q-11 6 -22 14.5t-25 31.5q-19 29 -25 63t-6 66q0 77 31 138t79 96q23 17 38 25t22 8t13.5 -7t6.5 -8v-1
q0 -2 -3 -2q-58 -18 -92 -80q-15 -29 -22.5 -65.5t-7.5 -69.5v-1z" />
    <glyph glyph-name="parenrightsuperior" unicode="&#x207e;" horiz-adv-x="242" 
d="M148 468q0 12 -1.5 29t-5 34.5t-9 34.5t-13.5 29q-18 26 -33.5 43t-31.5 21q-6 2 -4.5 5.5t5.5 5.5l10.5 3.5t16.5 4t17 3t12 1.5q2 0 9 -1t15 -6q11 -6 22 -14.5t25 -30.5q19 -29 25 -63.5t6 -66.5q0 -77 -31 -138t-79 -96q-23 -17 -38 -25t-22 -8t-13.5 7t-6.5 8v1.5
t3 1.5q58 18 92 80q15 29 22.5 65.5t7.5 70.5v1z" />
    <glyph glyph-name="zerooldstyle" unicode="&#xf730;" horiz-adv-x="467" 
d="M317 397q25 0 47 -8.5t39 -26.5t27 -46t10 -67q0 -32 -7.5 -58t-19.5 -48t-27 -39t-29 -30q-17 -15 -40.5 -30.5t-50.5 -27.5t-54 -20t-51 -8q-71 0 -103 40.5t-32 108.5q0 60 27.5 106t68.5 70q27 16 45 20q14 4 19 -0.5t0 -9.5q-23 -26 -31.5 -63t-8.5 -67
q-1 -68 25.5 -105t64.5 -37q14 0 27 5.5t24 18.5q13 14 20.5 44t7.5 74q0 21 -4 45t-13 44t-24 33t-36 13q-8 0 -18.5 -0.5t-15.5 -2.5q-4 -1 -3 6.5t12 17.5q21 18 48 33t55 15h1z" />
    <glyph glyph-name="oneoldstyle" unicode="&#xf731;" horiz-adv-x="357" 
d="M173 -13q-16 0 -22.5 20.5t-6.5 49.5q0 10 1 24.5t2.5 30.5t2.5 31.5t2 27.5q1 15 2 32t1.5 32t0.5 26.5t-1 16.5q-2 7 -4 8.5t-7 -0.5q-18 -6 -38 -11t-38 -7q-15 -2 -28 3.5t-16 11.5q-1 3 7.5 7.5t31.5 12.5q10 3 33.5 12l49.5 19.5t50.5 21.5t37.5 19q17 10 31.5 17
t20.5 7q7 0 6 -5q0 -5 -1 -9.5t-4 -9.5t-3.5 -14.5t-0.5 -17.5q0 -10 -2 -28.5t-4 -41l-4 -46.5t-3 -46q-1 -10 -1.5 -23.5l-1 -27t-0.5 -25.5v-19q0 -18 9 -28.5t17 -13.5q7 -2 6 -6q-5 -13 -28 -24q-10 -5 -23.5 -9.5t-27.5 -8.5t-26.5 -6.5t-19.5 -2.5h-1z" />
    <glyph glyph-name="twooldstyle" unicode="&#xf732;" horiz-adv-x="421" 
d="M238 394q31 0 53 -10t36 -25t20.5 -33.5t6.5 -35.5q0 -41 -25 -70.5t-68 -59.5q-22 -17 -40 -28.5t-32 -22.5q-8 -5 -7.5 -9t6.5 -5q7 -2 20 -5t24 -6q24 -7 42.5 -10.5t36.5 -3.5q28 0 51.5 16t38.5 36q6 7 9 7q4 0 3.5 -11.5t-8.5 -25.5q-13 -21 -30.5 -40t-37 -33
t-39.5 -22.5t-36 -8.5q-14 0 -31.5 2.5t-35.5 6.5t-35.5 8.5t-31.5 8.5q-9 3 -19 4.5t-16 1.5q-19 0 -33 -11q-5 -3 -17 -9.5t-17 -6.5q-6 0 -1 10.5t13 20.5q7 8 19 18.5l25.5 21.5l27.5 22l25 20q44 35 72.5 68t28.5 76q0 29 -19.5 46.5t-50.5 17.5q-43 0 -101 -52
q-4 -4 -8.5 -7t-6.5 -3q-5 0 -3.5 7.5t3.5 13.5q3 7 12 21t24 28q10 10 26 23t36 23.5t42.5 18t46.5 7.5h1z" />
    <glyph glyph-name="threeoldstyle" unicode="&#xf733;" horiz-adv-x="428" 
d="M251 390q19 0 38 -6.5t34.5 -18.5t25 -28.5t9.5 -36.5q0 -16 -9 -30t-21.5 -26t-27 -22l-25.5 -17l-10.5 -8.5t-3.5 -7.5q0 -6 20 -14q19 -7 37.5 -16.5t33.5 -23t24 -31t9 -40.5q0 -26 -10 -48t-26.5 -40.5t-38 -35t-45.5 -29.5q-48 -26 -84.5 -35.5t-74.5 -9.5
q-14 0 -30.5 3.5t-30 10.5t-23 17t-9.5 24q0 4 7 13.5t16 18.5t19 16t16 7q4 0 7 -8q13 -25 40 -38t53 -13q44 0 67 24.5t22 72.5q0 30 -13.5 47.5t-30.5 27.5q-13 8 -26.5 11t-25.5 3q-13 0 -27.5 -2t-25.5 -4q-10 -1 -9 5q0 3 3.5 9.5t9 13.5t11.5 13t11 8l38.5 19
t30.5 19.5t20 25t7 36.5q0 13 -3.5 27.5t-12 27.5t-21.5 21.5t-31 8.5q-20 0 -29 -14.5t-9 -28.5q0 -3 -11.5 -11.5t-22.5 -14.5q-10 -6 -26.5 -12t-21.5 -6q-8 0 -4.5 16t23.5 36q15 16 35.5 33t44.5 30.5t50.5 22t55.5 8.5h1z" />
    <glyph glyph-name="fouroldstyle" unicode="&#xf734;" horiz-adv-x="477" 
d="M365 242q11 0 14 -17.5t2 -39.5q-1 -15 -2.5 -40t-5.5 -54q-1 -12 6 -13q5 -1 11 -1h16q11 0 30 3.5t30 9.5q8 4 7 -3q0 -5 -4 -11.5t-9 -11.5q-15 -14 -37.5 -22.5t-48.5 -12.5q-5 -1 -8 -3t-4 -8q-1 -3 -2 -11.5t-1.5 -19t-1.5 -21.5t-1 -19q0 -12 4 -23t11 -17
q5 -5 -3 -10q-3 -2 -16.5 -8t-30 -12t-32.5 -10.5t-24 -4.5q-15 0 -20.5 14.5t-4.5 45.5q2 27 4.5 50t4.5 38q1 9 -0.5 11.5t-9.5 3.5q-11 1 -26.5 2t-33.5 2.5t-37 2.5t-35 1q-23 0 -40.5 -3t-26.5 -10q-13 -7 -18 -7q-6 0 -6 8t7.5 20t18.5 26l31.5 36.5t54.5 65.5
q43 53 70 91t43 64q11 16 16 33.5t7 28.5q1 5 12 13t19 13l24.5 16t18.5 9q4 0 5 -3.5t1 -8.5q0 -8 -7.5 -24t-19 -35.5t-26 -41l-27.5 -39.5l-39.5 -52l-42 -53.5l-36.5 -45.5t-22 -29q-8 -14 4 -14q8 0 16.5 -0.5t16.5 -0.5q20 -1 43 -3t41 -3q13 0 15 11q2 10 2.5 22
t1.5 27q2 26 -9 44q-3 5 -2 5.5t4 4.5q5 5 20.5 12.5t33 14.5t33 12t20.5 5h1z" />
    <glyph glyph-name="fiveoldstyle" unicode="&#xf735;" horiz-adv-x="419" 
d="M380 66q0 -29 -13 -53.5t-33.5 -45t-46 -36.5t-50.5 -28q-32 -16 -64.5 -24.5t-66.5 -8.5q-23 0 -42 5.5t-28 13.5q-15 12 -15 32q0 6 6 16t14.5 20t17 17.5t13.5 7.5q6 0 9 -7q3 -9 12 -17.5t22 -16t28.5 -12t31.5 -4.5q48 0 75 25q24 21 24 53q0 23 -17 38.5t-60 28.5
q-22 7 -45 12t-34 9q-30 9 -47.5 25t-14.5 54q2 16 6 38t9 45l9.5 44l7.5 35l7.5 29t8.5 22q4 11 10 11q3 0 6 -3t5 -7q4 -11 34 -15.5t78 -4.5q31 0 52.5 3.5t36 9t23 11.5t13.5 12q13 16 18 16q4 0 5.5 -11t-1.5 -23q-6 -26 -23 -49.5t-38 -37.5q-22 -15 -56.5 -22.5
t-71.5 -7.5h-32t-29 1q-8 0 -11 -3t-5 -6q-2 -4 -3.5 -10.5t-1.5 -11.5q0 -17 22 -29t55 -19q20 -5 45 -9.5t41 -8.5q57 -14 80.5 -40t23.5 -62v-1z" />
    <glyph glyph-name="sixoldstyle" unicode="&#xf736;" horiz-adv-x="463" 
d="M360 514q13 0 24.5 -6t19.5 -15t13.5 -20t6.5 -21q2 -7 -1.5 -9.5t-8.5 2.5q-28 22 -103 22q-22 0 -42 -7t-39 -26q-13 -12 -25.5 -31t-23 -46t-17 -64t-6.5 -85q0 -42 9.5 -73t24 -52t33 -31t36.5 -10t30.5 7t20 19t10.5 27.5t3 32.5q0 25 -7.5 44t-18.5 31.5t-24.5 19
t-25.5 6.5q-9 0 -20.5 -3t-19.5 -7q-5 -2 -12.5 -3.5t-9.5 -3.5q-5 -1 -6.5 2t2.5 9q2 8 16.5 21t35.5 27q27 17 49.5 26.5t39.5 9.5q29 0 50 -10t34.5 -26.5t19.5 -37.5t6 -43q0 -30 -12.5 -57t-30.5 -48.5t-38 -38t-36 -25.5q-26 -14 -59.5 -23.5t-62.5 -9.5
q-42 0 -72.5 14t-50.5 38.5t-29.5 58t-9.5 72.5q0 60 15 105.5t35 77.5q12 21 31 41.5t41.5 39t47.5 33.5t50 24q31 12 55.5 17t50.5 5h1z" />
    <glyph glyph-name="sevenoldstyle" unicode="&#xf737;" horiz-adv-x="451" 
d="M352 362q17 0 31 8.5t28 26.5q13 16 23 16q5 0 5 -16q0 -4 -3 -12t-7 -17.5t-8.5 -18.5l-7.5 -15l-25.5 -45.5l-33.5 -60l-37.5 -67l-37 -67l-32 -60.5t-22.5 -47q-6 -13 -11 -28.5t-5 -22.5q0 -6 2 -14t6 -14q2 -4 1.5 -6.5t-5.5 -6.5q-3 -2 -12.5 -7.5t-21.5 -11
t-24 -9.5t-18 -4q-10 0 -16.5 5t-6.5 19q2 17 15 45t31 58l80 134l76 127q11 18 -5 18q-8 1 -29.5 2.5t-44.5 3.5l-45 4t-46 2q-37 0 -58.5 -13t-40.5 -42q-6 -8 -9.5 -12t-7.5 -4q-5 0 -7.5 12.5t5.5 30.5q7 18 19 41.5t28.5 44t37 35t44.5 14.5q23 0 51 -4t62 -11
q25 -5 44 -8t37 -3h1z" />
    <glyph glyph-name="eightoldstyle" unicode="&#xf738;" horiz-adv-x="455" 
d="M240 38q38 0 55.5 17.5t17.5 43.5q0 11 -7 25t-28 28q-19 12 -43.5 24t-40.5 18q-11 5 -15.5 4t-12.5 -8q-15 -13 -22 -27.5t-7 -35.5q0 -20 9.5 -36.5t24.5 -28t33 -18t35 -6.5h1zM323 494q20 0 36 -7t27.5 -19t17.5 -27t6 -31q0 -30 -15.5 -52.5t-32.5 -36.5
q-13 -12 -28.5 -23l-25.5 -18q-13 -8 0 -14l29.5 -16l31.5 -17q33 -18 43 -39t10 -47q0 -28 -12 -48.5t-29.5 -35.5t-36 -25l-30.5 -17q-13 -7 -29.5 -13t-33.5 -10.5t-33 -7t-28 -2.5q-27 0 -55 5.5t-51 18t-38 33.5t-15 52q0 22 7.5 36.5t21.5 26.5t33 23.5t42 27.5
q7 4 5.5 8t-6.5 7q-9 6 -19.5 14t-20.5 19t-16.5 25t-6.5 32q0 37 24.5 66.5t60.5 49.5q14 8 23.5 11t13.5 3t7.5 -1t3.5 -5q0 -5 -4.5 -9.5l-9.5 -9.5q-6 -7 -13.5 -19t-7.5 -29q0 -26 22 -45t54 -34q14 -8 25 -2q19 14 33 36t14 51q0 26 -20 44.5t-46 18.5q-8 0 -13.5 -1
t-9.5 -2q-9 0 -9 4q0 7 10.5 17.5t30.5 18.5q14 6 29.5 10.5t32.5 4.5h1z" />
    <glyph glyph-name="nineoldstyle" unicode="&#xf739;" horiz-adv-x="457" 
d="M258 394q35 0 65 -12t51.5 -36.5t34 -61t12.5 -85.5q0 -44 -7.5 -78.5t-19 -61.5t-25.5 -47.5t-26 -34.5q-20 -22 -48.5 -42.5t-60.5 -36t-65.5 -25t-62.5 -9.5q-27 0 -50.5 20t-28.5 49q-1 6 0.5 11t6.5 1q13 -10 43.5 -20t73.5 -10q26 0 53 9.5t48 40.5q19 28 31 75
t12 125q0 34 -6 66.5t-18 58t-30 41t-41 15.5q-11 0 -22.5 -5t-18.5 -13q-9 -9 -15.5 -25.5t-6.5 -42.5q0 -23 7 -41t18.5 -31t25 -20t26.5 -7q14 0 27.5 2t21.5 6q5 2 7 -3t-2.5 -13t-11.5 -17q-8 -11 -21.5 -20.5t-29.5 -17.5t-32.5 -12.5t-30.5 -4.5q-21 0 -41 7.5
t-35 22.5t-24 37t-9 52q0 48 28 91.5t83 72.5q20 11 50.5 20.5t62.5 9.5h1z" />
    <glyph glyph-name="commasuperior" unicode="&#xf6e2;" horiz-adv-x="148" 
d="M89 428q14 0 25 -18t11 -39q0 -27 -13.5 -51.5t-33.5 -45t-43 -36t-42 -24.5q-10 -3 -6 4q5 8 9.5 16.5t12.5 14.5q26 21 37 39t11 43q0 29 -28 42q-4 2 -3 4t1 5q0 1 6 6l14 11.5l16 13t12 9.5q7 6 13 6h1z" />
    <glyph glyph-name="periodsuperior" unicode="&#xf6e8;" horiz-adv-x="148" 
d="M92 411q2 0 4.5 -5.5t4.5 -10.5q7 -19 20 -38q4 -7 2 -12t-5 -8l-11 -10.5t-15.5 -12.5t-16.5 -10t-14 -4q-5 0 -10 5.5t-10 13.5t-9 15.5t-5 12.5q-2 8 1 17t19 24q14 13 26.5 18t17.5 5h1z" />
    <glyph glyph-name="centsuperior" unicode="&#xf6e0;" 
d="M139 462q0 -24 9.5 -43.5t27.5 -23.5q7 -1 7 7q5 31 10.5 70t9.5 76q2 8 -6 5q-32 -6 -45 -30.5t-13 -59.5v-1zM43 438q0 33 13.5 57t35 41t50 28t58.5 17q6 1 8 6q1 9 3 19.5t0 15.5q-2 3 -1 5.5t7 5.5q7 4 14.5 9.5t12.5 5.5q7 0 4.5 -15t-5.5 -44q-2 -5 3 -3h11
q19 0 35.5 -7.5t16.5 -20.5q0 -8 -7 -18t-15 -15q-9 -6 -12 -2q-4 11 -14.5 19t-18.5 9q-5 0 -5 -6q-2 -12 -5 -33.5l-6 -43.5t-6 -41.5t-4 -28.5q-2 -7 4 -7q31 1 52 14t32 21q3 2 4 0t0 -5q0 -4 -4 -12.5t-10 -14.5q-10 -11 -28 -22.5t-48 -20.5q-8 -2 -9 -11
q-3 -16 -4 -24.5t-0.5 -13.5t1.5 -7t3 -5q3 -3 2 -4l-5 -5q-10 -8 -21.5 -11.5t-13.5 -3.5q-6 0 -6 7.5t2 15.5q2 11 3.5 23t3.5 22q1 5 0.5 7t-5.5 2q-24 0 -46.5 5t-40.5 16t-28.5 29t-10.5 44v1z" />
    <glyph glyph-name="parenleftinferior" unicode="&#x208d;" horiz-adv-x="242" 
d="M96 39q0 -13 1.5 -30t5 -34.5t9 -34t13.5 -28.5q18 -27 33.5 -44t31.5 -21q6 -1 4.5 -4.5t-5.5 -5.5q-3 -2 -10.5 -4t-16.5 -4t-17 -3.5t-12 -1.5q-2 0 -9 1t-15 6q-11 6 -22 14.5t-25 31.5q-19 29 -25 63t-6 66q0 77 31 138t79 96q23 17 38 25t22 8t13.5 -7t6.5 -8v-1
q0 -2 -3 -2q-58 -18 -92 -80q-15 -29 -22.5 -65.5t-7.5 -69.5v-1z" />
    <glyph glyph-name="parenrightinferior" unicode="&#x208e;" horiz-adv-x="242" 
d="M148 59q0 12 -1.5 29t-5 34.5t-9 34.5t-13.5 29q-18 26 -33.5 43t-31.5 21q-6 2 -4.5 5.5t5.5 5.5l10.5 3.5t16.5 4t17 3t12 1.5q2 0 9 -1t15 -6q11 -6 22 -14.5t25 -30.5q19 -29 25 -63.5t6 -66.5q0 -77 -31 -138t-79 -96q-23 -17 -38 -25t-22 -8t-13.5 7t-6.5 8v1.5
t3 1.5q58 18 92 80q15 29 22.5 65.5t7.5 70.5v1z" />
    <glyph glyph-name="hyphensuperior" unicode="&#xf6e6;" horiz-adv-x="195" 
d="M175 485q-7 -17 -22.5 -32t-28.5 -19q-12 -4 -27.5 -7t-30.5 -5l-27 -3.5t-16 -1.5q-3 0 -4.5 0.5t1.5 5.5l8 13l9.5 15.5t8 12.5t4.5 5q11 1 28.5 3t35.5 5.5t34 7t24 7.5q2 1 3.5 -0.5t-0.5 -6.5z" />
    <glyph glyph-name="centoldstyle" unicode="&#xf7a2;" horiz-adv-x="451" 
d="M168 199q0 -42 17.5 -68.5t46.5 -34.5q9 -3 11 10q4 23 8.5 51.5t8.5 58.5l8 60t7 56q1 11 -10 8q-48 -11 -72.5 -49t-24.5 -91v-1zM46 162q0 47 20 83t52.5 62t72 43.5t78.5 28.5q10 2 11 10q2 13 2.5 29.5t-1.5 22.5q-2 5 -1 8.5t8 8.5l21 14.5t18 8.5q9 0 7 -22.5
l-6 -66.5q-2 -7 5 -5q5 1 8.5 1h10.5q12 0 23.5 -2.5t21 -7t16 -11.5t6.5 -17q0 -11 -9 -22.5t-20 -19.5q-14 -10 -19 -2q-5 12 -18.5 22t-24.5 11q-7 0 -7 -9q-3 -19 -7 -50.5l-8.5 -66l-9 -66t-7.5 -49.5q-2 -11 6 -11q42 2 72.5 18t47.5 31q5 4 6 1.5t1 -7.5
q-2 -14 -20 -34q-14 -15 -40 -32t-70 -29q-8 -2 -10.5 -5t-4.5 -11q-4 -23 -5.5 -35.5t-1 -19t2.5 -9l5 -6.5q4 -5 2 -6.5t-8 -6.5q-14 -11 -28 -16.5t-19 -5.5q-8 0 -8 11.5t2 22.5q3 17 5 31l5 34q2 8 1 11t-9 3q-30 0 -61 7t-56.5 23t-41.5 41.5t-16 62.5v1z" />
    <glyph glyph-name="hypheninferior" unicode="&#xf6e5;" horiz-adv-x="195" 
d="M175 76q-7 -17 -22.5 -32t-28.5 -19q-12 -4 -27.5 -7t-30.5 -5l-27 -3.5t-16 -1.5q-3 0 -4.5 0.5t1.5 5.5l8 13l9.5 15.5t8 12.5t4.5 5q11 1 28.5 3t35.5 5.5t34 7t24 7.5q2 1 3.5 -0.5t-0.5 -6.5z" />
    <glyph glyph-name="oneeighth" unicode="&#x215b;" horiz-adv-x="785" 
d="M588 27q21 0 33 9.5t12 23.5q0 8 -4.5 16t-19.5 17q-14 8 -34.5 16.5t-33.5 12.5q-9 4 -14 -1q-14 -13 -14 -36q0 -14 7 -24.5t17.5 -18t23.5 -11.5t26 -4h1zM644 323q30 0 47 -18t17 -38t-9.5 -31.5t-20.5 -21.5q-10 -8 -19.5 -14t-16.5 -10q-6 -5 1 -9q9 -5 20 -9
t20 -9q20 -11 27 -25t7 -34q0 -18 -9 -33.5t-22 -27t-27 -20t-23 -12.5t-20.5 -8t-24 -7t-24 -5t-19.5 -2q-20 0 -40 3.5t-36 12.5t-26.5 23t-10.5 35q0 22 15 35t49 34q8 5 -1 10q-15 8 -29 21t-14 36q0 26 19 48.5t45 36.5q11 5 19.5 7t11.5 2q2 0 5 -1t3 -3t-3 -5.5
t-7 -7.5q-5 -5 -8 -11t-3 -17q0 -17 17 -27.5t47 -22.5q10 -3 16 1q11 8 15.5 18t4.5 25q0 17 -13.5 29.5t-31.5 12.5q-13 0 -17 -1q-6 -2 -6 1q0 5 8 14.5t22 14.5q22 10 44 10h1zM617 558q11 0 0 -21q-10 -18 -39.5 -59l-69.5 -94l-85.5 -112l-88 -112l-77 -95t-52.5 -60
q-9 -10 -22 -19t-25.5 -16t-23.5 -11.5t-16 -4.5q-8 0 -9 3.5t10 15.5q22 23 52.5 59l65.5 79.5l72.5 92l73.5 95.5l68 90.5l55 76.5q14 18 23.5 35t13.5 25q3 8 15 12.5t23 9.5q25 10 35 10h1zM156 184q-11 0 -18.5 8t-9.5 28q-1 8 0 25t2.5 38t3.5 43.5t4 41.5
q2 23 3 35.5t0 20.5q-1 9 -10 6q-14 -4 -34 -7t-31 -3h-10.5t-10.5 1q-11 3 -3 11q3 4 11 9.5t18 8.5q16 4 35.5 10t39.5 13t38.5 14.5l32.5 13.5l18 8t12 3q9 0 9 -7q0 -6 -5 -11q-3 -6 -3 -20q-1 -28 -3.5 -70.5t-6.5 -79.5q-2 -26 -1.5 -40t1.5 -24q1 -16 14 -22
q8 -2 8 -9q-1 -8 -14.5 -15.5t-31 -14.5t-34 -11t-23.5 -4h-1z" />
    <glyph glyph-name="threeeighths" unicode="&#x215c;" horiz-adv-x="785" 
d="M601 27q21 0 33 9.5t12 23.5q0 8 -4.5 16t-19.5 18q-14 8 -34.5 16t-33.5 12q-9 4 -14 -1q-14 -13 -14 -36q0 -14 7 -24.5t17.5 -18t23.5 -11.5t26 -4h1zM657 323q30 0 47 -18t17 -38t-9.5 -31.5t-20.5 -20.5q-10 -8 -19.5 -14.5t-16.5 -10.5q-6 -5 1 -9q9 -5 20 -9
t20 -9q20 -10 27 -24.5t7 -34.5q0 -18 -9 -33.5t-22 -27t-27 -20t-23 -12.5t-20.5 -8t-24 -7t-24 -5t-19.5 -2q-20 0 -40 3.5t-36 12.5t-26.5 23t-10.5 35q0 23 15 35.5t49 33.5q8 5 -1 10q-15 8 -29 21t-14 37q0 26 19 48t45 36q11 5 19.5 7t11.5 2q2 0 5 -1t3 -3t-3 -5.5
t-7 -7.5q-5 -5 -8 -11t-3 -17q0 -16 17 -26.5t47 -23.5q10 -3 16 2q11 8 15.5 17.5t4.5 25.5q0 17 -13.5 29t-31.5 12q-13 0 -17 -1q-6 -2 -6 1q0 5 8 14.5t22 14.5q22 10 44 10h1zM635 558q11 0 0 -21q-10 -18 -39.5 -59l-69.5 -94l-85.5 -112l-88 -112l-77 -95t-51.5 -60
q-10 -10 -23 -19t-25.5 -16t-23.5 -11.5t-16 -4.5q-8 0 -9 3.5t10 15.5q22 23 52.5 59l66 79.5l73 92l73 95.5l67.5 90.5l55 76.5q14 18 23.5 35t13.5 25q3 8 15 12.5t23 9.5q25 10 35 10h1zM226 506q13 0 27.5 -3.5t26.5 -11t19.5 -19t7.5 -27.5q0 -14 -13 -29t-44 -32
q-12 -7 -12 -11q0 -3 6.5 -6t17.5 -7q9 -3 20 -8t20.5 -12.5t15.5 -18.5t6 -26q0 -28 -29 -56t-90 -54q-29 -13 -51.5 -19.5t-45.5 -6.5q-10 0 -22 2.5t-22.5 7.5t-17.5 13t-7 19q0 7 5 15t12.5 14.5t14.5 10.5t12 4t6.5 -1t4.5 -6q10 -15 27 -25t37 -10q49 0 49 53
q0 32 -22 46q-10 5 -21 7t-20 2q-8 0 -17 -1t-12 -1q-13 -2 -13 6q0 5 8.5 17t20.5 18q10 4 21.5 9.5t20.5 13t15 18.5t6 27q0 15 -10.5 26.5t-27.5 11.5q-14 0 -20.5 -7.5t-8.5 -16.5q-2 -11 -12 -16.5t-22 -11.5q-9 -5 -18 -8t-13 -3q-11 0 -8.5 13t15.5 26
q13 12 31.5 25.5t39.5 24t43 17.5t42 7h1z" />
    <glyph glyph-name="fiveeighths" unicode="&#x215d;" horiz-adv-x="785" 
d="M601 27q21 0 33 9.5t12 23.5q0 8 -4.5 16t-19.5 18q-13 8 -34 16l-34 13q-10 3 -14 -2q-14 -13 -14 -35q0 -14 7 -25t17.5 -18.5t23.5 -11.5t26 -4h1zM656 323q30 0 47 -18t17 -38t-9.5 -31.5t-20.5 -20.5q-10 -8 -19.5 -14.5t-16.5 -10.5q-6 -5 1 -9q9 -5 20 -8.5
t21 -8.5q20 -11 27 -25.5t7 -34.5q0 -18 -9 -33.5t-22 -27t-27 -20t-23 -12.5t-20.5 -8t-24 -7t-24 -5t-19.5 -2q-20 0 -40 3.5t-36 12.5t-26.5 23t-10.5 35q0 23 15 35.5t48 33.5q8 5 -1 10q-15 8 -29 21.5t-14 36.5q0 26 19 48t45 36q11 5 19.5 7t11.5 2q2 0 5 -1t3 -3
t-3 -5.5t-7 -7.5q-5 -5 -8 -11t-3 -17q0 -16 17 -26.5t47 -23.5q10 -3 16 2q11 8 15.5 17.5t4.5 25.5q0 17 -13.5 29t-31.5 12q-13 0 -17 -1q-6 -2 -6 1q0 5 8 14.5t22 14.5q22 10 44 10h1zM637 558q11 0 0 -21q-7 -13 -26 -40l-45 -62.5l-57.5 -77.5l-65 -85l-67 -85
l-62.5 -78l-52 -63t-36 -41q-10 -10 -23 -19t-25.5 -16t-23.5 -11.5t-16 -4.5q-9 0 -9.5 3.5t10.5 15.5q22 23 52.5 59l66 79.5l73 92l73.5 95.5l67.5 90l55.5 76q13 19 23 36t14 26q2 7 14.5 12t23.5 9q25 10 34 10h1zM314 289q0 -19 -10 -35.5t-26 -30t-35.5 -24.5
t-37.5 -19q-23 -11 -48 -16t-50 -5q-22 0 -36.5 6t-21.5 11q-11 8 -11 22q0 4 6 12.5t14 17.5t15 16t10 7q2 0 4.5 -0.5t4.5 -2.5q9 -16 30 -30.5t45 -14.5q17 0 27.5 3.5t16.5 8.5q11 9 11 24q0 11 -9 19t-40 16q-17 4 -36 8l-28 6q-22 6 -34.5 16.5t-10.5 35.5q1 9 4.5 26
l7.5 36l8 36.5l6 26.5q5 22 12 34q3 8 7 8t8 -7q3 -8 29.5 -11t61.5 -3q45 0 66 8.5t28 15.5q9 11 11 11q5 0 6 -7.5t-1 -15.5q-4 -17 -18.5 -38t-34.5 -32q-17 -10 -42.5 -15t-52.5 -5h-25t-22 1q-10 0 -12 -5q-1 -2 -1.5 -3.5t-0.5 -4.5q0 -10 17.5 -15t42.5 -10
q7 -2 18 -3.5t22.5 -3.5t21 -3.5l15.5 -2.5q42 -10 55 -27t13 -41v-1z" />
    <glyph glyph-name="seveneighths" unicode="&#x215e;" horiz-adv-x="785" 
d="M593 27q21 0 33 9.5t12 23.5q0 8 -4.5 16t-19.5 17q-14 8 -34.5 16l-33.5 13q-10 3 -14 -2q-14 -11 -14 -35q0 -14 7 -24.5t17.5 -18t23.5 -11.5t26 -4h1zM648 323q30 0 47 -18t17 -38t-9.5 -32t-20.5 -21q-10 -8 -19.5 -14.5t-16.5 -10.5q-6 -5 1 -9q9 -5 20 -9t21 -9
q20 -10 27 -24t7 -34q0 -18 -9 -33.5t-22 -27t-27 -20t-23 -12.5t-20.5 -8t-24 -7t-24 -5t-19.5 -2q-20 0 -40 3.5t-36 12.5t-26.5 23t-10.5 35q0 22 15 35t48 33q8 5 -1 10q-15 8 -29 21t-14 37q0 26 19 48.5t45 36.5q11 5 19.5 7t11.5 2q2 0 5 -1t3 -3t-3 -5.5t-7 -7.5
q-5 -5 -8 -11t-3 -17q0 -17 17 -27.5t47 -23.5q10 -3 16 2q11 8 15.5 17.5t4.5 25.5q0 17 -13.5 29.5t-31.5 12.5q-13 0 -17 -1q-6 -2 -6 1q0 5 8 14.5t22 14.5q22 10 44 10h1zM617 558q11 0 0 -21q-7 -13 -26 -40l-45 -62.5l-57.5 -77.5l-65 -85l-67 -85l-62.5 -78l-52 -63
t-36 -41q-10 -10 -23 -19t-25.5 -16t-23.5 -11.5t-16 -4.5q-8 0 -9 3.5t10 15.5q22 23 52.5 59l66 79.5l73 92l73.5 95.5l67.5 90.5l55.5 76.5q13 19 23 35.5t14 25.5q2 7 14.5 12t23.5 9q23 10 34 10h1zM288 485q15 0 25.5 5.5t19.5 16.5q10 13 17 13q2 0 3.5 -3.5
t1.5 -7.5q0 -5 -7.5 -19.5t-12.5 -22.5l-31 -50.5l-41 -68l-40 -68t-28 -51.5q-5 -9 -8.5 -17t-2.5 -13q0 -9 8 -17q4 -3 -2 -7q-2 -2 -9.5 -5.5t-17 -7t-18.5 -6.5t-14 -3q-4 0 -9 3.5t-5 13.5q2 11 10 29.5t22 38.5l55.5 82.5l53.5 79.5q7 10 -4 12q-6 1 -20 2t-31 3
q-13 2 -29.5 3t-36.5 1q-26 0 -42 -9.5t-32 -28.5q-6 -8 -9 -8q-5 0 -6 8.5t4 21.5q5 12 14 28.5t21.5 32t27.5 26.5t32 11t35.5 -2.5t38.5 -7.5q38 -8 66 -8h1z" />
    <glyph glyph-name="onethird" unicode="&#x2153;" horiz-adv-x="785" 
d="M616 316q13 0 27.5 -3.5t26.5 -11t19.5 -19t7.5 -27.5q0 -14 -13 -29t-44 -32q-12 -5 -12 -11q0 -3 6.5 -5.5l17.5 -6.5q9 -3 20 -8t20.5 -13t15.5 -19t6 -26q0 -28 -29 -56.5t-90 -54.5q-29 -13 -51.5 -19.5t-45.5 -6.5q-10 0 -22 2.5t-22.5 7.5t-17.5 13t-7 19
q0 7 5 15t12.5 14.5t14.5 11t12 4.5t6.5 -1.5t4.5 -6.5q10 -15 27 -25t37 -10q49 0 49 54q0 32 -22 46q-10 5 -21 7t-20 2q-8 0 -17 -1t-12 -1q-6 0 -10 0.5t-4 5.5t8.5 17.5t21.5 17.5l21.5 10.5t20.5 13t15 18t6 26.5q0 15 -10.5 26.5t-27.5 11.5q-14 0 -21 -7.5t-9 -16.5
q-2 -11 -11.5 -16.5t-21.5 -11.5q-10 -5 -18.5 -8t-13.5 -3q-11 0 -8.5 13t16.5 26q13 12 31.5 25.5t39.5 24t43 17.5t42 7h1zM617 558q11 0 0 -21q-7 -13 -26 -40l-45 -62.5l-58 -77l-65 -84.5l-66.5 -85l-62.5 -78l-52.5 -63l-36.5 -41q-9 -10 -22 -19t-25.5 -16.5
t-23.5 -12t-16 -4.5q-8 0 -9 3.5t10 16.5q22 23 52.5 59l65.5 79.5l73 91.5l73.5 95l67.5 90l56 76q13 19 23 36t14 25q2 8 14.5 12.5t23.5 9.5q23 10 34 10h1zM156 184q-11 0 -18.5 8t-9.5 28q-1 8 0 25t2.5 38t3.5 43.5t4 41.5l3 35t0 20q-1 9 -10 7q-14 -5 -34 -7.5
t-31 -2.5q-5 0 -10.5 -0.5t-10.5 1.5q-12 2 -3 11q3 4 11 9.5t18 7.5q16 4 35.5 10.5l39.5 13.5t38.5 14.5l32.5 13.5l18 8t12 3q9 0 9 -7q0 -6 -5 -11q-3 -6 -3 -20t-1 -32.5t-2.5 -38.5l-3 -40.5t-3.5 -38.5q-2 -26 -1.5 -40t1.5 -25q2 -15 14 -21q8 -2 8 -9
q-1 -8 -14.5 -15.5t-31 -14.5t-34 -11t-23.5 -4h-1z" />
    </font>
</defs>
</svg>
